<svg width="56" height="56" viewBox="0 0 56 56" fill="none" xmlns="http://www.w3.org/2000/svg">
<circle cx="28" cy="28" r="28" fill="#122537"/>
<path d="M36.1668 27.9999C36.1668 28.6443 35.6445 29.1666 35.0002 29.1666H29.1668V34.9999C29.1668 35.6442 28.6445 36.1666 28.0002 36.1666C27.3558 36.1666 26.8335 35.6442 26.8335 34.9999V29.1666H21.0002C20.3558 29.1666 19.8335 28.6443 19.8335 27.9999C19.8335 27.3556 20.3558 26.8333 21.0002 26.8333H26.8335V20.9999C26.8335 20.3556 27.3558 19.8333 28.0002 19.8333C28.6445 19.8333 29.1668 20.3556 29.1668 20.9999V26.8333H35.0002C35.6445 26.8333 36.1668 27.3556 36.1668 27.9999Z" fill="#F5F5F7"/>
</svg>
