<svg width="80" height="80" viewBox="0 0 80 80" fill="none" xmlns="http://www.w3.org/2000/svg">
<circle cx="40" cy="40" r="40" fill="#122537"/>
<path d="M51.6667 40C51.6667 40.9205 50.9205 41.6667 50 41.6667H41.6667V50C41.6667 50.9205 40.9205 51.6667 40 51.6667C39.0796 51.6667 38.3334 50.9205 38.3334 50V41.6667H30C29.0796 41.6667 28.3334 40.9205 28.3334 40C28.3334 39.0796 29.0796 38.3334 30 38.3334H38.3334V30C38.3334 29.0796 39.0796 28.3334 40 28.3334C40.9205 28.3334 41.6667 29.0796 41.6667 30V38.3334H50C50.9205 38.3334 51.6667 39.0796 51.6667 40Z" fill="#F5F5F7"/>
</svg>
