<svg width="56" height="56" viewBox="0 0 56 56" fill="none" xmlns="http://www.w3.org/2000/svg">
<path d="M0 0H48C52.4183 0 56 3.58172 56 8V48C56 52.4183 52.4183 56 48 56H0V0Z" fill="#122537"/>
<path d="M18 35.4835C18 36.2014 18.7341 36.6854 19.3939 36.4026L36.8553 28.9191C37.6634 28.5728 37.6634 27.4272 36.8553 27.0809L19.3939 19.5974C18.7341 19.3146 18 19.7986 18 20.5165V25.1245C18 25.6257 18.371 26.0495 18.8678 26.1157L33 28L18.8678 29.8843C18.371 29.9505 18 30.3743 18 30.8755V35.4835Z" fill="#F5F5F7"/>
</svg>
