<svg width="71" height="64" viewBox="0 0 71 64" fill="none" xmlns="http://www.w3.org/2000/svg">
<g clip-path="url(#clip0_662_5073)">
<path d="M6.1836 31.9345C6.33952 30.9668 6.51846 29.9331 6.72044 28.8332C6.92242 27.7333 7.2403 26.249 7.67408 24.3803C8.03839 22.7373 8.38987 21.2513 8.72851 19.9224C9.06715 18.5935 9.39862 17.327 9.72292 16.1227C10.0472 14.9174 10.3857 13.7595 10.7383 12.6491C11.0909 11.5386 11.4629 10.3793 11.8544 9.17089C12.3951 7.54479 12.8858 6.18011 13.3268 5.07684C13.7678 3.97357 14.1732 3.06955 14.5432 2.3648C14.9132 1.65929 15.2696 1.13553 15.6124 0.793512C15.9227 0.47139 16.3093 0.232228 16.7364 0.0979869C17.271 -0.060592 17.7601 -0.0266916 18.2037 0.199688C18.415 0.302456 18.6021 0.448515 18.753 0.628332C18.9038 0.808148 19.015 1.01768 19.0792 1.24326C19.1343 1.42561 19.1648 1.61448 19.1698 1.80488C19.1649 2.06503 19.1303 2.32377 19.0667 2.57611C18.9586 3.01749 18.8224 3.45154 18.659 3.87563C18.4604 4.41352 18.1869 5.12637 17.8384 6.01419C17.5187 6.89447 17.16 7.93032 16.7625 9.12173C16.365 10.3131 15.9559 11.5774 15.5353 12.9146C15.1133 14.2492 14.7014 15.5903 14.2997 16.9381C13.898 18.2858 13.5437 19.5329 13.2368 20.6795C12.9291 21.8288 12.6408 22.9546 12.372 24.0572C12.1032 25.1597 11.7823 26.5172 11.4093 28.1297C11.1934 29.0119 10.9969 29.8717 10.8198 30.709C10.6428 31.5463 10.5001 32.1867 10.3917 32.63L9.9619 34.8047C9.67044 36.1193 9.33558 37.0883 8.95729 37.7117C8.57901 38.3351 8.07633 38.7402 7.44926 38.927C6.28685 39.2724 5.2109 38.9611 4.2214 37.9931C3.2319 37.025 2.41927 35.4748 1.78351 33.3425C1.39164 32.0268 1.03846 30.3837 0.723978 28.4134C0.413537 26.4824 0.209742 24.5358 0.113516 22.5825C0.0342349 21.1737 -0.00351787 19.7015 0.000257405 18.1658C0.00403268 16.6301 0.0497136 15.1498 0.1373 13.7249C0.225264 12.301 0.354567 10.9578 0.52521 9.69521C0.661985 8.61409 0.855164 7.54081 1.10396 6.47975C1.35275 5.48459 1.64401 4.74179 1.97775 4.25136C2.31148 3.76093 2.74413 3.43624 3.27569 3.27729C3.81027 3.11833 4.29369 3.1624 4.72596 3.4095C5.15823 3.6566 5.45402 4.0457 5.61334 4.57681C5.72037 4.96406 5.76246 5.36632 5.73793 5.76728C5.71829 6.21702 5.63052 6.92536 5.4746 7.89227C5.35908 8.5409 5.25205 9.3579 5.15351 10.3433C5.05498 11.3287 4.96626 12.3781 4.88736 13.4915C4.81185 14.6065 4.76183 15.7553 4.73729 16.9381C4.71275 18.1208 4.70954 19.2561 4.72766 20.3439C4.7337 22.6616 4.85678 24.7653 5.09688 26.6551C5.31447 28.4415 5.67792 30.2071 6.1836 31.9345Z" fill="#FF78FD"/>
<path d="M66.9173 8.86463C66.827 8.56329 66.6662 8.34953 66.4348 8.22334C66.2033 8.09716 65.9359 8.07927 65.6323 8.16967C65.4926 8.20815 65.358 8.26316 65.2314 8.33352C65.1295 8.39398 65.0224 8.51489 64.9126 8.69739C64.7676 8.95424 64.645 9.22304 64.5462 9.50083C64.4122 9.8549 64.2302 10.3502 64.0003 10.9868C63.3207 12.8325 62.6512 13.8533 61.9916 14.0491C61.6345 14.1554 61.3984 14.0162 61.2832 13.6316C61.2096 13.3841 61.2005 13.0513 61.2549 12.6304C61.3221 12.1478 61.4195 11.6698 61.5465 11.1992C61.7036 10.6111 61.8909 10.0313 62.1077 9.46241C62.3503 8.82017 62.6277 8.19152 62.9385 7.57924C63.316 6.83907 63.5546 6.28273 63.6543 5.9102C63.7533 5.55112 63.7491 5.17151 63.6424 4.81465C63.5201 4.40295 63.2526 4.10858 62.84 3.93154C62.4273 3.75451 61.9871 3.73567 61.5194 3.87504C61.1219 3.99534 60.7534 4.19571 60.4366 4.46378C60.101 4.74289 59.6819 5.19641 59.1794 5.82432C58.6109 6.53133 58.0521 7.29504 57.5032 8.11543C56.9543 8.93582 56.3988 9.86338 55.8366 10.8981L55.3456 11.8089C55.3683 11.684 55.3876 11.5721 55.4023 11.4778C55.417 11.3911 55.4451 11.3073 55.4855 11.2292L56.0309 9.13866L56.6589 7.02496C56.6725 6.87128 56.681 6.69669 56.6821 6.50176C56.6837 6.30512 56.6558 6.10935 56.5994 5.92094C56.5509 5.74872 56.4689 5.58775 56.3579 5.44726C56.2469 5.30676 56.1092 5.18952 55.9527 5.10224C55.8006 5.01122 55.6309 4.95329 55.4547 4.93226C55.2785 4.91123 55.0999 4.92756 54.9306 4.9802C54.3794 5.14405 53.8946 5.65444 53.4763 6.51137C53.058 7.3683 52.6367 8.69626 52.2124 10.4952C52.0357 11.2088 50.4801 15.7628 50.091 16.4165C49.702 17.0702 49.3016 17.459 48.8882 17.581C48.4201 17.72 48.1205 17.5693 47.9895 17.129C47.8997 16.8277 47.9048 16.3928 48.0048 15.8244C48.1247 15.1906 48.301 14.5687 48.5315 13.9661C48.677 13.6531 48.758 13.4209 48.7721 13.2666C48.7867 13.12 48.7733 12.972 48.7325 12.8304C48.6865 12.6703 48.5967 12.5261 48.4731 12.414C48.3497 12.301 48.1169 12.1761 47.7772 12.0377C47.8059 11.6995 47.8167 11.36 47.8094 11.0207C47.795 10.7096 47.741 10.4017 47.6486 10.1043C47.37 9.17162 46.8735 8.51244 46.1593 8.12673C45.445 7.74102 44.6473 7.67905 43.7661 7.94084C42.803 8.22673 41.9058 8.85936 41.0745 9.8387C40.2432 10.8181 39.5382 12.0961 38.9594 13.6728C38.545 14.7736 38.2544 15.9168 38.093 17.0815C37.9909 17.2778 37.8991 17.4792 37.8178 17.685C37.3409 18.9507 36.7768 20.1819 36.1297 21.37C35.4724 22.5817 34.817 23.5987 34.1635 24.421C34.1948 24.0232 34.2439 23.6351 34.3107 23.2565C34.3776 22.878 34.4908 22.3058 34.6505 21.54C34.7589 20.9999 34.8429 20.5789 34.9025 20.2772C34.9591 19.975 35.0237 19.7032 35.0866 19.4602C35.1494 19.2173 35.2094 18.9681 35.2672 18.7116C35.325 18.4551 35.4212 18.098 35.5549 17.6381C35.637 17.3709 35.6981 17.0977 35.7378 16.8211C35.7591 16.6735 35.7523 16.5232 35.718 16.3781C35.6523 16.1589 35.4586 15.9625 35.137 15.7888C35.1795 15.3234 35.1903 14.8556 35.1692 14.3887C35.1563 13.9682 35.0922 13.5508 34.9784 13.1457C34.7409 12.3494 34.2847 11.7748 33.6097 11.4219C32.9346 11.0689 32.1985 11.0109 31.4011 11.2478C29.3625 11.8535 27.4937 13.8738 25.7948 17.3087C25.2062 18.4923 24.7504 19.7373 24.4357 21.0208C24.279 21.2009 24.1556 21.4073 24.071 21.6304L23.5478 23.0429C23.1138 24.2274 22.4761 25.3272 21.6632 26.2929C20.8545 27.2507 20.0789 27.8401 19.3363 28.0608C18.841 28.2077 18.4138 28.2077 18.0548 28.0608C17.6957 27.9139 17.4477 27.6061 17.3107 27.1376C17.2644 26.9914 17.2419 26.8388 17.2438 26.6856C17.2557 26.5027 17.2843 26.3213 17.3293 26.1437C17.5938 26.1256 17.8073 26.1149 17.9721 26.1104C18.1676 26.1013 18.3611 26.0664 18.5474 26.0064C19.3627 25.7594 20.1109 25.3302 20.735 24.7515C21.3878 24.1607 21.9319 23.4605 22.3427 22.6825C22.7532 21.9044 23.0336 21.0647 23.1729 20.1964C23.3178 19.3586 23.269 18.4989 23.0302 17.6827C22.7837 16.8586 22.3352 16.2593 21.6847 15.8849C21.0342 15.5104 20.3094 15.4415 19.5101 15.6781C18.5467 15.9613 17.6589 16.5757 16.8469 17.5211C16.0348 18.4666 15.3677 19.5693 14.8456 20.8292C14.32 22.1009 13.9778 23.4405 13.8291 24.808C13.6758 26.1987 13.7749 27.4847 14.1264 28.6659C14.4952 29.9014 15.1748 30.7982 16.165 31.3565C17.1553 31.9147 18.256 32.0138 19.4671 31.6537C20.5408 31.335 21.5911 30.6869 22.6179 29.7095C23.4292 28.9287 24.1321 28.0432 24.7081 27.0765C24.9554 27.5491 25.3227 27.9485 25.7733 28.2348C26.437 28.6491 27.1405 28.7467 27.8839 28.5275C28.406 28.3723 28.921 28.0399 29.4287 27.5302C29.9423 27.0116 30.3549 26.4024 30.6457 25.7335C30.657 25.9057 30.6559 26.0785 30.6423 26.2505C30.6304 26.359 30.5857 26.646 30.5188 27.1161C30.4664 27.3421 30.4324 27.6811 30.4169 28.1331L30.3841 28.3224L30.1604 28.4766C29.8059 28.79 29.4486 29.0979 29.0884 29.4004C28.7282 29.7029 28.4073 29.9854 28.1257 30.2479C27.4813 30.7979 26.9295 31.283 26.4704 31.7034C26.0114 32.1238 25.6123 32.5193 25.2733 32.8899C24.9574 33.2324 24.6591 33.5907 24.3797 33.9634C24.1233 34.3085 23.8844 34.6637 23.6628 35.029C22.623 36.863 22.332 38.5488 22.7895 40.0864C22.9286 40.565 23.1753 41.0056 23.511 41.3746C23.8386 41.7341 24.2316 42.0284 24.6691 42.2419C25.117 42.4576 25.5987 42.5948 26.0933 42.6476C26.6153 42.7038 27.1433 42.654 27.6455 42.5013C29.0495 42.0843 30.2978 40.9961 31.3904 39.2366C31.8596 38.4987 32.2317 37.6109 32.5065 36.5732C32.7814 35.5355 33.0164 34.2399 33.2116 32.6865L33.6125 29.2044C33.634 29.0778 33.6561 28.9518 33.6788 28.8264L33.8192 28.6942C34.5248 27.9472 35.1513 27.2605 35.6987 26.6341C36.2461 26.0077 36.7337 25.4071 37.1614 24.8323C37.5786 24.2732 37.9597 23.6881 38.3025 23.0808C38.4231 22.8655 38.537 22.6418 38.6514 22.4192C38.9085 22.9177 39.2878 23.3434 39.7539 23.6565C40.4444 24.1086 41.1746 24.2206 41.9443 23.9927C43.4311 23.5509 44.5636 22.2276 45.3421 20.023L45.4554 20.3942C45.5356 20.6813 45.6728 20.9495 45.8586 21.1829C46.0445 21.4163 46.2753 21.6101 46.5375 21.753C46.7951 21.9019 47.0811 21.9953 47.377 22.0271C47.6729 22.0589 47.9722 22.0285 48.2557 21.9378C49.2463 21.6432 50.1637 20.9922 51.0078 19.9846C51.0231 20.6558 51.082 21.1677 51.1857 21.5157C51.325 21.9832 51.5843 22.3248 51.9637 22.5407C52.1408 22.6464 52.3383 22.7136 52.5433 22.7379C52.7482 22.7621 52.956 22.7429 53.153 22.6813C53.7861 22.493 54.1725 21.9299 54.3122 20.992L54.5223 19.1359C54.6006 18.4875 54.7491 17.8495 54.9651 17.233C55.203 16.5328 55.4963 15.8527 55.8423 15.1989C56.1968 14.5245 56.5958 13.8742 57.0366 13.2525C57.4559 12.6566 57.9182 12.0922 58.42 11.5637C58.0391 12.6937 57.8096 13.6064 57.7314 14.3017C57.657 15.0276 57.7305 15.761 57.9478 16.4578C58.1935 17.2812 58.6486 17.8782 59.3131 18.2489C59.9775 18.6195 60.7092 18.6862 61.508 18.4489C62.2782 18.2202 63.0302 17.7281 63.7641 16.9725C64.4981 16.2169 65.1425 15.2632 65.6975 14.1113C66.206 13.0039 66.5712 11.968 66.7932 11.0037C67.0152 10.0395 67.0566 9.32643 66.9173 8.86463ZM18.6256 20.4693C19.0254 19.7537 19.3767 19.3502 19.6795 19.2591C19.9552 19.1772 20.1415 19.3009 20.2407 19.6309C20.3231 19.9245 20.3231 20.235 20.2407 20.5287C20.1522 20.8648 20.0132 21.1856 19.8284 21.4801C19.6398 21.7872 19.4029 22.0619 19.1268 22.2937C18.8744 22.5127 18.5792 22.6769 18.2598 22.7757C18.1702 22.803 18.0782 22.8219 17.9851 22.8322C17.9121 22.839 17.8152 22.8452 17.6974 22.8491C17.9008 22.0187 18.2128 21.2185 18.6256 20.4693ZM29.7249 33.047C29.518 34.064 29.3481 34.8245 29.2152 35.3285C29.0896 35.8071 28.9384 36.2786 28.7622 36.741C28.2582 37.9674 27.7316 38.6624 27.1823 38.8259C26.7424 38.9566 26.4527 38.7886 26.313 38.3219C26.1975 37.9366 26.2211 37.4885 26.3838 36.9777C26.5648 36.4264 26.8244 35.9039 27.1545 35.4262C27.2764 35.2418 27.4117 35.0665 27.5594 34.9019C27.7066 34.7386 27.8641 34.5629 28.0334 34.3798C28.2027 34.1968 28.4156 33.9753 28.6688 33.7205C28.9219 33.4656 29.2209 33.1662 29.5697 32.8272L29.8223 32.617L29.7249 33.047ZM30.6548 21.4705C30.4504 21.9514 30.2145 22.4184 29.9486 22.8684C29.7321 23.2394 29.4835 23.5908 29.2056 23.9187C28.9598 24.2012 28.7407 24.3707 28.5481 24.4272C28.4652 24.4514 28.3779 24.4572 28.2925 24.444C28.207 24.4308 28.1255 24.399 28.0538 24.3509C27.8812 24.2406 27.7574 24.0686 27.7078 23.8701C27.5602 23.3759 27.6066 22.5774 27.8471 21.4745C28.1039 20.3236 28.4949 19.2068 29.0119 18.1466C29.4397 17.2723 29.8461 16.5755 30.2312 16.0561C30.6162 15.5366 30.9602 15.2328 31.263 15.1447C31.5937 15.0464 31.8859 15.1752 31.9306 15.5741C32.1469 17.6014 30.8762 20.9564 30.6548 21.4705ZM44.9638 13.6796C44.8668 14.2025 44.6919 14.7079 44.4451 15.1792L43.9921 16.0758C43.9456 16.1523 43.9153 16.2375 43.9031 16.3261C43.8908 16.4147 43.8968 16.5049 43.9207 16.5911C43.9366 16.6476 44.0232 16.7843 44.1789 17.0064C44.0827 17.1855 44.0277 17.3059 44.0181 17.3691C43.721 18.0848 43.4545 18.5973 43.2185 18.9065C42.9801 19.2173 42.7088 19.415 42.4076 19.506C41.9953 19.6284 41.7192 19.4563 41.5791 18.9896C41.4658 18.605 41.4507 18.0266 41.5338 17.2544C41.6207 16.4715 41.7898 15.6998 42.0384 14.952C42.3098 14.1539 42.6405 13.4802 43.0305 12.931C43.4205 12.3818 43.795 12.0539 44.154 11.9473C44.5929 11.8168 44.88 11.971 45.0103 12.4101C45.0926 12.6846 45.0771 13.1078 44.9638 13.6796Z" fill="#FF78FD"/>
<path d="M40.8723 45.728L41.2229 43.077C41.4445 41.4076 41.671 39.8992 41.9024 38.5519C42.1339 37.2045 42.4093 35.8236 42.7286 34.4092C43.0952 32.6667 43.4214 31.2365 43.7072 30.1186C43.993 29.0006 44.2635 28.0936 44.5187 27.3975C44.7735 26.7006 45.028 26.1842 45.2821 25.8482C45.5039 25.5399 45.7947 25.2874 46.1315 25.1109C46.6378 24.86 47.1652 24.8465 47.7137 25.0702C48.2574 25.2908 48.698 25.7073 48.9482 26.2369C49.1247 26.6031 49.2368 26.9968 49.2795 27.4009C49.3335 27.8404 49.3229 28.4685 49.2478 29.2852C49.1345 30.8728 48.1152 38.7378 48.455 44.2387C48.8514 48.483 51.1234 51.1883 51.1234 51.1883C51.2196 51.3211 51.3029 51.4442 51.3759 51.5589C51.449 51.6736 51.4954 51.7544 51.5192 51.803C51.7947 52.3455 51.8481 52.9735 51.6681 53.5545C51.4922 54.167 51.1264 54.6109 50.5707 54.8863C49.9428 55.197 49.3312 55.1925 48.7359 54.8727C48.1405 54.5529 47.6329 53.9711 47.2131 53.1274C46.974 52.6266 46.7759 52.1074 46.6208 51.5747C46.4286 50.9491 46.2559 50.2543 46.1026 49.4904C45.9493 48.7265 45.8189 47.9054 45.7113 47.027C45.6048 46.149 45.5293 45.2711 45.4848 44.3935C45.3817 42.7342 45.353 41.0744 45.3987 39.4141C45.4444 37.7537 45.5482 36.1188 45.7102 34.5092C45.6007 34.8953 45.5005 35.2532 45.4095 35.5828C45.3177 35.9144 45.2294 36.3099 45.1439 36.7721C45.0584 37.2343 44.957 37.7891 44.8409 38.431C44.7248 39.0728 44.581 39.8892 44.41 40.8741C44.3601 41.2583 44.3109 41.5973 44.2622 41.8911C44.2135 42.1854 44.1665 42.5007 44.124 42.8369C44.0815 43.1731 44.0345 43.5652 43.9852 44.0093C43.936 44.4534 43.8624 45.0319 43.7638 45.7399C43.6283 46.6782 43.539 47.3905 43.496 47.8768C43.4524 48.3649 43.4246 48.7757 43.411 49.1119C43.3733 49.8215 43.3267 50.3475 43.2712 50.6899C43.2283 50.9931 43.1391 51.2879 43.0067 51.564C42.7636 52.1023 42.4253 52.4786 41.9919 52.6929C41.3879 52.9916 40.7916 52.9871 40.203 52.6793C39.6144 52.3716 39.1157 51.8083 38.7068 50.9894C38.0715 49.7125 37.6058 48.0517 37.3098 46.0072C37.0094 43.8623 36.9125 41.694 37.0204 39.531C36.7277 40.9368 34.1442 60.0606 28.2169 62.9421C24.2823 64.8541 21.2282 62.984 20.2355 61.676C19.0746 60.1459 18.1114 57.7927 20.4196 55.84C23.3247 53.3828 23.6916 59.6097 27.3057 57.4045C33.5117 53.6189 32.0297 43.7833 35.2474 33.1594C35.5641 32.1628 35.8616 31.445 36.1398 31.0062C36.3978 30.5866 36.7681 30.2473 37.209 30.0265C37.7233 29.7649 38.3189 29.7114 38.8716 29.8773C39.45 30.0411 39.8653 30.376 40.1175 30.8819C40.2486 31.1664 40.3243 31.4732 40.3406 31.7859C40.3693 32.1475 40.3468 32.6765 40.2732 33.373C40.1735 34.6834 40.1041 35.9039 40.0648 37.0343C40.0255 38.1646 40.0314 39.2483 40.0824 40.2853C40.133 41.3257 40.2085 42.3391 40.3089 43.3256C40.4093 44.3121 40.5543 45.3291 40.7438 46.3767L40.8723 45.728Z" fill="#FF78FD"/>
<path d="M70.7371 33.1662C70.7068 32.4488 70.6121 31.7355 70.454 31.035C70.3202 30.429 70.1086 29.8427 69.8243 29.2908C69.409 28.5073 68.8842 27.9785 68.25 27.7043C67.6157 27.43 66.9656 27.4696 66.2997 27.8229C65.93 28.0145 65.604 28.2801 65.3421 28.6032C65.0835 28.9219 64.8237 29.4091 64.5628 30.0649C64.6433 29.414 64.6674 28.9141 64.6353 28.5653C64.6116 28.2467 64.5246 27.9359 64.3794 27.6512C64.2995 27.4946 64.189 27.3557 64.0542 27.2426C63.9195 27.1296 63.7633 27.0447 63.5951 26.9931C63.4268 26.9415 63.2498 26.9242 63.0747 26.9422C62.8996 26.9602 62.7299 27.0132 62.5757 27.098C62.4226 27.176 62.2842 27.28 62.1669 27.4054C62.0454 27.5526 61.9569 27.724 61.9075 27.9082C61.8266 28.1879 61.764 28.4725 61.7201 28.7603C61.6532 29.1974 61.6123 29.6381 61.5977 30.0801L61.4573 31.7977C61.4437 32.2317 61.4299 32.6648 61.416 33.0973C61.402 33.5297 61.3733 34.1077 61.3299 34.8313C61.3299 35.2398 61.267 45.2359 58.7918 43.9183C58.2187 43.6132 58.4401 40.3305 58.4271 39.7892C58.4196 39.1837 58.4658 38.5786 58.5653 37.9812C58.6423 37.667 58.6723 37.4377 58.6576 37.2936C58.6441 37.1554 58.6041 37.0211 58.5398 36.8981C58.4677 36.7593 58.3585 36.6432 58.2243 36.5625C58.0901 36.4817 57.8529 36.4099 57.5136 36.3449C57.4783 36.0278 57.4257 35.7128 57.3562 35.4014C57.285 35.1179 57.1783 34.8445 57.0385 34.5878C56.6097 33.7802 56.0309 33.2647 55.3023 33.0413C54.5737 32.818 53.8282 32.9078 53.066 33.3108C52.2328 33.7531 51.524 34.5007 50.9396 35.5539C50.3552 36.6071 49.9429 37.9128 49.7028 39.4711C49.4834 40.8021 49.4485 42.1569 49.5992 43.4974C49.7502 44.8157 50.0658 45.9269 50.546 46.8309C50.9877 47.6626 51.5676 48.2233 52.2856 48.5129C53.0037 48.8026 53.6967 48.7721 54.3645 48.4214C55.6504 47.7411 56.4485 46.3151 56.7588 44.1432L56.9287 44.4635C57.0554 44.7132 57.2309 44.9351 57.4448 45.1161C57.6588 45.297 57.9069 45.4334 58.1745 45.5173C58.439 45.607 58.7194 45.6403 58.9976 45.6151C59.2758 45.5899 59.5456 45.5067 59.7896 45.3709C60.4046 45.0462 60.952 44.5592 61.4318 43.9098C61.4726 44.8353 61.523 45.8437 61.583 46.9349C61.7506 49.4318 61.9262 51.37 62.1097 52.7494C62.2932 54.1287 62.5108 55.0556 62.7626 55.5298C62.9691 55.9272 63.319 56.2317 63.7417 56.3818C64.1797 56.5468 64.5772 56.5347 64.9343 56.3457C65.2435 56.1818 65.4308 55.9456 65.4961 55.6371C65.5612 55.3292 65.568 54.8382 65.5154 54.1681C65.4899 54.1207 65.4678 53.9336 65.448 53.6099C65.4281 53.2861 65.3879 52.8353 65.3256 52.2606L64.9666 47.9694C64.9602 47.7283 64.9489 47.5061 64.9326 47.3027C64.9156 47.0982 64.8913 46.823 64.859 46.4744C64.85 46.1143 64.8382 45.7478 64.8239 45.3749C64.8096 45.002 64.7797 44.63 64.7344 44.259L64.671 43.1058C65.5431 43.2538 66.3954 43.1075 67.2278 42.6668C67.9417 42.2901 68.5458 41.7195 69.0399 40.9548C69.5341 40.1902 69.9413 39.192 70.2614 37.9603C70.4695 37.1611 70.6104 36.346 70.6828 35.5234C70.7541 34.7398 70.7723 33.9523 70.7371 33.1662ZM54.6703 43.0572C54.48 43.5708 54.2173 44.068 53.9556 44.2065C53.5989 44.3948 53.3131 44.2874 53.0983 43.8844C52.9216 43.551 52.801 43.0228 52.7347 42.295C52.6685 41.5673 53.1849 34.3747 55.2139 35.016C56.0781 35.2895 56.0804 39.253 54.6703 43.0572ZM67.4974 35.3358C67.457 35.8193 67.3746 36.2983 67.251 36.7676C67.077 37.5891 66.8363 38.2411 66.529 38.7236C66.2217 39.2061 65.8413 39.5668 65.3879 39.8056C65.281 39.8635 65.1704 39.914 65.0567 39.957C64.9203 40.0021 64.7773 40.0239 64.6336 40.0214C64.6178 38.8436 64.6163 37.8786 64.6291 37.1263C64.6421 36.3555 64.6988 35.5861 64.799 34.8217C64.9945 32.8939 65.4495 31.7407 66.1638 31.3621C66.2481 31.3128 66.3433 31.285 66.441 31.2811C66.5386 31.2771 66.6358 31.2972 66.7238 31.3395C66.908 31.4267 67.0579 31.5726 67.1497 31.7542C67.2924 32.0447 67.3879 32.356 67.4328 32.6763C67.5 33.0875 67.5378 33.5029 67.5461 33.9194C67.556 34.392 67.5397 34.8649 67.4974 35.3358Z" fill="#FF78FD"/>
</g>
<defs>
<clipPath id="clip0_662_5073">
<rect width="71" height="64" fill="white"/>
</clipPath>
</defs>
</svg>
