<svg width="66" height="64" viewBox="0 0 66 64" fill="none" xmlns="http://www.w3.org/2000/svg">
<circle cx="32" cy="32" r="32" fill="#B6B6C8"/>
<path d="M33.3333 18.6667V21.3334C39.1866 22.0534 43.3333 27.3734 42.6133 33.2267C41.9999 38.0801 38.1866 41.9067 33.3333 42.5067V45.1734C40.6666 44.3734 45.9333 37.7867 45.1333 30.4667C44.4399 24.2534 39.5466 19.3334 33.3333 18.6667ZM30.6666 18.6667C28.0533 18.9067 25.5866 19.9334 23.5599 21.6001L25.4666 23.6534C26.9599 22.4534 28.7599 21.6801 30.6666 21.4134V18.6667ZM21.6799 23.5601C19.9999 25.5867 18.9866 28.0534 18.7333 30.6667H21.3999C21.6533 28.7734 22.3999 26.9734 23.5866 25.4667L21.6799 23.5601ZM18.7466 33.3334C19.0133 35.9467 20.0399 38.4134 21.6933 40.4401L23.5866 38.5334C22.4133 37.0267 21.6533 35.2267 21.4133 33.3334H18.7466ZM25.4133 40.4934L23.5599 42.3201C25.5733 44.0001 28.0533 45.0534 30.6666 45.3334V42.6667C28.7733 42.4267 26.9733 41.6667 25.4666 40.4934H25.4133Z" fill="#F5F5F7"/>
</svg>
