<svg width="24" height="24" viewBox="0 0 24 24" fill="none" xmlns="http://www.w3.org/2000/svg">
<circle cx="12" cy="12" r="12" fill="#122537"/>
<path d="M18 12C18 12.4734 17.6162 12.8571 17.1429 12.8571H12.8571V17.1429C12.8571 17.6162 12.4734 18 12 18C11.5266 18 11.1429 17.6162 11.1429 17.1429V12.8571H6.85714C6.38376 12.8571 6 12.4734 6 12C6 11.5266 6.38376 11.1429 6.85714 11.1429H11.1429V6.85714C11.1429 6.38376 11.5266 6 12 6C12.4734 6 12.8571 6.38376 12.8571 6.85714V11.1429H17.1429C17.6162 11.1429 18 11.5266 18 12Z" fill="#F5F5F7"/>
</svg>
