<svg width="56" height="56" viewBox="0 0 56 56" fill="none" xmlns="http://www.w3.org/2000/svg">
<path d="M0 0H48C52.4183 0 56 3.58172 56 8V48C56 52.4183 52.4183 56 48 56H0V0Z" fill="#122537"/>
<path d="M18 35.4834C18 36.2013 18.7341 36.6853 19.3939 36.4025L36.8553 28.9191C37.6634 28.5727 37.6634 27.4271 36.8553 27.0808L19.3939 19.5973C18.7341 19.3145 18 19.7985 18 20.5165V25.1244C18 25.6256 18.371 26.0494 18.8678 26.1156L33 27.9999L18.8678 29.8842C18.371 29.9504 18 30.3742 18 30.8754V35.4834Z" fill="#F5F5F7"/>
</svg>
