<svg width="97" height="88" viewBox="0 0 97 88" fill="none" xmlns="http://www.w3.org/2000/svg">
<g clip-path="url(#clip0_644_2519)">
<path d="M8.44801 43.9099C8.66103 42.5794 8.90551 41.1579 9.18145 39.6456C9.45739 38.1333 9.89167 36.0924 10.4843 33.523C10.982 31.2638 11.4622 29.2206 11.9249 27.3933C12.3875 25.5661 12.8404 23.8246 13.2834 22.1688C13.7265 20.5114 14.1889 18.9193 14.6706 17.3925C15.1523 15.8656 15.6606 14.2715 16.1955 12.61C16.9341 10.3741 17.6046 8.49765 18.207 6.98065C18.8095 5.46365 19.3634 4.22064 19.8689 3.2516C20.3743 2.28153 20.8612 1.56135 21.3296 1.09108C21.7536 0.648161 22.2817 0.319314 22.8653 0.134732C23.5956 -0.0833141 24.2638 -0.0367009 24.8699 0.274571C25.1585 0.415878 25.4142 0.616708 25.6203 0.863956C25.8264 1.1112 25.9782 1.39931 26.0659 1.70948C26.1412 1.96022 26.1828 2.21991 26.1897 2.48171C26.1831 2.83941 26.1358 3.19519 26.0489 3.54216C25.9012 4.14904 25.7152 4.74587 25.4919 5.32899C25.2206 6.06859 24.8469 7.04876 24.3708 8.26951C23.934 9.4799 23.444 10.9042 22.9009 12.5424C22.3578 14.1806 21.7989 15.919 21.2243 17.7576C20.6477 19.5926 20.085 21.4367 19.5362 23.2898C18.9874 25.143 18.5034 26.8578 18.084 28.4344C17.6637 30.0146 17.2699 31.5626 16.9026 33.0786C16.5354 34.5946 16.097 36.4612 15.5874 38.6784C15.2924 39.8914 15.0239 41.0735 14.782 42.2249C14.5401 43.3762 14.3452 44.2567 14.1971 44.8663L13.6099 47.8565C13.2117 49.6641 12.7542 50.9964 12.2374 51.8536C11.7206 52.7108 11.0339 53.2678 10.1772 53.5247C8.58908 53.9996 7.11911 53.5716 5.76726 52.2405C4.41541 50.9094 3.3052 48.7779 2.43663 45.8459C1.90125 44.0368 1.41874 41.7776 0.989097 39.0684C0.564974 36.4133 0.286549 33.7367 0.155085 31.0509C0.0467716 29.1139 -0.00480611 27.0896 0.000351666 24.978C0.00550944 22.8664 0.0679185 20.831 0.187579 18.8717C0.307755 16.9139 0.484409 15.067 0.71754 13.3309C0.904402 11.8444 1.16832 10.3686 1.50823 8.90966C1.84812 7.54131 2.24605 6.51996 2.70199 5.84562C3.15794 5.17129 3.74902 4.72483 4.47524 4.50627C5.20558 4.28771 5.86603 4.3483 6.4566 4.68806C7.04716 5.02782 7.45127 5.56284 7.66893 6.29311C7.81515 6.82559 7.87266 7.37868 7.83914 7.93001C7.81232 8.54841 7.6924 9.52237 7.47938 10.8519C7.32156 11.7437 7.17533 12.8671 7.04071 14.222C6.9061 15.5769 6.78489 17.0198 6.67709 18.5508C6.57394 20.0839 6.5056 21.6635 6.47207 23.2898C6.43854 24.9161 6.43416 26.4771 6.45892 27.9729C6.46717 31.1597 6.63531 34.0523 6.96335 36.6507C7.26062 39.107 7.75716 41.5348 8.44801 43.9099Z" fill="#FF78FD"/>
<path d="M91.4221 12.189C91.2989 11.7746 91.0791 11.4807 90.763 11.3072C90.4468 11.1337 90.0814 11.1091 89.6667 11.2334C89.4758 11.2863 89.2919 11.3619 89.1189 11.4587C88.9797 11.5418 88.8334 11.7081 88.6833 11.959C88.4853 12.3122 88.3178 12.6818 88.1828 13.0637C87.9997 13.5506 87.7511 14.2316 87.437 15.1069C86.5086 17.6448 85.5938 19.0483 84.6928 19.3177C84.2048 19.4637 83.8822 19.2723 83.7249 18.7435C83.6244 18.4033 83.612 17.9457 83.6862 17.3669C83.7781 16.7032 83.9111 16.046 84.0847 15.3991C84.2992 14.5903 84.5551 13.7932 84.8514 13.0109C85.1828 12.1278 85.5617 11.2634 85.9864 10.4215C86.5021 9.40382 86.8281 8.63885 86.9643 8.12662C87.0995 7.63288 87.0939 7.11092 86.948 6.62024C86.7809 6.05414 86.4155 5.64939 85.8517 5.40596C85.288 5.16254 84.6866 5.13664 84.0475 5.32827C83.5045 5.49368 83.001 5.7692 82.5683 6.13779C82.1098 6.52157 81.5373 7.14515 80.8508 8.00853C80.074 8.98068 79.3106 10.0308 78.5607 11.1588C77.8108 12.2868 77.0518 13.5622 76.2838 14.985L75.613 16.2373C75.644 16.0656 75.6703 15.9118 75.6904 15.7821C75.7105 15.6629 75.7489 15.5476 75.8041 15.4402L76.5492 12.5657L77.4072 9.65941C77.4257 9.4481 77.4373 9.20804 77.4389 8.94002C77.4411 8.66964 77.403 8.40045 77.3259 8.14138C77.2597 7.90458 77.1476 7.68324 76.9959 7.49007C76.8443 7.29689 76.6562 7.13568 76.4424 7.01567C76.2345 6.89051 76.0027 6.81087 75.762 6.78195C75.5214 6.75303 75.2773 6.77549 75.0459 6.84786C74.2929 7.07316 73.6306 7.77495 73.0592 8.95323C72.4877 10.1315 71.9121 11.9574 71.3323 14.4311C71.091 15.4123 68.9657 21.674 68.4342 22.5728C67.9027 23.4717 67.3557 24.0062 66.7909 24.174C66.1514 24.3651 65.7421 24.1579 65.5631 23.5525C65.4404 23.1381 65.4473 22.5402 65.584 21.7586C65.7478 20.8872 65.9886 20.0321 66.3035 19.2035C66.5023 18.7731 66.613 18.4538 66.6323 18.2417C66.6522 18.0401 66.6339 17.8366 66.5782 17.6419C66.5153 17.4217 66.3926 17.2235 66.2238 17.0694C66.0552 16.914 65.7372 16.7423 65.273 16.552C65.3123 16.0869 65.327 15.6201 65.3171 15.1536C65.2974 14.7259 65.2236 14.3024 65.0974 13.8934C64.7167 12.6111 64.0385 11.7047 63.0626 11.1743C62.0868 10.644 60.9969 10.5588 59.7931 10.9187C58.4774 11.3119 57.2516 12.1817 56.1159 13.5283C54.9801 14.8749 54.0169 16.6322 53.2262 18.8003C52.66 20.3137 52.263 21.8857 52.0425 23.4872C51.9031 23.7571 51.7776 24.0341 51.6665 24.3169C51.015 26.0572 50.2444 27.7502 49.3602 29.3838C48.4622 31.0499 47.5669 32.4483 46.674 33.579C46.7169 33.032 46.7839 32.4983 46.8752 31.9778C46.9665 31.4573 47.1212 30.6706 47.3394 29.6176C47.4874 28.8749 47.6022 28.2961 47.6837 27.8813C47.761 27.4657 47.8492 27.092 47.9351 26.7579C48.021 26.4238 48.103 26.0812 48.1819 25.7285C48.2608 25.3758 48.3924 24.8848 48.5749 24.2524C48.6871 23.8851 48.7706 23.5095 48.8248 23.1291C48.8539 22.9261 48.8447 22.7195 48.7978 22.52C48.708 22.2186 48.4434 21.9485 48.004 21.7097C48.0621 21.0697 48.0769 20.4265 48.0481 19.7846C48.0304 19.2064 47.9429 18.6324 47.7873 18.0754C47.4629 16.9805 46.8396 16.1904 45.9174 15.7051C44.9952 15.2198 43.9894 15.1401 42.9001 15.4659C40.1149 16.2987 37.5618 19.0766 35.2408 23.7995C34.4366 25.4271 33.8139 27.1388 33.384 28.9037C33.1699 29.1513 33.0012 29.4351 32.8858 29.7419L32.1709 31.6841C31.578 33.3127 30.7067 34.825 29.5961 36.1528C28.4913 37.4699 27.4317 38.2802 26.4171 38.5837C25.7404 38.7857 25.1568 38.7857 24.6663 38.5837C24.1758 38.3817 23.837 37.9585 23.6497 37.3142C23.5866 37.1133 23.5558 36.9035 23.5584 36.6927C23.5746 36.4413 23.6137 36.1919 23.6753 35.9477C24.0366 35.9228 24.3282 35.9081 24.5534 35.9019C24.8205 35.8894 25.0849 35.8413 25.3394 35.7589C26.4533 35.4193 27.4754 34.8292 28.3281 34.0334C29.2199 33.2211 29.9633 32.2582 30.5245 31.1885C31.0853 30.1186 31.4684 28.964 31.6587 27.7702C31.8566 26.6182 31.7899 25.436 31.4638 24.3138C31.127 23.1806 30.5142 22.3566 29.6255 21.8418C28.7369 21.327 27.7466 21.2322 26.6547 21.5574C25.3384 21.9469 24.1255 22.7916 23.0161 24.0916C21.9067 25.3916 20.9953 26.9078 20.282 28.6403C19.564 30.3889 19.0964 32.2308 18.8932 34.1111C18.6838 36.0233 18.8192 37.7915 19.2994 39.4157C19.8033 41.1145 20.7317 42.3477 22.0846 43.1152C23.4375 43.8828 24.9412 44.019 26.5959 43.5239C28.0627 43.0857 29.4976 42.1946 30.9005 40.8506C32.0088 39.777 32.9692 38.5595 33.7561 37.2303C34.0939 37.88 34.5958 38.4292 35.2114 38.8229C36.1181 39.3927 37.0793 39.5268 38.0949 39.2254C38.8082 39.012 39.5117 38.5549 40.2054 37.8542C40.907 37.141 41.4708 36.3033 41.868 35.3837C41.8835 35.6204 41.882 35.858 41.8634 36.0945C41.8471 36.2437 41.786 36.6383 41.6947 37.2847C41.623 37.5955 41.5766 38.0616 41.5555 38.6831L41.5106 38.9434L41.205 39.1555C40.7207 39.5864 40.2325 40.0098 39.7404 40.4257C39.2484 40.8416 38.81 41.23 38.4252 41.591C37.5448 42.3472 36.791 43.0143 36.1638 43.5923C35.5366 44.1703 34.9914 44.7141 34.5283 45.2237C34.0967 45.6946 33.6892 46.1873 33.3074 46.6998C32.9572 47.1742 32.6307 47.6626 32.328 48.165C30.9075 50.6868 30.5098 53.0047 31.135 55.1189C31.3249 55.777 31.662 56.3828 32.1206 56.8902C32.5683 57.3845 33.1051 57.7891 33.7028 58.0827C34.3147 58.3793 34.9729 58.568 35.6485 58.6405C36.3617 58.7178 37.083 58.6494 37.7691 58.4393C39.6873 57.866 41.3927 56.3697 42.8854 53.9505C43.5265 52.9359 44.0348 51.7151 44.4103 50.2882C44.7858 48.8614 45.1069 47.08 45.3735 44.944L45.9213 40.1561C45.9507 39.9821 45.9808 39.8088 46.0118 39.6363L46.2037 39.4546C47.1676 38.4275 48.0236 37.4833 48.7715 36.622C49.5193 35.7607 50.1855 34.9349 50.7698 34.1445C51.3397 33.3757 51.8604 32.5713 52.3288 31.7362C52.4936 31.4402 52.6491 31.1326 52.8054 30.8265C53.1567 31.512 53.6748 32.0972 54.3117 32.5278C55.255 33.1493 56.2525 33.3034 57.3042 32.9901C59.3354 32.3826 60.8827 30.5631 61.9462 27.5317L62.101 28.0421C62.2106 28.4369 62.398 28.8056 62.6519 29.1265C62.9058 29.4474 63.2212 29.714 63.5794 29.9105C63.9313 30.1152 64.322 30.2436 64.7263 30.2873C65.1306 30.3311 65.5395 30.2893 65.9267 30.1646C67.2801 29.7595 68.5335 28.8643 69.6867 27.4789C69.7076 28.4018 69.7881 29.1057 69.9297 29.5842C70.12 30.227 70.4743 30.6967 70.9927 30.9935C71.2346 31.1389 71.5044 31.2313 71.7844 31.2647C72.0645 31.298 72.3483 31.2715 72.6174 31.1869C73.4824 30.928 74.0103 30.1537 74.2011 28.864L74.4881 26.312C74.5951 25.4204 74.798 24.5431 75.0931 23.6954C75.4182 22.7328 75.8189 21.7975 76.2915 20.8986C76.7759 19.9713 77.321 19.0772 77.9232 18.2223C78.496 17.403 79.1277 16.6269 79.8133 15.9001C79.2928 17.4539 78.9793 18.7088 78.8725 19.6649C78.7707 20.663 78.8713 21.6715 79.168 22.6295C79.5038 23.7617 80.1256 24.5826 81.0333 25.0923C81.9411 25.6019 82.9407 25.6936 84.0321 25.3673C85.0843 25.0529 86.1117 24.3762 87.1144 23.3373C88.117 22.2983 88.9975 20.9869 89.7557 19.4031C90.4504 17.8804 90.9494 16.4561 91.2527 15.1302C91.556 13.8044 91.6125 12.8239 91.4221 12.189ZM25.4462 28.1454C25.9924 27.1614 26.4723 26.6067 26.886 26.4813C27.2628 26.3687 27.5173 26.5388 27.6527 26.9925C27.7654 27.3962 27.7654 27.8233 27.6527 28.227C27.5319 28.6892 27.342 29.1303 27.0895 29.5353C26.8318 29.9574 26.5081 30.3352 26.1309 30.654C25.7862 30.9551 25.3828 31.1808 24.9464 31.3167C24.824 31.3543 24.6984 31.3803 24.5712 31.3944C24.4714 31.4037 24.3391 31.4122 24.1782 31.4177C24.456 30.2758 24.8823 29.1756 25.4462 28.1454ZM40.61 45.4397C40.3274 46.8381 40.0953 47.8838 39.9137 48.5768C39.7421 49.2348 39.5355 49.8831 39.2948 50.519C38.6063 52.2053 37.8867 53.1609 37.1363 53.3857C36.5354 53.5654 36.1395 53.3344 35.9487 52.6927C35.7909 52.1629 35.8231 51.5468 36.0454 50.8445C36.2928 50.0864 36.6474 49.3679 37.0984 48.7112C37.2649 48.4575 37.4498 48.2165 37.6515 47.9902C37.8527 47.7657 38.0678 47.5241 38.2991 47.2724C38.5304 47.0206 38.8213 46.7161 39.1672 46.3657C39.513 46.0154 39.9215 45.6036 40.3981 45.1375L40.7431 44.8485L40.61 45.4397ZM41.8804 29.5221C41.6012 30.1833 41.2789 30.8254 40.9156 31.4441C40.6198 31.9543 40.2802 32.4375 39.9006 32.8883C39.5648 33.2768 39.2654 33.5098 39.0024 33.5875C38.889 33.6208 38.7698 33.6287 38.653 33.6106C38.5363 33.5925 38.425 33.5488 38.327 33.4826C38.0912 33.3309 37.9221 33.0944 37.8542 32.8215C37.6526 32.142 37.716 31.044 38.0446 29.5275C38.3955 27.9451 38.9296 26.4094 39.636 24.9516C40.2204 23.7495 40.7756 22.7914 41.3017 22.0772C41.8278 21.3629 42.2977 20.9452 42.7113 20.824C43.1631 20.6889 43.5624 20.866 43.6235 21.4145C43.919 24.202 42.1829 28.8151 41.8804 29.5221ZM61.4294 18.8096C61.2968 19.5285 61.058 20.2235 60.7207 20.8714L60.1018 22.1044C60.0383 22.2096 59.997 22.3267 59.9802 22.4485C59.9634 22.5703 59.9716 22.6943 60.0043 22.8129C60.026 22.8906 60.1444 23.0786 60.3571 23.3839C60.2256 23.6302 60.1505 23.7956 60.1374 23.8826C59.7315 24.8667 59.3673 25.5713 59.045 25.9966C58.7193 26.4238 58.3487 26.6958 57.9371 26.8208C57.3738 26.9892 56.9966 26.7525 56.8052 26.1108C56.6505 25.582 56.6298 24.7867 56.7433 23.7249C56.8621 22.6483 57.0931 21.5873 57.4326 20.5591C57.8035 19.4616 58.2553 18.5353 58.7881 17.7802C59.3209 17.0251 59.8326 16.5742 60.3231 16.4276C60.9227 16.2482 61.3149 16.4603 61.4929 17.0639C61.6053 17.4415 61.5841 18.0234 61.4294 18.8096Z" fill="#FF78FD"/>
<path d="M55.8397 62.876L56.3186 59.2308C56.6213 56.9354 56.9308 54.8614 57.247 53.0087C57.5631 51.1561 57.9394 49.2574 58.3757 47.3126C58.8766 44.9167 59.3222 42.9501 59.7126 41.4129C60.1031 39.8757 60.4726 38.6286 60.8213 37.6715C61.1695 36.7133 61.5171 36.0032 61.8642 35.5412C62.1673 35.1173 62.5646 34.7701 63.0247 34.5274C63.7164 34.1825 64.4369 34.1638 65.1863 34.4715C65.9291 34.7748 66.5311 35.3474 66.8729 36.0757C67.114 36.5792 67.2671 37.1205 67.3255 37.6761C67.3993 38.2805 67.3848 39.1442 67.2822 40.267C67.1275 42.4501 65.7349 53.2643 66.1991 60.8281C66.7406 66.6641 69.8446 70.3838 69.8446 70.3838C69.9761 70.5664 70.0898 70.7357 70.1896 70.8935C70.2894 71.0512 70.3529 71.1623 70.3854 71.2291C70.7618 71.9749 70.8347 72.8385 70.5888 73.6374C70.3485 74.4796 69.8487 75.0899 69.0895 75.4685C68.2317 75.8958 67.3962 75.8896 66.5828 75.4499C65.7694 75.0102 65.0759 74.2102 64.5024 73.0501C64.1757 72.3616 63.9051 71.6476 63.6931 70.9152C63.4306 70.0549 63.1946 69.0996 62.9852 68.0493C62.7758 66.9989 62.5976 65.8698 62.4506 64.662C62.3052 63.4548 62.202 62.2477 62.1412 61.041C62.0004 58.7595 61.9612 56.4773 62.0236 54.1943C62.086 51.9113 62.2278 49.6632 62.4491 47.4501C62.2995 47.981 62.1626 48.473 62.0383 48.9262C61.9129 49.3822 61.7923 49.9261 61.6754 50.5616C61.5586 51.197 61.4201 51.9599 61.2615 52.8425C61.1029 53.725 60.9064 54.8476 60.6728 56.2017C60.6047 56.73 60.5374 57.1962 60.4708 57.6001C60.4043 58.0049 60.3401 58.4384 60.2821 58.9007C60.224 59.3629 60.1598 59.9021 60.0925 60.5127C60.0252 61.1233 59.9246 61.9189 59.79 62.8923C59.6048 64.1824 59.4829 65.1618 59.4241 65.8305C59.3645 66.5017 59.3266 67.0665 59.308 67.5288C59.2564 68.5045 59.1927 69.2278 59.1169 69.6986C59.0584 70.1154 58.9365 70.5207 58.7556 70.9004C58.4235 71.6406 57.9613 72.158 57.3692 72.4527C56.544 72.8634 55.7293 72.8572 54.9252 72.434C54.1211 72.0109 53.4398 71.2363 52.8812 70.1104C52.0131 68.3546 51.3769 66.0711 50.9725 63.2598C50.5622 60.3106 50.4298 57.3292 50.5772 54.3551C50.1772 56.288 46.6477 82.5833 38.5498 86.5454C33.1743 89.1744 29.002 86.6029 27.6457 84.8044C26.0597 82.7006 24.7437 79.4648 27.8972 76.7799C31.8661 73.4012 32.3674 81.9633 37.3049 78.9311C45.7836 73.726 43.7589 60.2019 48.1548 45.5941C48.5876 44.2237 48.994 43.2368 49.3741 42.6334C49.7265 42.0565 50.2324 41.5899 50.8348 41.2863C51.5374 40.9266 52.3511 40.8532 53.1063 41.0812C53.8965 41.3065 54.4638 41.7669 54.8084 42.4625C54.9875 42.8537 55.0909 43.2755 55.1132 43.7055C55.1524 44.2027 55.1217 44.9302 55.0211 45.8878C54.885 47.6897 54.7901 49.3677 54.7364 50.922C54.6828 52.4763 54.6908 53.9664 54.7604 55.3922C54.8295 56.8227 54.9327 58.2162 55.0699 59.5727C55.2071 60.9291 55.4051 62.3275 55.664 63.7678L55.8397 62.876Z" fill="#FF78FD"/>
<path d="M96.6406 45.6036C96.5992 44.6172 96.4697 43.6364 96.2537 42.6732C96.071 41.8399 95.7819 41.0338 95.3934 40.2749C94.8261 39.1977 94.1091 38.4705 93.2426 38.0935C92.3761 37.7164 91.488 37.7708 90.5781 38.2566C90.0731 38.52 89.6277 38.8852 89.2699 39.3295C88.9165 39.7676 88.5617 40.4376 88.2053 41.3393C88.3151 40.4443 88.3482 39.757 88.3043 39.2774C88.2719 38.8393 88.153 38.412 87.9546 38.0204C87.8456 37.8052 87.6945 37.6141 87.5104 37.4587C87.3264 37.3032 87.113 37.1866 86.8831 37.1156C86.6532 37.0447 86.4115 37.0209 86.1722 37.0456C85.933 37.0704 85.7011 37.1433 85.4905 37.2599C85.2812 37.367 85.0922 37.5101 84.9319 37.6825C84.7659 37.8849 84.6451 38.1206 84.5776 38.3739C84.467 38.7584 84.3815 39.1498 84.3215 39.5455C84.2301 40.1465 84.1743 40.7525 84.1544 41.3603L83.9625 43.722C83.9439 44.3186 83.9251 44.9143 83.906 45.5088C83.8869 46.1034 83.8477 46.8982 83.7884 47.8931C83.7884 48.4548 83.7026 62.1995 80.3209 60.3878C79.5379 59.9682 79.8404 55.4545 79.8226 54.7103C79.8124 53.8776 79.8755 53.0457 80.0114 52.2242C80.1166 51.7923 80.1576 51.4769 80.1375 51.2788C80.1192 51.0888 80.0645 50.9041 79.9766 50.7349C79.8781 50.5442 79.7289 50.3845 79.5457 50.2735C79.3623 50.1624 79.0381 50.0637 78.5747 49.9744C78.5264 49.5383 78.4546 49.1052 78.3596 48.677C78.2624 48.2872 78.1165 47.9113 77.9256 47.5583C77.3397 46.4478 76.549 45.739 75.5535 45.4319C74.5581 45.1248 73.5397 45.2483 72.4983 45.8025C71.36 46.4105 70.3916 47.4386 69.5932 48.8867C68.7948 50.3349 68.2316 52.1302 67.9035 54.2729C67.6037 56.103 67.5561 57.9658 67.7619 59.809C67.9682 61.6217 68.3994 63.1496 69.0555 64.3926C69.659 65.5362 70.4512 66.3071 71.4322 66.7054C72.4132 67.1037 73.3599 67.0617 74.2723 66.5795C76.0291 65.6442 77.1194 63.6833 77.5434 60.697L77.7755 61.1375C77.9486 61.4808 78.1884 61.7858 78.4807 62.0347C78.773 62.2835 79.1119 62.4711 79.4776 62.5863C79.8389 62.7097 80.222 62.7555 80.6021 62.7209C80.9822 62.6862 81.3508 62.5718 81.6841 62.3851C82.5243 61.9387 83.2721 61.269 83.9277 60.3761C83.9834 61.6486 84.0522 63.0351 84.1343 64.5356C84.3633 67.9689 84.6031 70.6339 84.8538 72.5305C85.1044 74.4271 85.4018 75.7015 85.7458 76.3535C86.028 76.9 86.506 77.3187 87.0835 77.5251C87.6818 77.7519 88.2249 77.7354 88.7128 77.4754C89.1352 77.2501 89.3911 76.9253 89.4803 76.5012C89.5693 76.0778 89.5786 75.4026 89.5066 74.4813C89.4718 74.416 89.4416 74.1588 89.4145 73.7137C89.3875 73.2685 89.3325 72.6486 89.2474 71.8585L88.7569 65.958C88.7481 65.6266 88.7327 65.321 88.7105 65.0413C88.6873 64.7601 88.654 64.3817 88.6099 63.9024C88.5975 63.4073 88.5815 62.9033 88.5619 62.3906C88.5423 61.8778 88.5016 61.3664 88.4397 60.8562L88.3531 59.2706C89.5445 59.4741 90.7089 59.2729 91.8462 58.667C92.8215 58.149 93.6467 57.3644 94.3219 56.313C94.997 55.2616 95.5533 53.8891 95.9907 52.1955C96.275 51.0966 96.4675 49.9758 96.5663 48.8448C96.6638 47.7673 96.6886 46.6844 96.6406 45.6036ZM74.6901 59.2038C74.4302 59.91 74.0712 60.5936 73.7138 60.784C73.2263 61.0429 72.8359 60.8953 72.5424 60.3411C72.301 59.8828 72.1362 59.1564 72.0457 58.1558C71.9552 57.1551 72.6608 47.2654 75.4328 48.1471C76.6135 48.5231 76.6165 53.973 74.6901 59.2038ZM92.2144 48.5869C92.1593 49.2516 92.0467 49.9103 91.8779 50.5555C91.6401 51.6851 91.3113 52.5816 90.8915 53.2451C90.4716 53.9085 89.952 54.4044 89.3325 54.7328C89.1865 54.8123 89.0353 54.8819 88.8799 54.941C88.6936 55.0029 88.4982 55.0329 88.302 55.0296C88.2803 53.41 88.2783 52.0831 88.2958 51.0488C88.3136 49.989 88.3911 48.931 88.5279 47.8799C88.7951 45.2292 89.4166 43.6435 90.3924 43.123C90.5077 43.0553 90.6377 43.017 90.7712 43.0116C90.9046 43.0062 91.0373 43.0338 91.1576 43.0919C91.4093 43.2118 91.614 43.4124 91.7394 43.6622C91.9343 44.0616 92.0649 44.4895 92.1262 44.9301C92.218 45.4954 92.2697 46.0665 92.281 46.6392C92.2945 47.2892 92.2723 47.9394 92.2144 48.5869Z" fill="#FF78FD"/>
</g>
<defs>
<clipPath id="clip0_644_2519">
<rect width="97" height="88" fill="white"/>
</clipPath>
</defs>
</svg>
