<svg width="872" height="504" viewBox="0 0 872 504" fill="none" xmlns="http://www.w3.org/2000/svg">
<g filter="url(#filter0_df_648_2838)">
<mask id="path-1-outside-1_648_2838" maskUnits="userSpaceOnUse" x="3.72192" y="17.8999" width="865" height="468" fill="black">
<rect fill="white" x="3.72192" y="17.8999" width="865" height="468"/>
<path fill-rule="evenodd" clip-rule="evenodd" d="M236.304 171.427C235.718 174.465 238.216 177.08 242.164 179.181C242.799 178.75 243.386 178.327 243.919 177.915C253.456 170.539 237.957 162.884 236.304 171.427Z"/>
<path fill-rule="evenodd" clip-rule="evenodd" d="M323.727 133.631C319.489 137.078 317.165 140.917 315.924 145.097C336.22 140.7 363.459 138.562 371.951 136.734C385.555 133.806 341.911 118.843 323.727 133.631Z"/>
<path fill-rule="evenodd" clip-rule="evenodd" d="M776.917 351.667C787.357 363.302 822.427 420.742 824.012 403.003C825.597 385.264 783.293 333.093 774.379 330.794C769.703 329.59 767.393 335.747 766.934 343.515C770.405 345.315 773.679 348.057 776.917 351.667Z"/>
<path fill-rule="evenodd" clip-rule="evenodd" d="M865.468 263.946C861.074 245.93 825.857 198.428 814.988 184.686C813.039 182.223 810.913 179.97 808.736 177.998C805.298 187.193 802.977 197.796 803.707 209.225C805.687 240.247 829.497 266.107 848.265 276.357C867.033 286.607 869.864 281.959 865.468 263.946Z"/>
<path fill-rule="evenodd" clip-rule="evenodd" d="M315.924 145.099C303.707 147.744 294.009 151.208 292.424 155.916C289.229 165.419 301.434 181.22 310.712 192.528C318.595 174.289 312.08 158.043 315.924 145.099Z"/>
<path fill-rule="evenodd" clip-rule="evenodd" d="M828.685 93.0172C831.381 80.045 813.586 90.1627 800.605 78.065C787.624 65.9672 816.023 46.1579 814.142 25.601C812.261 5.0442 773.247 36.5508 747.587 56.064C721.927 75.5772 722.085 99.09 710.644 113.605C699.203 128.12 683.388 134.444 671.445 137.863C659.502 141.281 638.785 138.088 626.323 146.607C613.861 155.125 630.864 172.878 620.401 178.48C609.938 184.082 596.224 189.283 587.406 181.583C578.588 173.882 565.333 177.196 554.693 180.172C544.053 183.148 513.192 187.227 502.239 192.019C491.286 196.811 504.842 180.581 515.212 170.864C525.581 161.147 513.175 151.579 494.907 145.76C490.087 144.226 484.884 141.679 479.729 138.548C468.561 150.764 444.221 163.982 434.275 171.428C420.648 181.633 408.406 188.38 385.205 195.122C379.847 196.679 375.332 198.825 371.449 201.431C369.633 211.825 366.477 222.507 364.336 227.559C359.576 238.805 338.011 256.352 346.288 237.995C352.653 223.878 358.524 210.105 371.449 201.431C373.671 188.696 373.877 176.39 367.721 175.377C356.536 173.541 341.274 195.92 339.52 210.353C337.766 224.786 325.414 211.309 318.087 201.609C316.319 199.268 313.662 196.124 310.712 192.528C310.219 193.667 309.675 194.814 309.063 195.968C295.518 221.574 272.08 197.702 280.016 192.865C287.951 188.028 278.972 184.77 268.171 184.967C261.214 185.094 249.311 182.981 242.164 179.181C231.442 186.456 206.809 195.717 188.927 184.685C174.857 176.006 183.52 160.586 190.438 149.202C189.499 145.932 189.104 142.993 188.927 140.965C188.329 134.103 199.708 129.446 195.977 139.273C195.018 141.8 192.832 145.258 190.438 149.202C192.68 156.995 198.024 166.661 210.923 170.3C229.234 175.465 223.997 138.449 223.332 130.247C222.666 122.044 221.157 104.263 201.899 107.964C182.641 111.664 183.972 128.738 165.52 145.478C147.068 162.219 131.301 156.214 117.578 162.402C112.2 164.828 111.707 169.462 113.847 174.139C120.049 174.632 125.438 175.081 128.576 173.685C136.786 170.032 147.071 186.959 134.499 188.07C126.853 188.747 117.175 181.396 113.847 174.139C103.827 173.343 91.6784 172.438 83.455 179.044C70.1385 189.737 76.7008 201.042 75.2767 211.481C73.8525 221.92 59.8536 219.709 49.3318 248.432C38.81 277.154 72.3804 291.102 63.4323 313.306C54.1034 336.453 34.8478 328.448 16.0547 327.692C-2.73843 326.936 4.98581 355.275 16.6187 368.027C28.2516 380.779 32.493 388.522 38.6154 415.696C44.7379 442.87 57.2281 423.901 56.9461 418.234C56.664 412.568 56.7966 386.124 67.9444 388.335C103.449 391.844 98.3169 383.597 96.4274 381.002C94.5379 378.407 84.2474 368.585 101.222 349.975C118.196 331.364 135.395 369.64 181.594 388.053C227.793 406.467 224.781 357.021 251.251 366.617C277.72 376.215 308.558 411.228 330.495 446.159C352.478 481.16 393.962 472.252 428.967 454.034C463.564 436.03 481.709 476.664 510.135 482.545C538.565 488.426 566.501 450.889 594.174 457.441C635.5 467.223 633.83 434.275 631.681 421.055C629.533 407.835 640.435 388.838 653.96 392.849C667.485 396.859 691.242 426.738 719.668 420.491C748.095 414.243 760.966 426.812 756.048 445.595C751.129 464.377 753.338 485.687 766.2 483.955C779.062 482.223 789.894 443.112 789.043 425.004C788.191 406.895 774.587 375.755 769.866 364.36C767.621 358.942 766.516 350.564 766.934 343.515C759.221 339.516 750.543 340.173 739.127 346.308C722.573 355.199 720.873 331.469 721.36 309.358C721.848 287.247 726.428 271.076 750.69 256.047C774.951 241.019 766.561 215.041 768.174 204.712C769.787 194.383 788.115 187.59 787.915 175.659C787.751 165.869 798.772 168.975 808.736 177.998C814.63 162.234 823.953 150.685 826.55 146.042C837.156 127.071 821.708 126.574 828.685 93.0172Z"/>
<path fill-rule="evenodd" clip-rule="evenodd" d="M485.319 125.734C482.078 111.284 441.077 96.3455 446.965 107.964C451.3 116.516 465.335 129.807 479.729 138.548C483.866 134.024 486.196 129.638 485.319 125.734Z"/>
<path fill-rule="evenodd" clip-rule="evenodd" d="M600.379 136.17C611.789 133.716 612.471 124.778 617.017 120.093C621.563 115.408 608.689 112.804 589.944 118.4C571.202 123.994 589.011 138.613 600.379 136.17Z"/>
<path fill-rule="evenodd" clip-rule="evenodd" d="M738.281 37.7307C741.005 32.284 740.117 26.6258 733.769 29.2688C727.421 31.9117 727.627 38.3315 730.949 44.7823C734.195 51.0808 735.557 43.1745 738.281 37.7307Z"/>
<path fill-rule="evenodd" clip-rule="evenodd" d="M266.479 173.404C271.694 173.44 265.072 164.854 260.275 166.07C255.478 167.286 261.646 173.367 266.479 173.404Z"/>
<path fill-rule="evenodd" clip-rule="evenodd" d="M382.103 85.1174C387.681 85.0243 388.666 79.2392 386.897 79.1941C385.129 79.1489 374.331 78.331 367.721 77.7838C361.111 77.2366 372.952 85.2669 382.103 85.1174Z"/>
<path fill-rule="evenodd" clip-rule="evenodd" d="M367.156 73.5521C374.007 73.2108 364.446 66.9687 360.67 68.1929C356.894 69.4171 360.735 73.8708 367.156 73.5521Z"/>
<path fill-rule="evenodd" clip-rule="evenodd" d="M351.364 68.4754C355.775 68.7828 355.902 65.4517 355.594 64.2444C355.287 63.0372 350.253 60.0953 342.34 59.4493C334.427 58.8034 346.798 68.1567 351.364 68.4754Z"/>
<path fill-rule="evenodd" clip-rule="evenodd" d="M633.374 113.041C636.487 112.22 636.414 108.316 636.194 104.579C635.974 100.842 628.399 106.458 623.221 110.784C618.044 115.111 625.934 114.998 633.374 113.041Z"/>
</mask>
<path d="M236.304 171.427L235.322 171.238L235.322 171.238L236.304 171.427ZM243.919 177.915L244.53 178.706L244.53 178.706L243.919 177.915ZM323.727 133.631L324.358 134.407L324.358 134.407L323.727 133.631ZM315.924 145.097L314.965 144.812L314.484 146.432L316.136 146.074L315.924 145.097ZM371.951 136.734L371.74 135.756L371.74 135.756L371.951 136.734ZM776.917 351.667L776.172 352.335L776.172 352.335L776.917 351.667ZM774.379 330.794L774.628 329.826L774.628 329.826L774.379 330.794ZM865.468 263.946L864.496 264.183L864.496 264.183L865.468 263.946ZM814.988 184.686L815.772 184.066L815.772 184.065L814.988 184.686ZM803.707 209.225L804.705 209.162V209.162L803.707 209.225ZM315.924 145.099L316.883 145.383L317.364 143.764L315.712 144.121L315.924 145.099ZM292.424 155.916L291.476 155.597L291.476 155.597L292.424 155.916ZM828.685 93.0172L829.664 93.2207V93.2207L828.685 93.0172ZM515.212 170.864L515.895 171.594L515.212 170.864ZM494.907 145.76L495.21 144.808L495.21 144.807L494.907 145.76ZM434.275 171.428L433.676 170.628L433.675 170.628L434.275 171.428ZM385.205 195.122L384.926 194.161V194.161L385.205 195.122ZM364.336 227.559L363.416 227.169L363.416 227.169L364.336 227.559ZM346.288 237.995L347.199 238.406V238.406L346.288 237.995ZM367.721 175.377L367.883 174.39L367.883 174.39L367.721 175.377ZM318.087 201.609L317.289 202.212L317.289 202.212L318.087 201.609ZM309.063 195.968L308.179 195.499L308.179 195.5L309.063 195.968ZM268.171 184.967L268.189 185.967H268.189L268.171 184.967ZM188.927 184.685L189.452 183.834L189.452 183.834L188.927 184.685ZM188.927 140.965L187.93 141.052L187.93 141.053L188.927 140.965ZM195.977 139.273L195.042 138.918L195.042 138.918L195.977 139.273ZM210.923 170.3L210.652 171.262H210.652L210.923 170.3ZM117.578 162.402L117.167 161.491L117.167 161.491L117.578 162.402ZM128.576 173.685L128.983 174.598L128.983 174.598L128.576 173.685ZM134.499 188.07L134.411 187.074L134.41 187.074L134.499 188.07ZM83.455 179.044L84.0811 179.824L84.0812 179.824L83.455 179.044ZM63.4323 313.306L64.3598 313.68L64.3598 313.68L63.4323 313.306ZM67.9444 388.335L67.7499 389.316L67.7976 389.326L67.8461 389.331L67.9444 388.335ZM251.251 366.617L251.592 365.676L251.591 365.676L251.251 366.617ZM330.495 446.159L329.648 446.69L330.495 446.159ZM428.967 454.034L428.506 453.147H428.506L428.967 454.034ZM510.135 482.545L509.933 483.524H509.933L510.135 482.545ZM594.174 457.441L593.944 458.414L593.944 458.414L594.174 457.441ZM769.866 364.36L770.79 363.977L769.866 364.36ZM739.127 346.308L739.6 347.189L739.6 347.189L739.127 346.308ZM787.915 175.659L786.915 175.676V175.676L787.915 175.659ZM826.55 146.042L827.423 146.531L827.423 146.53L826.55 146.042ZM485.319 125.734L484.343 125.953L484.343 125.953L485.319 125.734ZM446.965 107.964L446.073 108.416H446.074L446.965 107.964ZM600.379 136.17L600.589 137.148L600.589 137.148L600.379 136.17ZM589.944 118.4L590.23 119.359L590.23 119.358L589.944 118.4ZM738.281 37.7307L739.175 38.1782L739.175 38.178L738.281 37.7307ZM730.949 44.7823L730.06 45.2401L730.06 45.2404L730.949 44.7823ZM266.479 173.404L266.472 174.404H266.472L266.479 173.404ZM382.103 85.1174L382.12 86.1173H382.12L382.103 85.1174ZM367.156 73.5521L367.206 74.5509L367.206 74.5509L367.156 73.5521ZM351.364 68.4754L351.294 69.473L351.295 69.473L351.364 68.4754ZM633.374 113.041L633.628 114.008L633.629 114.008L633.374 113.041ZM235.322 171.238C234.96 173.114 235.574 174.818 236.755 176.283C237.919 177.727 239.661 178.982 241.695 180.064L242.634 178.299C240.719 177.28 239.238 176.177 238.312 175.028C237.404 173.901 237.062 172.779 237.286 171.617L235.322 171.238ZM242.727 180.008C243.375 179.567 243.979 179.132 244.53 178.706L243.307 177.124C242.792 177.521 242.223 177.933 241.602 178.355L242.727 180.008ZM244.53 178.706C247.078 176.736 248.157 174.577 247.981 172.503C247.809 170.47 246.453 168.842 244.83 167.848C243.206 166.855 241.142 166.385 239.299 166.827C237.375 167.289 235.809 168.723 235.322 171.238L237.286 171.617C237.626 169.86 238.617 169.047 239.766 168.772C240.995 168.477 242.52 168.78 243.786 169.554C245.052 170.329 245.886 171.463 245.988 172.673C246.088 173.842 245.528 175.406 243.307 177.124L244.53 178.706ZM323.096 132.855C318.697 136.432 316.262 140.444 314.965 144.812L316.883 145.382C318.068 141.389 320.28 137.724 324.358 134.407L323.096 132.855ZM316.136 146.074C326.237 143.886 338.082 142.257 348.489 140.944C358.849 139.637 367.859 138.637 372.161 137.711L371.74 135.756C367.551 136.658 358.696 137.641 348.239 138.96C337.83 140.272 325.907 141.911 315.712 144.12L316.136 146.074ZM372.161 137.711C373.064 137.517 373.82 137.256 374.384 136.9C374.953 136.541 375.442 136.007 375.524 135.263C375.603 134.549 375.272 133.927 374.88 133.454C374.479 132.971 373.913 132.517 373.253 132.093C370.633 130.408 365.739 128.696 359.952 127.558C354.137 126.414 347.302 125.827 340.749 126.47C334.207 127.112 327.852 128.988 323.096 132.855L324.358 134.407C328.694 130.88 334.614 129.081 340.944 128.461C347.263 127.841 353.898 128.405 359.567 129.52C365.263 130.64 369.866 132.293 372.171 133.775C372.743 134.143 373.122 134.468 373.341 134.732C373.568 135.006 373.53 135.097 373.536 135.043C373.546 134.961 373.595 135.033 373.318 135.208C373.035 135.386 372.538 135.585 371.74 135.756L372.161 137.711ZM776.172 352.335C778.734 355.19 782.845 360.904 787.641 367.67C792.417 374.406 797.84 382.139 802.987 388.953C808.116 395.743 813.038 401.713 816.812 404.868C817.761 405.662 818.669 406.305 819.516 406.739C820.349 407.166 821.217 407.44 822.054 407.363C822.956 407.28 823.686 406.8 824.183 406.01C824.651 405.267 824.903 404.271 825.008 403.092L823.016 402.914C822.924 403.951 822.716 404.586 822.49 404.945C822.294 405.256 822.098 405.35 821.87 405.371C821.575 405.398 821.107 405.307 820.428 404.959C819.763 404.618 818.982 404.076 818.095 403.334C814.52 400.345 809.725 394.554 804.583 387.747C799.459 380.964 794.059 373.264 789.273 366.513C784.507 359.791 780.319 353.961 777.661 350.999L776.172 352.335ZM825.008 403.092C825.224 400.679 824.691 397.774 823.651 394.591C822.605 391.392 821.022 387.837 819.065 384.096C815.151 376.614 809.701 368.313 803.937 360.514C798.171 352.713 792.071 345.39 786.844 339.865C784.232 337.103 781.825 334.778 779.778 333.063C778.755 332.206 777.809 331.49 776.962 330.947C776.129 330.413 775.337 330.009 774.628 329.826L774.129 331.763C774.535 331.867 775.118 332.14 775.882 332.631C776.634 333.113 777.51 333.772 778.493 334.596C780.46 336.243 782.808 338.509 785.391 341.239C790.554 346.697 796.602 353.956 802.328 361.703C808.056 369.451 813.442 377.662 817.293 385.023C819.219 388.704 820.75 392.153 821.75 395.212C822.754 398.286 823.197 400.892 823.016 402.914L825.008 403.092ZM774.628 329.826C773.216 329.462 771.918 329.648 770.792 330.324C769.698 330.982 768.847 332.054 768.187 333.331C766.872 335.874 766.168 339.52 765.935 343.456L767.932 343.574C768.159 339.743 768.839 336.425 769.963 334.249C770.523 333.167 771.154 332.44 771.822 332.039C772.46 331.656 773.203 331.524 774.129 331.763L774.628 329.826ZM766.473 344.403C769.806 346.131 772.987 348.783 776.172 352.335L777.661 350.999C774.371 347.33 771.005 344.499 767.394 342.628L766.473 344.403ZM866.439 263.709C865.305 259.058 862.217 252.607 858.124 245.4C854.017 238.167 848.848 230.087 843.484 222.153C832.757 206.285 821.22 190.954 815.772 184.066L814.203 185.306C819.624 192.16 831.13 207.451 841.827 223.274C847.176 231.185 852.314 239.217 856.385 246.388C860.471 253.584 863.433 259.826 864.496 264.183L866.439 263.709ZM815.772 184.065C813.788 181.559 811.624 179.265 809.407 177.257L808.064 178.739C810.201 180.675 812.29 182.888 814.204 185.306L815.772 184.065ZM807.799 177.648C804.326 186.939 801.968 197.685 802.709 209.289L804.705 209.162C803.986 197.908 806.27 187.448 809.672 178.348L807.799 177.648ZM802.709 209.289C804.717 240.748 828.811 266.871 847.786 277.234L848.744 275.479C830.183 265.342 806.657 239.746 804.705 209.162L802.709 209.289ZM847.786 277.234C852.498 279.808 856.282 281.488 859.241 282.244C862.162 282.99 864.564 282.905 866.201 281.511C867.816 280.136 868.334 277.776 868.273 274.904C868.211 271.983 867.542 268.229 866.439 263.709L864.496 264.183C865.591 268.669 866.217 272.251 866.274 274.947C866.332 277.692 865.794 279.231 864.905 279.989C864.037 280.727 862.488 281.009 859.736 280.306C857.024 279.613 853.416 278.03 848.744 275.479L847.786 277.234ZM315.712 144.121C309.581 145.449 304.03 146.993 299.792 148.815C297.673 149.727 295.847 150.723 294.433 151.822C293.024 152.917 291.959 154.165 291.476 155.597L293.372 156.235C293.682 155.313 294.423 154.363 295.66 153.401C296.892 152.444 298.551 151.526 300.582 150.653C304.644 148.905 310.05 147.394 316.136 146.076L315.712 144.121ZM291.476 155.597C290.59 158.234 290.797 161.225 291.666 164.325C292.538 167.432 294.098 170.733 296.026 174.048C299.883 180.676 305.301 187.508 309.939 193.162L311.486 191.893C306.846 186.239 301.522 179.517 297.755 173.042C295.872 169.805 294.4 166.667 293.592 163.785C292.782 160.897 292.661 158.349 293.372 156.235L291.476 155.597ZM311.63 192.924C315.658 183.605 315.996 174.809 315.832 166.807C315.667 158.728 315.018 151.661 316.883 145.383L314.965 144.814C312.986 151.48 313.672 159.008 313.833 166.848C313.995 174.765 313.649 183.212 309.795 192.131L311.63 192.924ZM829.664 93.2207C830.018 91.5173 830.059 90.089 829.753 88.8977C829.439 87.6736 828.773 86.7602 827.841 86.0955C826.938 85.4512 825.822 85.0653 824.625 84.7992C823.424 84.5322 822.061 84.3696 820.629 84.2187C814.839 83.6085 807.495 83.1195 801.287 77.3334L799.923 78.7965C806.696 85.1082 814.74 85.6092 820.419 86.2077C821.854 86.3589 823.113 86.5121 824.191 86.7516C825.272 86.9919 826.09 87.3031 826.679 87.7235C827.24 88.1235 827.623 88.6424 827.816 89.3953C828.018 90.1808 828.026 91.274 827.706 92.8137L829.664 93.2207ZM801.287 77.3334C799.787 75.9357 798.919 74.4617 798.502 72.9199C798.084 71.3694 798.107 69.6877 798.487 67.8583C799.257 64.16 801.446 60.0401 804.076 55.507C806.675 51.0275 809.685 46.177 811.908 41.176C814.137 36.1644 815.63 30.8901 815.138 25.5099L813.146 25.6922C813.594 30.5903 812.243 35.501 810.081 40.3634C807.914 45.2363 804.989 49.9487 802.346 54.5033C799.734 59.0044 797.375 63.39 796.529 67.4508C796.103 69.5009 796.051 71.5122 796.572 73.441C797.094 75.3784 798.178 77.1697 799.923 78.7965L801.287 77.3334ZM815.138 25.5099C814.888 22.7837 814.005 20.732 812.43 19.4356C810.859 18.1419 808.782 17.7515 806.473 17.948C801.904 18.3368 795.877 21.0687 789.275 24.9438C776.013 32.7291 759.779 45.5368 746.982 55.268L748.193 56.8599C761.056 47.0779 777.158 34.3758 790.288 26.6686C796.882 22.7976 802.565 20.2877 806.642 19.9408C808.656 19.7695 810.136 20.1378 811.159 20.9796C812.178 21.8186 812.925 23.2792 813.146 25.6922L815.138 25.5099ZM746.982 55.268C733.977 65.1579 727.513 76.072 722.873 86.2955C721.716 88.8458 720.671 91.3537 719.671 93.7843C718.668 96.2199 717.711 98.5712 716.719 100.833C714.735 105.358 712.64 109.457 709.859 112.986L711.429 114.224C714.368 110.495 716.544 106.213 718.551 101.636C719.554 99.348 720.522 96.9692 721.52 94.5459C722.52 92.1176 723.553 89.6377 724.694 87.1221C729.251 77.0822 735.538 66.4832 748.193 56.8599L746.982 55.268ZM709.859 112.986C698.611 127.256 683.038 133.504 671.17 136.901L671.72 138.824C683.738 135.384 699.795 128.984 711.429 114.224L709.859 112.986ZM671.17 136.901C668.283 137.727 664.83 138.163 661.026 138.477C659.129 138.633 657.16 138.758 655.141 138.888C653.126 139.017 651.063 139.151 648.995 139.326C640.758 140.02 632.226 141.361 625.759 145.781L626.888 147.432C632.883 143.334 640.939 142.012 649.163 141.319C651.209 141.146 653.253 141.013 655.27 140.883C657.283 140.754 659.272 140.628 661.191 140.47C665.02 140.154 668.635 139.707 671.72 138.824L671.17 136.901ZM625.759 145.781C622.377 148.093 620.968 151.076 620.618 154.284C620.275 157.421 620.947 160.767 621.636 163.855C622.344 167.023 623.056 169.878 622.988 172.306C622.955 173.495 622.733 174.515 622.268 175.376C621.809 176.226 621.081 176.982 619.929 177.598L620.873 179.361C622.337 178.577 623.366 177.553 624.028 176.327C624.685 175.111 624.948 173.759 624.987 172.362C625.064 169.62 624.266 166.454 623.588 163.419C622.893 160.303 622.304 157.264 622.606 154.501C622.9 151.809 624.039 149.379 626.888 147.432L625.759 145.781ZM619.929 177.598C614.728 180.383 608.795 183.025 603.112 184.035C597.438 185.044 592.159 184.405 588.064 180.829L586.748 182.336C591.471 186.46 597.458 187.071 603.462 186.004C609.457 184.938 615.611 182.179 620.873 179.361L619.929 177.598ZM588.064 180.829C583.392 176.75 577.583 175.631 571.691 175.875C565.814 176.118 559.737 177.723 554.424 179.209L554.962 181.135C560.289 179.645 566.159 178.106 571.774 177.873C577.375 177.641 582.602 178.715 586.748 182.336L588.064 180.829ZM554.424 179.209C549.157 180.682 538.863 182.431 528.396 184.432C518.019 186.416 507.44 188.652 501.838 191.103L502.64 192.935C507.991 190.594 518.319 188.394 528.771 186.397C539.133 184.416 549.588 182.638 554.962 181.135L554.424 179.209ZM501.838 191.103C500.489 191.693 499.667 191.887 499.233 191.884C499.029 191.883 499.028 191.838 499.093 191.889C499.183 191.958 499.186 192.038 499.181 191.995C499.161 191.806 499.255 191.315 499.691 190.439C500.101 189.616 500.73 188.609 501.545 187.461C504.808 182.863 510.737 176.427 515.895 171.594L514.528 170.134C509.316 175.018 503.283 181.556 499.914 186.304C499.07 187.493 498.375 188.595 497.901 189.548C497.453 190.448 497.105 191.397 497.193 192.208C497.242 192.665 497.436 193.134 497.867 193.469C498.274 193.785 498.766 193.881 499.22 193.884C500.1 193.89 501.25 193.543 502.64 192.935L501.838 191.103ZM515.895 171.594C518.617 169.044 519.971 166.379 519.983 163.665C519.994 160.964 518.673 158.44 516.526 156.164C512.257 151.64 504.386 147.73 495.21 144.808L494.603 146.713C503.696 149.61 511.162 153.393 515.071 157.537C517.013 159.594 517.991 161.648 517.983 163.656C517.974 165.651 516.991 167.826 514.528 170.134L515.895 171.594ZM495.21 144.807C490.489 143.304 485.36 140.798 480.248 137.693L479.21 139.403C484.409 142.56 489.685 145.147 494.603 146.713L495.21 144.807ZM478.991 137.873C473.5 143.879 464.72 150.178 455.993 155.942C447.332 161.662 438.677 166.883 433.676 170.628L434.874 172.229C439.819 168.527 448.307 163.415 457.095 157.611C465.816 151.851 474.79 145.433 480.467 139.223L478.991 137.873ZM433.675 170.628C420.147 180.759 408.014 187.453 384.926 194.161L385.484 196.082C408.798 189.308 421.149 182.507 434.874 172.229L433.675 170.628ZM384.926 194.161C379.474 195.746 374.864 197.935 370.891 200.601L372.006 202.262C375.8 199.715 380.22 197.611 385.484 196.082L384.926 194.161ZM370.464 201.259C368.657 211.599 365.519 222.204 363.416 227.169L365.257 227.949C367.435 222.81 370.608 212.052 372.434 201.603L370.464 201.259ZM363.416 227.169C362.284 229.843 360.119 232.957 357.59 235.858C355.068 238.753 352.242 241.369 349.846 243.061C348.642 243.912 347.593 244.496 346.776 244.781C345.885 245.093 345.608 244.939 345.579 244.916C345.558 244.899 345.296 244.63 345.48 243.431C345.653 242.307 346.179 240.67 347.199 238.406L345.376 237.584C344.328 239.91 343.717 241.74 343.503 243.126C343.302 244.437 343.403 245.721 344.314 246.465C345.218 247.202 346.441 247.017 347.436 246.669C348.505 246.296 349.729 245.593 351 244.695C353.556 242.89 356.497 240.157 359.098 237.172C361.693 234.194 364.009 230.898 365.257 227.949L363.416 227.169ZM347.199 238.406C353.595 224.222 359.363 210.746 372.006 202.262L370.891 200.601C357.686 209.463 351.711 223.534 345.376 237.584L347.199 238.406ZM372.434 201.603C373.55 195.208 374.175 188.844 373.722 183.917C373.497 181.458 372.996 179.273 372.092 177.607C371.171 175.911 369.798 174.705 367.883 174.39L367.558 176.364C368.722 176.555 369.631 177.268 370.334 178.562C371.053 179.886 371.516 181.764 371.731 184.1C372.159 188.763 371.57 194.92 370.464 201.259L372.434 201.603ZM367.883 174.39C364.726 173.872 361.412 175.077 358.279 177.211C355.131 179.356 352.045 182.52 349.287 186.16C343.783 193.423 339.431 202.79 338.527 210.232L340.512 210.474C341.362 203.483 345.519 194.443 350.881 187.368C353.555 183.839 356.491 180.85 359.405 178.864C362.335 176.868 365.122 175.964 367.559 176.364L367.883 174.39ZM338.527 210.232C338.096 213.78 337.059 215.119 336.086 215.513C335.066 215.925 333.522 215.564 331.442 214.196C327.38 211.523 322.551 205.86 318.885 201.006L317.289 202.212C320.949 207.058 325.96 212.983 330.343 215.867C332.487 217.276 334.817 218.184 336.836 217.367C338.902 216.531 340.066 214.142 340.512 210.474L338.527 210.232ZM318.885 201.006C317.101 198.644 314.418 195.469 311.486 191.894L309.939 193.162C312.906 196.779 315.537 199.892 317.289 202.212L318.885 201.006ZM309.795 192.13C309.311 193.248 308.778 194.371 308.179 195.499L309.946 196.436C310.572 195.257 311.127 194.086 311.63 192.925L309.795 192.13ZM308.179 195.5C304.878 201.74 301.051 204.828 297.386 206.014C293.715 207.202 290.041 206.536 286.941 204.943C283.825 203.342 281.378 200.847 280.191 198.535C279.596 197.376 279.355 196.339 279.426 195.524C279.493 194.754 279.833 194.147 280.536 193.719L279.495 192.011C278.214 192.792 277.551 193.989 277.433 195.351C277.32 196.667 277.714 198.088 278.412 199.448C279.811 202.172 282.582 204.951 286.027 206.722C289.487 208.501 293.716 209.304 298.002 207.917C302.293 206.529 306.475 202.998 309.947 196.435L308.179 195.5ZM280.536 193.719C281.578 193.084 282.393 192.445 282.974 191.795C283.553 191.146 283.944 190.435 284.026 189.669C284.201 188.041 282.976 186.888 281.592 186.147C278.756 184.627 273.597 183.868 268.153 183.967L268.189 185.967C273.546 185.869 278.277 186.64 280.647 187.91C281.866 188.562 282.074 189.119 282.037 189.456C282.014 189.673 281.888 190.008 281.482 190.462C281.077 190.916 280.437 191.437 279.495 192.011L280.536 193.719ZM268.153 183.967C264.767 184.029 260.129 183.544 255.443 182.568C250.752 181.59 246.091 180.137 242.634 178.298L241.695 180.064C245.384 182.026 250.248 183.528 255.035 184.526C259.826 185.524 264.618 186.032 268.189 185.967L268.153 183.967ZM241.603 178.354C236.349 181.919 227.637 185.997 218.044 187.816C208.45 189.635 198.104 189.172 189.452 183.834L188.401 185.536C197.632 191.23 208.543 191.653 218.417 189.781C228.292 187.908 237.258 183.719 242.726 180.009L241.603 178.354ZM189.452 183.834C186.095 181.764 184.161 179.337 183.192 176.732C182.217 174.112 182.181 171.214 182.793 168.154C184.025 161.991 187.82 155.436 191.293 149.721L189.583 148.682C186.139 154.351 182.143 161.199 180.832 167.762C180.171 171.065 180.175 174.361 181.317 177.429C182.464 180.511 184.723 183.267 188.401 185.536L189.452 183.834ZM191.399 148.925C190.483 145.735 190.097 142.863 189.923 140.878L187.93 141.053C188.112 143.124 188.515 146.129 189.477 149.478L191.399 148.925ZM189.923 140.878C189.799 139.456 190.292 138.115 191.104 137.019C191.924 135.912 193.014 135.129 193.952 134.806C194.941 134.465 195.364 134.716 195.521 134.963C195.638 135.147 195.762 135.514 195.722 136.184C195.683 136.85 195.486 137.749 195.042 138.918L196.912 139.628C197.4 138.34 197.664 137.235 197.719 136.301C197.773 135.372 197.625 134.544 197.209 133.89C196.3 132.46 194.616 132.462 193.301 132.915C191.935 133.385 190.526 134.439 189.497 135.829C188.46 137.229 187.755 139.044 187.93 141.052L189.923 140.878ZM195.042 138.918C194.125 141.334 192.012 144.682 189.583 148.683L191.293 149.721C193.653 145.834 195.911 142.266 196.912 139.628L195.042 138.918ZM189.477 149.478C191.774 157.462 197.299 167.496 210.652 171.262L211.195 169.337C198.749 165.827 193.586 156.528 191.399 148.925L189.477 149.478ZM210.652 171.262C213.085 171.949 215.216 171.958 217.056 171.347C218.9 170.735 220.356 169.531 221.491 167.959C223.728 164.861 224.787 160.235 225.239 155.379C226.146 145.631 224.655 134.19 224.328 130.166L222.335 130.328C222.674 134.506 224.134 145.674 223.248 155.193C222.803 159.97 221.78 164.143 219.87 166.789C218.931 168.089 217.798 168.994 216.426 169.449C215.05 169.906 213.339 169.942 211.195 169.337L210.652 171.262ZM224.328 130.166C223.999 126.102 223.452 119.378 220.455 114.145C218.94 111.499 216.78 109.197 213.686 107.817C210.595 106.44 206.673 106.028 201.71 106.982L202.088 108.946C206.754 108.049 210.242 108.472 212.872 109.644C215.498 110.815 217.367 112.776 218.72 115.139C221.459 119.922 221.999 126.189 222.335 130.328L224.328 130.166ZM201.71 106.982C196.74 107.937 193.055 109.766 190.046 112.263C187.054 114.745 184.772 117.854 182.565 121.291C178.134 128.192 173.947 136.482 164.848 144.738L166.192 146.219C175.544 137.734 179.917 129.117 184.248 122.371C186.423 118.984 188.572 116.085 191.323 113.802C194.058 111.533 197.428 109.841 202.088 108.946L201.71 106.982ZM164.848 144.738C155.8 152.947 147.439 155.569 139.607 156.912C137.638 157.249 135.703 157.505 133.786 157.75C131.875 157.993 129.976 158.226 128.111 158.513C124.378 159.087 120.717 159.889 117.167 161.491L117.989 163.314C121.3 161.821 124.756 161.053 128.416 160.49C130.247 160.208 132.113 159.979 134.039 159.734C135.959 159.489 137.931 159.228 139.944 158.883C148.039 157.495 156.788 154.751 166.192 146.219L164.848 144.738ZM117.167 161.491C114.253 162.805 112.542 164.786 111.925 167.177C111.32 169.522 111.811 172.094 112.938 174.555L114.756 173.723C113.742 171.507 113.411 169.423 113.862 167.676C114.301 165.974 115.526 164.425 117.989 163.314L117.167 161.491ZM113.768 175.136C116.855 175.381 119.797 175.621 122.361 175.62C124.905 175.62 127.213 175.386 128.983 174.598L128.17 172.771C126.801 173.38 124.846 173.62 122.36 173.62C119.894 173.621 117.04 173.39 113.926 173.142L113.768 175.136ZM128.983 174.598C130.667 173.849 132.509 174.123 134.24 175.105C135.979 176.092 137.511 177.75 138.442 179.55C139.385 181.372 139.628 183.158 139.103 184.468C138.613 185.691 137.317 186.817 134.411 187.074L134.587 189.066C137.966 188.767 140.099 187.361 140.96 185.212C141.786 183.149 141.302 180.723 140.219 178.631C139.124 176.517 137.331 174.56 135.227 173.365C133.113 172.166 130.591 171.694 128.17 172.771L128.983 174.598ZM134.41 187.074C130.915 187.383 126.819 185.851 123.128 183.261C119.45 180.68 116.331 177.157 114.756 173.722L112.938 174.556C114.691 178.378 118.075 182.159 121.979 184.898C125.871 187.629 130.437 189.434 134.587 189.066L134.41 187.074ZM113.926 173.142C108.929 172.745 103.301 172.311 97.8838 172.82C92.4598 173.33 87.15 174.793 82.8287 178.264L84.0812 179.824C87.9833 176.689 92.8597 175.301 98.071 174.811C103.289 174.321 108.746 174.737 113.768 175.136L113.926 173.142ZM82.8288 178.264C79.3975 181.02 77.2072 183.848 75.8542 186.731C74.5022 189.611 74.0113 192.494 73.9069 195.321C73.8032 198.127 74.0813 200.927 74.2857 203.589C74.4923 206.281 74.6262 208.852 74.2859 211.346L76.2675 211.616C76.6393 208.891 76.4869 206.134 76.2798 203.436C76.0704 200.708 75.8072 198.056 75.9055 195.395C76.0031 192.754 76.4575 190.153 77.6647 187.58C78.8711 185.01 80.8541 182.415 84.0811 179.824L82.8288 178.264ZM74.2859 211.346C73.9663 213.689 72.9573 215.32 71.3878 216.919C70.5894 217.733 69.6528 218.532 68.5803 219.415C67.5183 220.289 66.3214 221.248 65.0596 222.346C59.9505 226.789 53.7167 233.554 48.3928 248.088L50.2708 248.776C55.4687 234.586 61.4952 228.096 66.3721 223.855C67.6068 222.781 68.7643 221.854 69.8517 220.959C70.9287 220.072 71.9368 219.216 72.8154 218.32C74.6001 216.501 75.875 214.493 76.2675 211.616L74.2859 211.346ZM48.3928 248.088C42.9581 262.923 48.9685 273.963 54.9363 283.831C60.9817 293.827 66.7556 302.384 62.5048 312.933L64.3598 313.68C69.0571 302.024 62.5199 292.506 56.6476 282.796C50.6976 272.958 45.1837 262.663 50.2708 248.776L48.3928 248.088ZM62.5048 312.933C60.2255 318.588 57.3739 322.259 54.1466 324.618C50.9194 326.976 47.2373 328.08 43.1973 328.467C39.142 328.855 34.7692 328.518 30.1811 328.024C25.6247 327.533 20.8378 326.883 16.0949 326.693L16.0145 328.691C20.6682 328.878 25.3356 329.513 29.9667 330.012C34.5661 330.508 39.114 330.867 43.3879 330.458C47.677 330.047 51.7325 328.859 55.3267 326.233C58.9209 323.606 61.9746 319.598 64.3598 313.68L62.5048 312.933ZM16.0949 326.693C11.117 326.492 7.699 328.236 5.73313 331.348C3.8189 334.378 3.40396 338.521 3.93415 342.914C4.9961 351.713 9.92884 362.177 15.8799 368.701L17.3575 367.353C11.6757 361.124 6.92985 351.043 5.91974 342.674C5.41389 338.483 5.86455 334.885 7.42405 332.416C8.93193 330.029 11.5958 328.513 16.0145 328.691L16.0949 326.693ZM15.8799 368.701C21.6653 375.043 25.5604 380.082 28.7797 386.881C32.0102 393.703 34.582 402.343 37.6399 415.915L39.591 415.476C36.5264 401.874 33.9164 393.056 30.5873 386.025C27.2471 378.971 23.205 373.763 17.3575 367.353L15.8799 368.701ZM37.6399 415.915C39.1811 422.756 41.1621 426.908 43.4081 429.073C44.5529 430.177 45.7882 430.784 47.0681 430.928C48.3401 431.072 49.5561 430.747 50.6528 430.163C52.8145 429.01 54.6581 426.775 55.9304 424.545C56.5744 423.416 57.0922 422.254 57.4418 421.175C57.7866 420.111 57.9886 419.064 57.9448 418.185L55.9473 418.284C55.9741 418.822 55.8474 419.607 55.5392 420.559C55.2358 421.495 54.7763 422.532 54.1933 423.554C53.0117 425.625 51.4029 427.496 49.712 428.398C48.8824 428.84 48.0721 429.029 47.2924 428.941C46.5206 428.854 45.679 428.484 44.7962 427.633C42.9872 425.889 41.111 422.222 39.591 415.476L37.6399 415.915ZM57.9448 418.185C57.8058 415.392 57.7709 407.455 59.1401 400.524C59.8274 397.046 60.8476 393.934 62.3032 391.85C63.024 390.818 63.8224 390.079 64.6984 389.651C65.5597 389.231 66.5571 389.08 67.7499 389.316L68.139 387.355C66.5448 387.038 65.0994 387.23 63.8208 387.854C62.5569 388.471 61.5183 389.48 60.6634 390.705C58.9676 393.134 57.8821 396.573 57.178 400.137C55.7645 407.292 55.8043 415.41 55.9473 418.284L57.9448 418.185ZM67.8461 389.331C76.751 390.211 83.1496 390.358 87.7106 390.032C92.2394 389.709 95.0827 388.911 96.7639 387.789C97.6242 387.215 98.2077 386.538 98.5287 385.776C98.8494 385.015 98.874 384.252 98.7516 383.561C98.5153 382.229 97.7087 381.063 97.2358 380.413L95.619 381.59C96.0908 382.238 96.6343 383.076 96.7823 383.911C96.852 384.303 96.8273 384.664 96.6857 384.999C96.5445 385.334 96.2529 385.726 95.6538 386.126C94.4162 386.952 92.0035 387.72 87.568 388.037C83.1646 388.352 76.8904 388.215 68.0428 387.34L67.8461 389.331ZM97.2358 380.413C96.2086 379.002 93.3861 376.15 92.7417 371.361C92.1065 366.64 93.6 359.815 101.96 350.649L100.483 349.301C91.869 358.745 90.0206 366.136 90.7595 371.628C91.4892 377.05 94.7567 380.406 95.619 381.59L97.2358 380.413ZM101.96 350.649C103.997 348.416 105.981 347.097 107.958 346.465C109.928 345.835 111.975 345.86 114.186 346.45C118.68 347.648 123.712 351.128 129.832 355.918C141.977 365.421 157.959 379.71 181.224 388.982L181.965 387.124C159.031 377.984 143.314 363.928 131.065 354.343C124.989 349.588 119.65 345.837 114.702 344.518C112.192 343.848 109.749 343.793 107.349 344.56C104.957 345.325 102.69 346.881 100.483 349.301L101.96 350.649ZM181.224 388.982C192.913 393.641 201.621 394.058 208.521 392.084C215.409 390.113 220.342 385.801 224.549 381.326C226.618 379.127 228.626 376.756 230.498 374.713C232.413 372.622 234.285 370.757 236.281 369.319C238.268 367.887 240.358 366.894 242.707 366.526C245.055 366.158 247.732 366.405 250.91 367.557L251.591 365.676C248.152 364.43 245.133 364.122 242.398 364.55C239.666 364.978 237.287 366.129 235.112 367.696C232.946 369.256 230.964 371.243 229.023 373.362C227.038 375.529 225.189 377.726 223.092 379.956C218.969 384.342 214.339 388.339 207.971 390.161C201.615 391.98 193.374 391.672 181.965 387.124L181.224 388.982ZM250.91 367.557C263.93 372.278 278.129 383.301 291.851 397.581C305.556 411.842 318.709 429.271 329.648 446.69L331.342 445.627C320.344 428.115 307.11 410.573 293.293 396.195C279.495 381.836 265.041 370.553 251.592 365.676L250.91 367.557ZM329.648 446.69C340.851 464.527 357.067 471.185 374.855 471.054C392.578 470.923 411.865 464.062 429.429 454.921L428.506 453.147C411.064 462.224 392.106 468.926 374.84 469.054C357.64 469.181 342.123 462.792 331.342 445.627L329.648 446.69ZM429.429 454.921C437.891 450.517 445.283 449.724 452.056 451.048C458.864 452.377 465.127 455.86 471.294 460.153C474.375 462.298 477.411 464.631 480.474 466.985C483.53 469.334 486.612 471.704 489.753 473.897C496.032 478.28 502.629 482.013 509.933 483.524L510.338 481.566C503.429 480.136 497.097 476.584 490.898 472.257C487.801 470.095 484.756 467.754 481.693 465.399C478.637 463.05 475.563 460.688 472.437 458.512C466.189 454.162 459.653 450.494 452.44 449.085C445.192 447.669 437.342 448.548 428.506 453.147L429.429 454.921ZM509.933 483.524C517.288 485.046 524.564 483.747 531.713 481.121C538.851 478.499 545.944 474.52 552.926 470.614C559.94 466.69 566.842 462.84 573.705 460.367C580.555 457.899 587.281 456.837 593.944 458.414L594.405 456.468C587.23 454.769 580.087 455.942 573.027 458.486C565.981 461.024 558.933 464.962 551.95 468.869C544.936 472.793 537.985 476.686 531.024 479.243C524.075 481.796 517.198 482.985 510.338 481.566L509.933 483.524ZM593.944 458.414C604.384 460.886 612.234 460.69 618.094 458.688C623.985 456.676 627.773 452.871 630.119 448.333C634.76 439.354 633.746 427.522 632.669 420.895L630.694 421.215C631.766 427.808 632.661 439.06 628.342 447.415C626.208 451.544 622.8 454.967 617.448 456.795C612.066 458.634 604.627 458.888 594.405 456.468L593.944 458.414ZM632.669 420.895C631.642 414.582 633.739 406.787 637.761 401.065C641.787 395.337 647.501 391.976 653.676 393.807L654.245 391.89C646.894 389.71 640.394 393.842 636.125 399.915C631.852 405.994 629.572 414.308 630.694 421.215L632.669 420.895ZM653.676 393.807C656.871 394.755 660.759 397.269 665.354 400.552C669.893 403.795 675.067 407.745 680.685 411.358C691.923 418.583 705.264 424.681 719.883 421.467L719.454 419.514C705.646 422.549 692.895 416.83 681.767 409.676C676.203 406.098 671.125 402.217 666.517 398.925C661.965 395.673 657.812 392.948 654.245 391.89L653.676 393.807ZM719.883 421.467C733.973 418.371 743.939 420.002 749.755 424.451C755.497 428.843 757.471 436.211 755.08 445.341L757.015 445.848C759.542 436.196 757.54 427.888 750.97 422.862C744.473 417.892 733.79 416.363 719.454 419.514L719.883 421.467ZM755.08 445.341C752.595 454.831 751.891 465.017 753.477 472.671C754.269 476.493 755.652 479.785 757.77 482.021C759.929 484.301 762.798 485.422 766.333 484.946L766.067 482.964C763.171 483.354 760.94 482.461 759.222 480.646C757.461 478.786 756.188 475.901 755.435 472.265C753.931 465.001 754.582 455.141 757.015 445.848L755.08 445.341ZM766.333 484.946C770.001 484.452 773.304 481.356 776.146 477.117C779.023 472.825 781.59 467.119 783.71 460.946C787.945 448.613 790.475 434.177 790.042 424.957L788.044 425.051C788.462 433.939 786.002 448.113 781.818 460.296C779.729 466.381 777.229 471.909 774.485 476.003C771.705 480.15 768.83 482.592 766.067 482.964L766.333 484.946ZM790.042 424.957C789.608 415.74 785.946 403.303 781.847 391.828C777.739 380.325 773.144 369.66 770.79 363.977L768.942 364.743C771.309 370.456 775.877 381.058 779.964 392.501C784.06 403.971 787.626 416.159 788.044 425.051L790.042 424.957ZM770.79 363.977C768.618 358.733 767.521 350.515 767.932 343.574L765.935 343.456C765.512 350.613 766.625 359.15 768.942 364.743L770.79 363.977ZM767.394 342.628C759.281 338.421 750.236 339.203 738.654 345.427L739.6 347.189C750.85 341.143 759.16 340.611 766.473 344.403L767.394 342.628ZM738.654 345.427C734.672 347.566 731.838 347.613 729.769 346.512C727.636 345.377 725.995 342.863 724.805 339.153C722.43 331.75 722.116 320.452 722.36 309.38L720.361 309.335C720.117 320.374 720.409 331.997 722.901 339.764C724.144 343.639 726.002 346.773 728.829 348.277C731.719 349.816 735.305 349.496 739.6 347.189L738.654 345.427ZM722.36 309.38C722.603 298.376 723.864 288.977 728.009 280.485C732.145 272.01 739.203 264.339 751.216 256.898L750.163 255.197C737.915 262.784 730.552 270.713 726.211 279.608C721.878 288.486 720.606 298.228 720.361 309.335L722.36 309.38ZM751.216 256.898C763.67 249.183 767.755 238.617 768.918 228.734C769.497 223.816 769.353 219.061 769.172 214.933C768.989 210.747 768.779 207.322 769.162 204.866L767.186 204.557C766.763 207.266 766.996 210.962 767.174 215.021C767.355 219.139 767.49 223.755 766.932 228.501C765.821 237.946 761.97 247.883 750.163 255.197L751.216 256.898ZM769.162 204.866C769.524 202.55 770.835 200.359 772.728 198.142C774.624 195.92 777.003 193.781 779.41 191.514C781.788 189.275 784.182 186.921 785.964 184.349C787.754 181.764 788.969 178.9 788.915 175.642L786.915 175.676C786.96 178.384 785.96 180.843 784.32 183.21C782.671 185.59 780.419 187.817 778.039 190.058C775.688 192.272 773.194 194.514 771.207 196.843C769.215 199.177 767.631 201.709 767.186 204.557L769.162 204.866ZM788.915 175.642C788.877 173.364 789.491 172.08 790.327 171.402C791.179 170.712 792.513 170.444 794.359 170.759C798.066 171.393 803.141 174.28 808.064 178.739L809.407 177.257C804.367 172.693 798.95 169.515 794.696 168.788C792.562 168.423 790.548 168.649 789.068 169.848C787.573 171.06 786.871 173.059 786.915 175.676L788.915 175.642ZM809.672 178.348C815.538 162.66 824.704 151.39 827.423 146.531L825.677 145.554C823.201 149.98 813.722 161.807 807.799 177.648L809.672 178.348ZM827.423 146.53C830.128 141.692 831.215 137.953 831.376 134.519C831.536 131.111 830.776 128.082 829.949 124.758C828.307 118.156 826.216 109.803 829.664 93.2207L827.706 92.8136C824.177 109.788 826.322 118.463 828.008 125.241C828.846 128.607 829.522 131.356 829.378 134.426C829.235 137.47 828.275 140.907 825.677 145.554L827.423 146.53ZM486.295 125.515C485.405 121.547 481.993 117.72 477.742 114.436C473.451 111.12 468.124 108.219 463.1 106.149C458.104 104.089 453.282 102.799 450.016 102.807C448.438 102.811 446.893 103.116 446.022 104.158C445.062 105.308 445.282 106.854 446.073 108.416L447.857 107.512C447.177 106.169 447.39 105.641 447.557 105.44C447.815 105.131 448.532 104.811 450.021 104.807C452.887 104.8 457.415 105.969 462.338 107.998C467.233 110.015 472.396 112.833 476.52 116.019C480.684 119.236 483.613 122.696 484.343 125.953L486.295 125.515ZM446.074 108.416C448.32 112.848 453.013 118.404 458.891 123.915C464.788 129.443 471.95 134.994 479.21 139.403L480.248 137.693C473.115 133.361 466.062 127.896 460.259 122.455C454.437 116.997 449.946 111.632 447.857 107.512L446.074 108.416ZM480.467 139.223C484.623 134.678 487.29 129.947 486.294 125.515L484.343 125.953C485.101 129.329 483.109 133.369 478.991 137.873L480.467 139.223ZM600.589 137.148C606.592 135.857 609.816 132.828 612.094 129.537C613.208 127.928 614.111 126.233 614.971 124.734C615.849 123.206 616.692 121.864 617.735 120.789L616.299 119.396C615.069 120.664 614.123 122.196 613.237 123.738C612.334 125.31 611.501 126.881 610.45 128.399C608.398 131.363 605.576 134.03 600.168 135.193L600.589 137.148ZM617.735 120.789C618.385 120.118 618.848 119.362 618.924 118.536C619.004 117.66 618.632 116.91 618.029 116.339C617.45 115.79 616.638 115.38 615.703 115.073C614.757 114.762 613.618 114.536 612.322 114.397C607.156 113.841 599.113 114.62 589.658 117.442L590.23 119.358C599.521 116.585 607.287 115.867 612.108 116.385C613.309 116.514 614.302 116.718 615.08 116.973C615.868 117.232 616.372 117.524 616.653 117.791C616.911 118.035 616.945 118.213 616.932 118.354C616.915 118.546 616.785 118.896 616.299 119.396L617.735 120.789ZM589.658 117.442C584.873 118.87 582.087 120.966 581.132 123.531C580.161 126.142 581.236 128.799 583.116 130.956C585.011 133.129 587.867 134.987 590.966 136.147C594.063 137.307 597.508 137.81 600.589 137.148L600.169 135.193C597.566 135.752 594.521 135.343 591.668 134.274C588.816 133.206 586.26 131.517 584.624 129.642C582.974 127.749 582.401 125.856 583.006 124.229C583.629 122.557 585.644 120.727 590.23 119.359L589.658 117.442ZM739.175 38.178C739.895 36.7392 740.386 35.267 740.605 33.8969C740.822 32.5395 740.783 31.2116 740.361 30.1089C739.924 28.9666 739.074 28.0786 737.788 27.7425C736.558 27.4212 735.074 27.6422 733.384 28.3456L734.153 30.192C735.638 29.5739 736.645 29.5111 737.282 29.6775C737.863 29.8292 738.255 30.2007 738.493 30.8234C738.746 31.4857 738.815 32.4284 738.63 33.5812C738.448 34.7213 738.029 35.9989 737.387 37.2834L739.175 38.178ZM733.384 28.3456C729.885 29.8026 728.11 32.3709 727.74 35.4792C727.379 38.5009 728.354 41.9284 730.06 45.2401L731.838 44.3245C730.221 41.1854 729.432 38.1776 729.725 35.716C730.009 33.3409 731.305 31.3779 734.153 30.192L733.384 28.3456ZM730.06 45.2404C730.486 46.0671 730.912 46.7238 731.355 47.1957C731.794 47.6631 732.335 48.0369 732.986 48.0987C733.663 48.1629 734.222 47.8704 734.637 47.5057C735.041 47.1505 735.381 46.6682 735.675 46.1624C736.263 45.1507 736.818 43.7733 737.371 42.3852C737.938 40.9644 738.517 39.4933 739.175 38.1782L737.387 37.2832C736.683 38.69 736.07 40.2486 735.514 41.6445C734.944 43.0731 734.445 44.2993 733.946 45.1573C733.696 45.5865 733.485 45.8555 733.317 46.0031C733.16 46.1413 733.125 46.103 733.175 46.1077C733.2 46.11 733.08 46.1107 732.813 45.8262C732.55 45.5461 732.223 45.0722 731.838 44.3242L730.06 45.2404ZM266.472 174.404C267.241 174.409 267.953 174.26 268.502 173.852C269.089 173.417 269.352 172.791 269.383 172.15C269.412 171.545 269.238 170.928 268.983 170.366C268.724 169.793 268.352 169.215 267.91 168.667C267.03 167.575 265.811 166.524 264.464 165.822C263.128 165.124 261.554 164.714 260.029 165.101L260.521 167.039C261.395 166.818 262.447 167.025 263.539 167.595C264.62 168.159 265.63 169.024 266.353 169.922C266.713 170.369 266.986 170.804 267.162 171.192C267.342 171.59 267.394 171.879 267.385 172.054C267.379 172.195 267.341 172.223 267.311 172.246C267.243 172.296 267.022 172.407 266.486 172.404L266.472 174.404ZM260.029 165.101C259.319 165.281 258.706 165.576 258.257 166.028C257.789 166.498 257.559 167.08 257.541 167.695C257.509 168.837 258.206 169.962 259.031 170.857C260.714 172.682 263.711 174.383 266.472 174.404L266.487 172.404C264.414 172.388 261.911 171.03 260.501 169.501C259.779 168.719 259.531 168.093 259.541 167.752C259.544 167.625 259.581 167.533 259.675 167.438C259.789 167.324 260.032 167.163 260.521 167.039L260.029 165.101ZM382.12 86.1173C385.307 86.0641 387.275 84.358 388.152 82.5803C388.578 81.7164 388.77 80.7884 388.671 80.0007C388.621 79.6072 388.49 79.181 388.206 78.8294C387.9 78.4508 387.452 78.2079 386.923 78.1944L386.872 80.1938C386.785 80.1915 386.693 80.1393 386.65 80.0861C386.629 80.0599 386.667 80.0937 386.687 80.2504C386.726 80.563 386.654 81.0956 386.359 81.6952C385.791 82.8446 384.477 84.0777 382.087 84.1176L382.12 86.1173ZM386.923 78.1944C385.191 78.1502 374.431 77.3358 367.803 76.7872L367.638 78.7804C374.231 79.3261 385.067 80.1477 386.872 80.1938L386.923 78.1944ZM367.803 76.7872C367.351 76.7497 366.944 76.7458 366.588 76.783C366.243 76.8192 365.882 76.9003 365.568 77.0805C365.228 77.2756 364.927 77.6014 364.83 78.0659C364.742 78.4912 364.858 78.8756 364.991 79.1528C365.25 79.6912 365.757 80.2096 366.315 80.6728C366.9 81.1579 367.644 81.6652 368.496 82.1643C371.869 84.1404 377.299 86.196 382.12 86.1173L382.087 84.1176C377.756 84.1883 372.69 82.3035 369.507 80.4386C368.72 79.9774 368.071 79.5307 367.592 79.1334C367.087 78.7143 366.859 78.422 366.794 78.2868C366.765 78.2273 366.823 78.3091 366.788 78.4745C366.746 78.6789 366.612 78.7871 366.563 78.8153C366.54 78.8286 366.593 78.7935 366.797 78.7721C366.989 78.752 367.264 78.7494 367.638 78.7804L367.803 76.7872ZM367.206 74.5509C368.118 74.5055 368.886 74.3595 369.46 74.061C370.081 73.7385 370.554 73.1812 370.564 72.4117C370.572 71.7563 370.233 71.1812 369.887 70.7546C369.522 70.3027 369.029 69.8692 368.484 69.4751C367.392 68.6853 365.96 67.9619 364.542 67.5126C363.163 67.0756 361.609 66.8373 360.362 67.2416L360.979 69.1442C361.62 68.9364 362.676 69.0193 363.938 69.4191C365.16 69.8065 366.399 70.4355 367.312 71.0958C367.77 71.4268 368.114 71.7429 368.333 72.0128C368.572 72.308 368.563 72.4269 368.564 72.3855C368.566 72.23 368.691 72.2069 368.538 72.2863C368.339 72.3897 367.908 72.5134 367.107 72.5534L367.206 74.5509ZM360.362 67.2416C359.223 67.6107 358.331 68.3451 358.195 69.4717C358.069 70.5127 358.655 71.4677 359.401 72.176C360.93 73.6296 363.784 74.7208 367.206 74.5509L367.107 72.5533C364.108 72.7022 361.83 71.7258 360.778 70.7262C360.233 70.2079 360.165 69.8398 360.18 69.7114C360.186 69.6686 360.229 69.3871 360.979 69.1442L360.362 67.2416ZM351.295 69.473C353.785 69.6465 355.335 68.7804 356.115 67.4271C356.828 66.1888 356.759 64.767 356.563 63.9977L354.625 64.4912C354.737 64.929 354.758 65.7764 354.382 66.4287C354.072 66.966 353.354 67.6117 351.434 67.4778L351.295 69.473ZM356.563 63.9977C356.464 63.6087 356.221 63.2833 355.995 63.0391C355.752 62.7769 355.443 62.5163 355.087 62.2626C354.374 61.7539 353.4 61.2194 352.209 60.7154C349.821 59.7053 346.48 58.784 342.421 58.4526L342.258 60.446C346.113 60.7606 349.245 61.6332 351.43 62.5574C352.524 63.0205 353.361 63.4882 353.926 63.8908C354.209 64.0928 354.405 64.2651 354.527 64.3975C354.666 64.5478 354.647 64.5783 354.625 64.4912L356.563 63.9977ZM342.421 58.4526C341.391 58.3686 340.497 58.4232 339.84 58.7352C339.487 58.9026 339.163 59.1631 338.96 59.5458C338.757 59.9282 338.727 60.3319 338.78 60.6904C338.88 61.3563 339.287 62.0056 339.734 62.563C340.204 63.1492 340.824 63.7605 341.521 64.3592C342.916 65.5579 344.703 66.7761 346.438 67.7185C348.136 68.641 349.926 69.3774 351.294 69.473L351.434 67.4778C350.52 67.414 349.051 66.8617 347.392 65.961C345.771 65.0803 344.103 63.9408 342.824 62.8421C342.184 62.292 341.661 61.7697 341.294 61.3116C340.903 60.8248 340.777 60.5194 340.758 60.3943C340.753 60.3572 340.767 60.4064 340.726 60.4844C340.684 60.5628 340.64 60.5692 340.697 60.5421C340.859 60.465 341.31 60.3686 342.258 60.446L342.421 58.4526ZM633.629 114.008C635.681 113.467 636.621 111.874 637.01 110.12C637.389 108.417 637.301 106.368 637.192 104.52L635.196 104.638C635.307 106.527 635.366 108.299 635.058 109.687C634.76 111.025 634.18 111.794 633.119 112.074L633.629 114.008ZM637.192 104.52C637.155 103.887 636.948 103.256 636.42 102.822C635.904 102.398 635.269 102.321 634.719 102.367C633.658 102.455 632.36 103.047 631.068 103.791C628.419 105.315 625.174 107.849 622.58 110.017L623.863 111.552C626.446 109.393 629.578 106.956 632.066 105.524C633.342 104.79 634.303 104.408 634.885 104.36C635.158 104.337 635.191 104.401 635.151 104.368C635.1 104.326 635.178 104.336 635.196 104.638L637.192 104.52ZM622.58 110.017C621.896 110.589 621.37 111.133 621.028 111.658C620.693 112.172 620.453 112.798 620.602 113.458C620.756 114.142 621.258 114.565 621.749 114.81C622.236 115.054 622.831 115.189 623.448 115.262C625.894 115.553 629.875 114.996 633.628 114.008L633.119 112.074C629.434 113.044 625.749 113.522 623.684 113.276C623.174 113.216 622.838 113.118 622.644 113.022C622.455 112.927 622.527 112.901 622.553 113.018C622.574 113.11 622.509 113.05 622.704 112.75C622.893 112.46 623.252 112.062 623.863 111.552L622.58 110.017Z" fill="#FF78FD" mask="url(#path-1-outside-1_648_2838)"/>
</g>
<defs>
<filter id="filter0_df_648_2838" x="1.72192" y="15.9001" width="868.556" height="471.154" filterUnits="userSpaceOnUse" color-interpolation-filters="sRGB">
<feFlood flood-opacity="0" result="BackgroundImageFix"/>
<feColorMatrix in="SourceAlpha" type="matrix" values="0 0 0 0 0 0 0 0 0 0 0 0 0 0 0 0 0 0 127 0" result="hardAlpha"/>
<feOffset/>
<feGaussianBlur stdDeviation="1"/>
<feComposite in2="hardAlpha" operator="out"/>
<feColorMatrix type="matrix" values="0 0 0 0 1 0 0 0 0 0.470588 0 0 0 0 0.992157 0 0 0 1 0"/>
<feBlend mode="normal" in2="BackgroundImageFix" result="effect1_dropShadow_648_2838"/>
<feBlend mode="normal" in="SourceGraphic" in2="effect1_dropShadow_648_2838" result="shape"/>
<feGaussianBlur stdDeviation="1" result="effect2_foregroundBlur_648_2838"/>
</filter>
</defs>
</svg>
