<svg width="320" height="240" viewBox="0 0 320 240" fill="none" xmlns="http://www.w3.org/2000/svg">
<g filter="url(#filter0_df_662_4978)">
<mask id="path-1-outside-1_662_4978" maskUnits="userSpaceOnUse" x="-94.7529" y="8" width="413" height="224" fill="black">
<rect fill="white" x="-94.7529" y="8" width="413" height="224"/>
<path fill-rule="evenodd" clip-rule="evenodd" d="M16.4611 81.6322C16.182 83.0788 17.3711 84.3239 19.2501 85.3245C19.5521 85.119 19.8312 84.9176 20.0849 84.7215C24.624 81.2091 17.2476 77.5637 16.4611 81.6322Z"/>
<path fill-rule="evenodd" clip-rule="evenodd" d="M58.0672 63.6339C56.05 65.2753 54.9441 67.1033 54.3535 69.0939C64.0128 66.9999 76.9765 65.9818 81.0177 65.1114C87.4921 63.7172 66.7213 56.5917 58.0672 63.6339Z"/>
<path fill-rule="evenodd" clip-rule="evenodd" d="M273.748 167.461C278.717 173.001 295.407 200.353 296.162 191.906C296.916 183.459 276.783 158.616 272.54 157.521C270.315 156.948 269.216 159.88 268.997 163.579C270.649 164.436 272.207 165.741 273.748 167.461Z"/>
<path fill-rule="evenodd" clip-rule="evenodd" d="M315.891 125.689C313.8 117.11 297.039 94.4896 291.867 87.9457C290.939 86.7731 289.927 85.7 288.891 84.7611C287.255 89.1398 286.151 94.1887 286.498 99.6312C287.44 114.403 298.772 126.717 307.704 131.598C316.636 136.48 317.983 134.266 315.891 125.689Z"/>
<path fill-rule="evenodd" clip-rule="evenodd" d="M54.3536 69.0946C48.5395 70.3545 43.9239 72.0039 43.1696 74.2457C41.649 78.7708 47.4577 86.2952 51.8733 91.6799C55.6246 82.995 52.5243 75.2584 54.3536 69.0946Z"/>
<path fill-rule="evenodd" clip-rule="evenodd" d="M298.385 44.2939C299.668 38.1167 291.2 42.9347 285.022 37.1738C278.844 31.413 292.359 21.98 291.464 12.191C290.569 2.40205 272.002 17.4052 259.79 26.6972C247.578 35.9892 247.653 47.1858 242.208 54.0977C236.763 61.0096 229.236 64.021 223.552 65.6489C217.868 67.2768 208.009 65.7563 202.078 69.8127C196.147 73.869 204.239 82.3229 199.26 84.9904C194.28 87.6579 187.753 90.1347 183.557 86.4679C179.36 82.8011 173.052 84.3793 167.988 85.7963C162.924 87.2134 148.237 89.1556 143.024 91.4376C137.811 93.7196 144.263 85.9911 149.198 81.3639C154.133 76.7367 148.229 72.1807 139.535 69.4097C137.241 68.6791 134.765 67.4662 132.311 65.9753C126.996 71.7925 115.412 78.0866 110.679 81.6325C104.194 86.4921 98.3674 89.7049 87.3257 92.9151C84.7756 93.6565 82.6269 94.6787 80.7787 95.9197C79.9144 100.869 78.4126 105.956 77.3939 108.361C75.1284 113.717 64.8651 122.072 68.8042 113.331C71.8334 106.609 74.6277 100.05 80.7787 95.9197C81.8363 89.8554 81.9343 83.9951 79.0045 83.5129C73.6815 82.6385 66.4179 93.2952 65.5831 100.168C64.7483 107.041 58.8698 100.623 55.3829 96.0044C54.5414 94.8895 53.2772 93.3924 51.8733 91.6799C51.6384 92.2226 51.3793 92.7687 51.0881 93.318C44.6418 105.511 33.4874 94.1441 37.2641 91.8406C41.0409 89.537 36.7675 87.9857 31.6272 88.0797C28.3161 88.1401 22.6511 87.1338 19.2501 85.3245C14.1473 88.7886 2.42371 93.1985 -6.08675 87.9454C-12.7827 83.8125 -8.65962 76.4694 -5.36737 71.0484C-5.8143 69.4917 -6.0022 68.0921 -6.08675 67.1264C-6.37128 63.8584 -0.95578 61.6409 -2.73142 66.3205C-3.18774 67.5239 -4.22791 69.1706 -5.36737 71.0484C-4.30038 74.7595 -1.75703 79.3626 4.38188 81.0952C13.0963 83.5546 10.604 65.9283 10.2873 62.0223C9.97052 58.1164 9.25248 49.6491 0.087059 51.4114C-9.07837 53.1736 -8.44488 61.3037 -17.2264 69.2754C-26.008 77.2471 -33.5119 74.3875 -40.0427 77.3344C-42.6021 78.4895 -42.837 80.6963 -41.8183 82.9233C-38.867 83.1583 -36.3022 83.3719 -34.8084 82.707C-30.9014 80.9677 -26.0067 89.028 -31.9899 89.5572C-35.6284 89.8795 -40.2346 86.3792 -41.8183 82.9233C-46.5869 82.5445 -52.3688 82.1134 -56.2825 85.2591C-62.6201 90.351 -59.4969 95.7344 -60.1747 100.705C-60.8525 105.676 -67.5148 104.623 -72.5223 118.301C-77.5298 131.978 -61.5531 138.62 -65.8116 149.194C-70.2514 160.216 -79.4155 156.404 -88.3595 156.044C-97.3034 155.684 -93.6273 169.178 -88.091 175.251C-82.5547 181.323 -80.5362 185.01 -77.6224 197.95C-74.7086 210.89 -68.7643 201.858 -68.8986 199.159C-69.0328 196.461 -68.9697 183.869 -63.6642 184.922C-46.7668 186.593 -49.2095 182.665 -50.1087 181.429C-51.0079 180.194 -55.9054 175.517 -47.8271 166.655C-39.7488 157.793 -31.5631 176.019 -9.57629 184.787C12.4105 193.556 10.9771 170.01 23.5744 174.579C36.1716 179.15 50.8479 195.823 61.2883 212.457C71.7502 229.124 91.493 224.882 108.153 216.207C124.618 207.633 133.253 226.983 146.782 229.783C160.312 232.584 173.607 214.709 186.778 217.829C206.445 222.487 205.651 206.798 204.628 200.502C203.605 194.207 208.794 185.161 215.231 187.071C221.668 188.981 232.974 203.209 246.503 200.234C260.031 197.259 266.157 203.244 263.816 212.188C261.475 221.132 262.526 231.28 268.648 230.455C274.769 229.63 279.924 211.006 279.519 202.383C279.114 193.76 272.639 178.931 270.393 173.505C269.324 170.925 268.798 166.935 268.997 163.579C265.326 161.674 261.196 161.987 255.763 164.909C247.885 169.142 247.076 157.842 247.308 147.313C247.54 136.784 249.72 129.084 261.266 121.927C272.812 114.771 268.82 102.4 269.587 97.4818C270.355 92.5632 279.077 89.3288 278.982 83.6473C278.904 78.9851 284.15 80.4643 288.891 84.7611C291.696 77.2541 296.133 71.7549 297.369 69.5441C302.417 60.5099 295.065 60.2735 298.385 44.2939Z"/>
<path fill-rule="evenodd" clip-rule="evenodd" d="M134.971 59.8733C133.429 52.9923 113.916 45.8789 116.718 51.4114C118.781 55.4838 125.461 61.8128 132.311 65.9753C134.28 63.8208 135.389 61.7322 134.971 59.8733Z"/>
<path fill-rule="evenodd" clip-rule="evenodd" d="M189.73 64.8431C195.161 63.6745 195.486 59.418 197.649 57.187C199.813 54.956 193.686 53.7163 184.765 56.3811C175.845 59.0446 184.32 66.0062 189.73 64.8431Z"/>
<path fill-rule="evenodd" clip-rule="evenodd" d="M255.361 17.967C256.657 15.3734 256.234 12.679 253.213 13.9376C250.192 15.1961 250.29 18.2531 251.871 21.325C253.416 24.3242 254.064 20.5594 255.361 17.967Z"/>
<path fill-rule="evenodd" clip-rule="evenodd" d="M30.822 82.5732C33.3036 82.5906 30.1522 78.5021 27.8693 79.081C25.5863 79.6599 28.5216 82.5557 30.822 82.5732Z"/>
<path fill-rule="evenodd" clip-rule="evenodd" d="M85.8495 40.5322C88.5042 40.4878 88.9726 37.733 88.1311 37.7115C87.2896 37.69 82.1505 37.3005 79.0046 37.0399C75.8586 36.7794 81.4942 40.6033 85.8495 40.5322Z"/>
<path fill-rule="evenodd" clip-rule="evenodd" d="M78.736 35.0249C81.996 34.8623 77.4462 31.8899 75.6491 32.4729C73.852 33.0558 75.68 35.1766 78.736 35.0249Z"/>
<path fill-rule="evenodd" clip-rule="evenodd" d="M71.2201 32.6074C73.3192 32.7538 73.3796 31.1675 73.2333 30.5926C73.087 30.0178 70.6913 28.6168 66.9253 28.3093C63.1593 28.0017 69.0472 32.4556 71.2201 32.6074Z"/>
<path fill-rule="evenodd" clip-rule="evenodd" d="M205.433 53.829C206.915 53.4382 206.88 51.5792 206.776 49.7996C206.671 48.0199 203.066 50.6941 200.602 52.7545C198.138 54.8149 201.893 54.7612 205.433 53.829Z"/>
</mask>
<path d="M16.4611 81.6322L15.4793 81.4424L15.4793 81.4427L16.4611 81.6322ZM20.0849 84.7215L20.6965 85.5126L20.6969 85.5123L20.0849 84.7215ZM58.0672 63.6339L58.6983 64.4096L58.6984 64.4096L58.0672 63.6339ZM54.3535 69.0939L53.3948 68.8095L52.9143 70.4291L54.5654 70.0712L54.3535 69.0939ZM81.0177 65.1114L80.8072 64.1338L80.8071 64.1338L81.0177 65.1114ZM273.748 167.461L273.003 168.128L273.004 168.128L273.748 167.461ZM272.54 157.521L272.79 156.553L272.79 156.553L272.54 157.521ZM315.891 125.689L314.919 125.925L314.919 125.926L315.891 125.689ZM291.867 87.9457L292.651 87.3256L292.651 87.3254L291.867 87.9457ZM286.498 99.6312L287.496 99.5676L287.496 99.5675L286.498 99.6312ZM54.3536 69.0946L55.3123 69.3792L55.7929 67.7595L54.1418 68.1173L54.3536 69.0946ZM43.1696 74.2457L42.2218 73.9268L42.2217 73.9271L43.1696 74.2457ZM298.385 44.2939L299.365 44.4974L299.365 44.4973L298.385 44.2939ZM139.535 69.4097L139.838 68.457L139.838 68.4569L139.535 69.4097ZM110.679 81.6325L110.079 80.8322L110.079 80.8323L110.679 81.6325ZM87.3257 92.9151L87.0465 91.9548L87.0465 91.9548L87.3257 92.9151ZM77.3939 108.361L76.4731 107.972L76.4729 107.972L77.3939 108.361ZM68.8042 113.331L69.716 113.742V113.742L68.8042 113.331ZM79.0045 83.5129L79.1668 82.5262L79.1665 82.5262L79.0045 83.5129ZM55.3829 96.0044L54.5848 96.6068V96.6068L55.3829 96.0044ZM51.0881 93.318L50.2046 92.8496L50.204 92.8507L51.0881 93.318ZM31.6272 88.0797L31.6454 89.0795H31.6455L31.6272 88.0797ZM-6.08675 87.9454L-5.5615 87.0944L-5.56152 87.0944L-6.08675 87.9454ZM-6.08675 67.1264L-7.08298 67.2131L-7.08294 67.2136L-6.08675 67.1264ZM-2.73142 66.3205L-3.66637 65.9657L-3.66646 65.9659L-2.73142 66.3205ZM4.38188 81.0952L4.11024 82.0576L4.11028 82.0577L4.38188 81.0952ZM-40.0427 77.3344L-40.454 76.4229L-40.4541 76.4229L-40.0427 77.3344ZM-34.8084 82.707L-34.4018 83.6206L-34.4017 83.6206L-34.8084 82.707ZM-31.9899 89.5572L-32.078 88.5611L-32.0782 88.5611L-31.9899 89.5572ZM-56.2825 85.2591L-55.6562 86.0386L-55.656 86.0385L-56.2825 85.2591ZM-65.8116 149.194L-64.8841 149.567L-64.8841 149.567L-65.8116 149.194ZM-63.6642 184.922L-63.8589 185.903L-63.8111 185.912L-63.7626 185.917L-63.6642 184.922ZM23.5744 174.579L23.9155 173.639L23.9154 173.639L23.5744 174.579ZM61.2883 212.457L60.4413 212.988L60.4413 212.988L61.2883 212.457ZM108.153 216.207L107.691 215.32L107.691 215.32L108.153 216.207ZM146.782 229.783L146.579 230.763H146.579L146.782 229.783ZM186.778 217.829L186.547 218.802L186.547 218.802L186.778 217.829ZM270.393 173.505L271.316 173.122V173.122L270.393 173.505ZM255.763 164.909L256.237 165.789L256.237 165.789L255.763 164.909ZM278.982 83.6473L277.982 83.664V83.664L278.982 83.6473ZM297.369 69.5441L298.242 70.0321L298.242 70.0318L297.369 69.5441ZM134.971 59.8733L133.996 60.092L133.996 60.0924L134.971 59.8733ZM116.718 51.4114L115.826 51.8632V51.8632L116.718 51.4114ZM189.73 64.8431L189.941 65.8207L189.941 65.8207L189.73 64.8431ZM184.765 56.3811L185.051 57.3393L185.051 57.3393L184.765 56.3811ZM255.361 17.967L256.255 18.4144L256.255 18.4142L255.361 17.967ZM251.871 21.325L250.982 21.7826L250.982 21.7828L251.871 21.325ZM30.822 82.5732L30.8144 83.5732H30.8149L30.822 82.5732ZM85.8495 40.5322L85.8658 41.532L85.8661 41.532L85.8495 40.5322ZM78.736 35.0249L78.7856 36.0236L78.7858 36.0236L78.736 35.0249ZM71.2201 32.6074L71.1504 33.6049L71.1505 33.6049L71.2201 32.6074ZM205.433 53.829L205.688 54.7961L205.689 54.796L205.433 53.829ZM15.4793 81.4427C15.2708 82.5231 15.6343 83.4869 16.2676 84.273C16.8836 85.0375 17.7813 85.6753 18.7801 86.2072L19.7202 84.4419C18.84 83.9732 18.2036 83.4881 17.825 83.0182C17.4638 82.5699 17.3724 82.1878 17.443 81.8217L15.4793 81.4427ZM19.8127 86.1513C20.1287 85.9362 20.4245 85.7229 20.6965 85.5126L19.4733 83.9303C19.238 84.1122 18.9754 84.3019 18.6875 84.4978L19.8127 86.1513ZM20.6969 85.5123C21.9949 84.5079 22.6445 83.3245 22.5406 82.1003C22.4402 80.9168 21.6585 80.0115 20.7923 79.4812C19.926 78.9508 18.8024 78.683 17.7641 78.9322C16.6447 79.2008 15.749 80.0471 15.4793 81.4424L17.443 81.822C17.5665 81.183 17.8878 80.9593 18.2308 80.877C18.655 80.7752 19.2392 80.8754 19.748 81.1869C20.2567 81.4983 20.5172 81.9087 20.5478 82.2694C20.575 82.5894 20.4445 83.1788 19.4729 83.9306L20.6969 85.5123ZM57.4361 62.8583C55.2586 64.63 54.0411 66.631 53.3948 68.8095L55.3122 69.3783C55.847 67.5756 56.8414 65.9206 58.6983 64.4096L57.4361 62.8583ZM54.5654 70.0712C59.348 69.0344 64.9652 68.2609 69.9176 67.6359C74.8223 67.017 79.1513 66.5363 81.2282 66.089L80.8071 64.1338C78.8429 64.5569 74.6695 65.0204 69.6672 65.6517C64.7127 66.2769 59.0184 67.0594 54.1417 68.1166L54.5654 70.0712ZM81.2282 66.089C81.6858 65.9904 82.1129 65.8496 82.4555 65.6335C82.8031 65.4142 83.1763 65.0388 83.2393 64.4687C83.2991 63.9274 83.0449 63.4924 82.8152 63.2155C82.5767 62.9279 82.2583 62.678 81.9211 62.4611C80.5917 61.6058 78.1863 60.7744 75.4087 60.2278C72.6027 59.6757 69.2974 59.3905 66.117 59.7026C62.9478 60.0135 59.8092 60.9271 57.436 62.8583L58.6984 64.4096C60.6522 62.8197 63.3553 61.9831 66.3123 61.693C69.258 61.404 72.3634 61.667 75.0226 62.1902C77.7101 62.719 79.8244 63.4903 80.839 64.143C81.0879 64.3032 81.2194 64.4243 81.2758 64.4923C81.3409 64.5708 81.2263 64.4757 81.2514 64.2489C81.2797 63.9933 81.4437 63.907 81.3884 63.9419C81.3282 63.9799 81.1588 64.0581 80.8072 64.1338L81.2282 66.089ZM273.004 168.128C274.198 169.46 276.134 172.15 278.424 175.384C280.694 178.588 283.281 182.278 285.737 185.531C288.175 188.76 290.55 191.65 292.398 193.196C292.866 193.588 293.332 193.92 293.783 194.151C294.219 194.375 294.738 194.554 295.278 194.504C295.884 194.448 296.371 194.118 296.687 193.617C296.972 193.162 297.104 192.594 297.158 191.995L295.166 191.817C295.125 192.274 295.038 192.482 294.994 192.552C294.979 192.575 295.026 192.519 295.094 192.512C295.096 192.512 294.978 192.517 294.695 192.372C294.426 192.234 294.088 192.002 293.682 191.662C292.033 190.283 289.784 187.572 287.333 184.326C284.901 181.104 282.337 177.446 280.056 174.227C277.796 171.038 275.782 168.231 274.492 166.793L273.004 168.128ZM297.158 191.995C297.269 190.744 296.992 189.282 296.488 187.738C295.978 186.178 295.211 184.457 294.272 182.66C292.392 179.066 289.782 175.089 287.029 171.362C284.274 167.633 281.358 164.13 278.853 161.481C277.603 160.158 276.442 159.034 275.446 158.2C274.949 157.783 274.48 157.428 274.053 157.153C273.638 156.887 273.206 156.66 272.79 156.553L272.29 158.489C272.404 158.519 272.627 158.614 272.973 158.836C273.306 159.05 273.704 159.349 274.162 159.733C275.076 160.5 276.179 161.563 277.4 162.855C279.84 165.436 282.706 168.876 285.42 172.551C288.136 176.227 290.683 180.114 292.499 183.587C293.408 185.324 294.123 186.939 294.587 188.359C295.055 189.794 295.242 190.956 295.166 191.817L297.158 191.995ZM272.79 156.553C271.99 156.347 271.227 156.45 270.563 156.848C269.93 157.229 269.468 157.83 269.128 158.489C268.452 159.796 268.111 161.618 267.999 163.52L269.995 163.638C270.101 161.84 270.419 160.347 270.905 159.407C271.144 158.942 271.388 158.686 271.594 158.563C271.769 158.457 271.977 158.409 272.291 158.489L272.79 156.553ZM268.536 164.466C270.049 165.251 271.515 166.467 273.003 168.128L274.493 166.793C272.899 165.015 271.249 163.62 269.457 162.691L268.536 164.466ZM316.862 125.452C316.304 123.16 314.801 120.033 312.852 116.599C310.888 113.138 308.42 109.278 305.863 105.494C300.75 97.9262 295.251 90.6151 292.651 87.3256L291.082 88.5658C293.655 91.8202 299.123 99.0911 304.206 106.614C306.747 110.375 309.184 114.188 311.113 117.586C313.056 121.01 314.432 123.927 314.919 125.925L316.862 125.452ZM292.651 87.3254C291.689 86.1088 290.639 84.9953 289.563 84.0201L288.22 85.5021C289.216 86.4046 290.19 87.4375 291.082 88.5661L292.651 87.3254ZM287.954 84.4111C286.283 88.8853 285.141 94.0775 285.5 99.695L287.496 99.5675C287.16 94.3 288.228 89.3943 289.828 85.1111L287.954 84.4111ZM285.5 99.6949C286.47 114.904 298.086 127.482 307.224 132.476L308.183 130.721C299.458 125.953 288.41 113.903 287.496 99.5676L285.5 99.6949ZM307.224 132.476C309.478 133.707 311.325 134.533 312.798 134.909C314.232 135.276 315.599 135.287 316.58 134.452C317.539 133.635 317.78 132.296 317.75 130.896C317.719 129.446 317.39 127.613 316.862 125.452L314.919 125.926C315.438 128.053 315.725 129.714 315.751 130.938C315.778 132.213 315.516 132.731 315.283 132.929C315.072 133.109 314.558 133.295 313.293 132.972C312.067 132.658 310.396 131.93 308.183 130.721L307.224 132.476ZM54.1418 68.1173C51.2122 68.7522 48.5315 69.4956 46.4688 70.3834C45.4374 70.8274 44.5246 71.3224 43.8039 71.8828C43.0885 72.439 42.4962 73.1113 42.2218 73.9268L44.1174 74.5646C44.2201 74.2592 44.4876 73.8846 45.0315 73.4617C45.57 73.043 46.3159 72.6266 47.2595 72.2205C49.1467 71.4082 51.6809 70.697 54.5654 70.072L54.1418 68.1173ZM42.2217 73.9271C41.7538 75.3193 41.8747 76.8595 42.3042 78.3915C42.7354 79.9295 43.5011 81.544 44.4309 83.1431C46.2895 86.3396 48.8925 89.6219 51.1001 92.314L52.6466 91.0458C50.4386 88.3532 47.9293 85.1809 46.1599 82.1378C45.2756 80.617 44.5983 79.1654 44.23 77.8517C43.86 76.5319 43.825 75.4346 44.1175 74.5642L42.2217 73.9271ZM52.7913 92.0764C54.7534 87.5338 54.9123 83.254 54.834 79.4214C54.754 75.5119 54.4551 72.2672 55.3123 69.3792L53.3949 68.8101C52.4227 72.0859 52.7593 75.7914 52.8344 79.4623C52.911 83.2102 52.7444 87.1412 50.9553 91.2834L52.7913 92.0764ZM299.365 44.4973C299.542 43.6434 299.574 42.8756 299.402 42.2021C299.22 41.4959 298.829 40.9576 298.289 40.5717C297.777 40.2061 297.167 40.0028 296.567 39.8693C295.963 39.735 295.287 39.6551 294.606 39.5833C291.822 39.2896 288.511 39.0599 285.704 36.4425L284.34 37.9052C287.711 41.0486 291.723 41.2903 294.397 41.5722C295.08 41.6443 295.652 41.7148 296.133 41.8216C296.617 41.9293 296.928 42.0579 297.126 42.1994C297.296 42.3204 297.404 42.4642 297.464 42.6994C297.533 42.9673 297.55 43.4002 297.406 44.0906L299.365 44.4973ZM285.704 36.4425C285.054 35.837 284.697 35.2181 284.527 34.5875C284.355 33.9482 284.358 33.2335 284.527 32.4202C284.874 30.7539 285.87 28.8616 287.127 26.6946C288.353 24.5812 289.807 22.2352 290.88 19.8203C291.958 17.3948 292.706 14.7881 292.46 12.0999L290.468 12.2821C290.67 14.4884 290.064 16.7317 289.052 19.0081C288.036 21.295 286.666 23.5028 285.397 25.6913C284.159 27.8263 282.991 29.9843 282.569 32.0128C282.354 33.0469 282.322 34.0908 282.596 35.1083C282.873 36.1344 283.445 37.0705 284.34 37.9052L285.704 36.4425ZM292.46 12.0999C292.334 10.7198 291.878 9.58808 290.983 8.85087C290.091 8.1163 288.947 7.92461 287.77 8.0248C285.466 8.22091 282.508 9.58013 279.364 11.4265C273.018 15.1542 265.257 21.2808 259.184 25.9013L260.395 27.493C266.535 22.8215 274.163 16.8006 280.377 13.151C283.514 11.3087 286.128 10.1718 287.939 10.0176C288.82 9.94262 289.368 10.1122 289.711 10.3945C290.051 10.6742 290.371 11.215 290.468 12.2821L292.46 12.0999ZM259.184 25.9013C252.903 30.6808 249.78 35.9605 247.55 40.8769C246.995 42.1003 246.496 43.3019 246.019 44.46C245.54 45.623 245.088 46.7354 244.619 47.8057C243.681 49.9465 242.705 51.8507 241.422 53.4789L242.993 54.7165C244.433 52.8887 245.49 50.8013 246.451 48.6084C246.931 47.5119 247.395 46.3719 247.868 45.2212C248.344 44.0655 248.833 42.8919 249.372 41.703C251.518 36.9702 254.465 32.0056 260.395 27.493L259.184 25.9013ZM241.422 53.4789C236.17 60.1458 228.886 63.081 223.277 64.6875L223.827 66.6102C229.586 64.9609 237.355 61.8734 242.993 54.7165L241.422 53.4789ZM223.277 64.6875C221.955 65.0662 220.354 65.2705 218.551 65.4192C217.653 65.4932 216.721 65.5524 215.759 65.6142C214.801 65.6759 213.814 65.7401 212.824 65.8237C208.9 66.1546 204.715 66.7979 201.513 68.9873L202.643 70.6381C205.372 68.7711 209.082 68.1465 212.992 67.8166C213.96 67.7349 214.927 67.6719 215.888 67.6101C216.845 67.5486 217.796 67.4882 218.715 67.4124C220.544 67.2616 222.307 67.0456 223.827 66.6102L223.277 64.6875ZM201.513 68.9873C199.764 70.1837 199.023 71.7493 198.842 73.4119C198.668 75.0033 199.009 76.6771 199.336 78.1402C199.68 79.6839 199.997 80.9622 199.967 82.0361C199.953 82.5473 199.858 82.9465 199.687 83.2637C199.522 83.5698 199.253 83.8593 198.787 84.1089L199.732 85.8719C200.51 85.4547 201.078 84.8964 201.447 84.2138C201.809 83.5423 201.946 82.8117 201.966 82.0918C202.005 80.7036 201.603 79.1148 201.288 77.7046C200.955 76.2137 200.697 74.8467 200.83 73.6288C200.955 72.4821 201.426 71.4698 202.643 70.6381L201.513 68.9873ZM198.787 84.1089C196.328 85.4264 193.562 86.6535 190.939 87.12C188.326 87.5849 185.999 87.2741 184.215 85.7148L182.899 87.221C185.311 89.3285 188.346 89.6127 191.29 89.0891C194.225 88.567 197.212 87.222 199.732 85.8719L198.787 84.1089ZM184.215 85.7148C181.853 83.6519 178.936 83.1072 176.056 83.2265C173.19 83.3453 170.243 84.1268 167.718 84.8333L168.257 86.7593C170.796 86.0488 173.535 85.3327 176.139 85.2248C178.728 85.1175 181.063 85.6171 182.899 87.221L184.215 85.7148ZM167.718 84.8333C165.24 85.5268 160.383 86.3524 155.374 87.3104C150.456 88.2511 145.355 89.3257 142.623 90.5215L143.425 92.3537C145.906 91.2675 150.756 90.23 155.75 89.2748C160.653 88.3369 165.672 87.4829 168.257 86.7593L167.718 84.8333ZM142.623 90.5215C141.992 90.7979 141.686 90.8503 141.597 90.8497C141.566 90.8495 141.694 90.8419 141.849 90.962C142.028 91.101 142.081 91.2831 142.09 91.3702C142.098 91.4433 142.077 91.3293 142.281 90.9184C142.459 90.5609 142.741 90.1058 143.121 89.5702C144.647 87.4196 147.441 84.3818 149.882 82.0934L148.514 80.6344C146.02 82.9732 143.121 86.1133 141.49 88.4132C141.081 88.9902 140.733 89.5398 140.49 90.0278C140.274 90.4624 140.042 91.0348 140.101 91.5838C140.136 91.9089 140.28 92.2764 140.622 92.5417C140.939 92.7882 141.302 92.8479 141.584 92.8497C142.12 92.8531 142.753 92.6478 143.425 92.3537L142.623 90.5215ZM149.882 82.0934C151.245 80.8158 151.987 79.4187 151.993 77.9377C151.999 76.4705 151.281 75.1458 150.205 74.0047C148.079 71.7501 144.227 69.8556 139.838 68.457L139.231 70.3625C143.537 71.7348 146.984 73.5038 148.75 75.3767C149.62 76.2994 149.996 77.1545 149.993 77.9295C149.99 78.6907 149.619 79.5984 148.514 80.6344L149.882 82.0934ZM139.838 68.4569C137.643 67.7576 135.241 66.5852 132.831 65.1207L131.792 66.8298C134.289 68.3472 136.839 69.6005 139.231 70.3626L139.838 68.4569ZM131.573 65.3008C129.009 68.1075 124.881 71.0754 120.726 73.8213C116.637 76.5231 112.475 79.0378 110.079 80.8322L111.278 82.4329C113.617 80.6813 117.613 78.2759 121.828 75.4899C125.977 72.748 130.299 69.6603 133.05 66.6498L131.573 65.3008ZM110.079 80.8323C103.692 85.6181 97.9752 88.7775 87.0465 91.9548L87.6048 93.8753C98.7596 90.6323 104.695 87.3661 111.278 82.4328L110.079 80.8323ZM87.0465 91.9548C84.4021 92.7237 82.1587 93.7885 80.2213 95.0896L81.3362 96.7499C83.095 95.5688 85.1492 94.5893 87.6049 93.8753L87.0465 91.9548ZM79.7937 95.7477C78.9387 100.643 77.4548 105.653 76.4731 107.972L78.3147 108.751C79.3703 106.259 80.8901 101.095 81.7638 96.0918L79.7937 95.7477ZM76.4729 107.972C75.9647 109.173 74.9738 110.608 73.788 111.97C72.608 113.324 71.2937 114.539 70.1951 115.316C69.6396 115.709 69.1862 115.955 68.8636 116.068C68.4665 116.207 68.5829 116.045 68.7984 116.221C69.022 116.403 68.8545 116.541 68.9378 115.999C69.0095 115.533 69.2376 114.804 69.716 113.742L67.8925 112.92C67.3861 114.044 67.0733 114.966 66.9611 115.695C66.8606 116.348 66.8663 117.225 67.5335 117.77C68.1927 118.308 69.0231 118.131 69.5236 117.956C70.0987 117.755 70.7267 117.389 71.3495 116.949C72.6075 116.06 74.0377 114.728 75.2961 113.283C76.5488 111.845 77.6904 110.227 78.3149 108.751L76.4729 107.972ZM69.716 113.742C72.7754 106.952 75.4664 100.691 81.3362 96.7499L80.2213 95.0895C73.7891 99.4086 70.8915 106.265 67.8925 112.92L69.716 113.742ZM81.7639 96.0915C82.2975 93.0314 82.6044 89.9472 82.3827 87.5316C82.2723 86.3286 82.0242 85.2077 81.5454 84.3252C81.05 83.4121 80.2752 82.7086 79.1668 82.5262L78.8421 84.4997C79.1986 84.5584 79.5103 84.7682 79.7875 85.279C80.0813 85.8204 80.2919 86.6341 80.3911 87.7144C80.5885 89.8656 80.3175 92.7437 79.7936 95.7479L81.7639 96.0915ZM79.1665 82.5262C77.4756 82.2484 75.7602 82.9008 74.2159 83.9537C72.6566 85.0168 71.1483 86.5692 69.8136 88.3315C67.1567 91.8396 65.0353 96.3852 64.5904 100.048L66.5758 100.289C66.9658 97.0781 68.8936 92.859 71.4079 89.539C72.6588 87.8874 74.0167 86.5101 75.3425 85.6062C76.6832 84.6921 77.8718 84.3403 78.8423 84.4997L79.1665 82.5262ZM64.5904 100.048C64.389 101.706 63.9287 102.068 63.7523 102.14C63.5292 102.23 63.0005 102.201 62.0273 101.56C60.1779 100.343 57.9275 97.7154 56.1811 95.4019L54.5848 96.6068C56.3252 98.9124 58.7575 101.803 60.9278 103.231C61.9644 103.913 63.2798 104.489 64.5027 103.994C65.7723 103.48 66.3598 102.067 66.5758 100.289L64.5904 100.048ZM56.1811 95.4019C55.3235 94.2657 54.0333 92.7375 52.6467 91.046L51.1 92.3139C52.521 94.0474 53.7594 95.5133 54.5848 96.6068L56.1811 95.4019ZM50.9556 91.2827C50.7301 91.8037 50.4823 92.3258 50.2046 92.8496L51.9716 93.7864C52.2764 93.2115 52.5468 92.6414 52.791 92.0771L50.9556 91.2827ZM50.204 92.8507C48.6777 95.7377 46.9496 97.0921 45.3694 97.6038C43.7838 98.1172 42.1805 97.8363 40.7998 97.1263C39.4035 96.4083 38.3237 95.2947 37.814 94.3013C37.558 93.8026 37.4834 93.4091 37.5057 93.1516C37.5239 92.9402 37.6018 92.8059 37.7848 92.6943L36.7434 90.9868C35.9823 91.4511 35.5825 92.1759 35.5131 92.9794C35.4476 93.7368 35.6752 94.5141 36.0346 95.2145C36.7555 96.6193 38.1591 98.0173 39.8852 98.9049C41.6268 99.8005 43.7847 100.219 45.9855 99.5065C48.1918 98.7921 50.2753 96.995 51.9722 93.7854L50.204 92.8507ZM37.7848 92.6943C38.3066 92.3761 38.7408 92.0406 39.063 91.6798C39.3844 91.3198 39.6393 90.8828 39.6938 90.3745C39.8131 89.2616 38.9644 88.5562 38.262 88.1797C36.7902 87.3907 34.2228 87.0321 31.6089 87.0799L31.6455 89.0795C34.1719 89.0333 36.3114 89.4033 37.3171 89.9424C37.8536 90.2299 37.6862 90.3384 37.7052 90.1613C37.7096 90.1209 37.7189 90.1822 37.5712 90.3477C37.4243 90.5122 37.1659 90.7292 36.7434 90.9868L37.7848 92.6943ZM31.6089 87.0799C30.0464 87.1084 27.8791 86.8835 25.6765 86.4243C23.4694 85.9641 21.3044 85.2847 19.7198 84.4417L18.7804 86.2074C20.5968 87.1736 22.9648 87.902 25.2683 88.3822C27.5762 88.8634 29.8969 89.1115 31.6454 89.0795L31.6089 87.0799ZM18.6885 84.4972C16.2439 86.1566 12.164 88.0694 7.67317 88.9214C3.18024 89.7738 -1.59531 89.5426 -5.5615 87.0944L-6.612 88.7963C-2.06773 91.6013 3.27375 91.7917 8.04594 90.8864C12.8202 89.9806 17.1535 87.9565 19.8118 86.1519L18.6885 84.4972ZM-5.56152 87.0944C-7.07466 86.1605 -7.90978 85.0916 -8.32487 83.9754C-8.74518 82.8452 -8.77042 81.5696 -8.492 80.1758C-7.92665 77.3458 -6.17279 74.3011 -4.51265 71.5675L-6.22209 70.5293C-7.8542 73.2167 -9.80798 76.554 -10.4532 79.784C-10.7801 81.4203 -10.7864 83.0942 -10.1994 84.6725C-9.60725 86.265 -8.44679 87.6638 -6.61198 88.7963L-5.56152 87.0944ZM-4.4062 70.7724C-4.83045 69.2947 -5.00977 67.9619 -5.09056 67.0391L-7.08294 67.2136C-6.99463 68.2223 -6.79816 69.6886 -6.32854 71.3243L-4.4062 70.7724ZM-5.09052 67.0396C-5.13618 66.5152 -4.95633 66.0008 -4.62907 65.5587C-4.294 65.106 -3.85816 64.8037 -3.52402 64.6885C-3.13898 64.5558 -3.26832 64.7415 -3.39067 64.5489C-3.4129 64.5139 -3.36095 64.5676 -3.37573 64.8188C-3.39029 65.0661 -3.46684 65.4398 -3.66637 65.9657L-1.79646 66.6752C-1.55209 66.0312 -1.40945 65.4506 -1.37919 64.9362C-1.34914 64.4257 -1.42674 63.9105 -1.70255 63.4764C-2.33201 62.4856 -3.46452 62.5525 -4.17582 62.7977C-4.93803 63.0604 -5.69174 63.6327 -6.23656 64.3687C-6.7892 65.1153 -7.17959 66.1036 -7.08298 67.2131L-5.09052 67.0396ZM-3.66646 65.9659C-4.0807 67.0584 -5.04837 68.5951 -6.22228 70.5296L-4.51247 71.5672C-3.40744 69.7462 -2.29478 67.9895 -1.79638 66.675L-3.66646 65.9659ZM-6.32844 71.3247C-5.20664 75.2265 -2.48267 80.1968 4.11024 82.0576L4.65351 80.1329C-1.03141 78.5283 -3.39411 74.2926 -4.4063 70.7721L-6.32844 71.3247ZM4.11028 82.0577C5.34428 82.4059 6.46852 82.4224 7.4659 82.091C8.46721 81.7583 9.24493 81.1069 9.83648 80.2871C10.9867 78.693 11.5 76.3717 11.717 74.0384C12.1542 69.3372 11.4361 63.8178 11.284 61.9415L9.29053 62.1032C9.45512 64.1328 10.1416 69.3795 9.72557 73.8532C9.51594 76.1073 9.03815 77.9755 8.21462 79.1168C7.81931 79.6646 7.3645 80.0172 6.83533 80.193C6.30225 80.3701 5.59808 80.3994 4.65348 80.1328L4.11028 82.0577ZM11.284 61.9415C11.1287 60.0262 10.8668 56.7042 9.37334 54.0946C8.60988 52.7605 7.50574 51.5748 5.91026 50.8633C4.31839 50.1534 2.33786 49.9603 -0.101753 50.4293L0.275864 52.3934C2.41896 51.9813 3.96523 52.1858 5.09566 52.6899C6.22249 53.1924 7.03617 54.0373 7.63749 55.088C8.87361 57.248 9.12911 60.1126 9.29053 62.1032L11.284 61.9415ZM-0.101753 50.4293C-2.54855 50.8998 -4.38464 51.807 -5.88867 53.0556C-7.37584 54.2902 -8.49685 55.8253 -9.55527 57.4748C-11.6902 60.8019 -13.6342 64.6639 -17.8986 68.535L-16.5543 70.0158C-12.0371 65.9153 -9.90705 61.7263 -7.87201 58.5549C-6.84543 56.9551 -5.85744 55.629 -4.6112 54.5945C-3.38181 53.5739 -1.86005 52.804 0.275864 52.3934L-0.101753 50.4293ZM-17.8986 68.535C-22.1115 72.3593 -25.9891 73.5762 -29.6476 74.2036C-30.5724 74.3622 -31.4841 74.4831 -32.3955 74.5994C-33.3007 74.7149 -34.2137 74.8267 -35.1096 74.9646C-36.9057 75.2412 -38.7014 75.6321 -40.454 76.4229L-39.6314 78.2459C-38.1186 77.5633 -36.5273 77.2065 -34.8052 76.9413C-33.942 76.8084 -33.063 76.7008 -32.1424 76.5833C-31.228 76.4667 -30.2798 76.3412 -29.3096 76.1748C-25.3881 75.5023 -21.123 74.1632 -16.5543 70.0158L-17.8986 68.535ZM-40.4541 76.4229C-41.9593 77.1023 -42.9007 78.159 -43.2406 79.4772C-43.5691 80.7507 -43.2931 82.1032 -42.7277 83.3393L-40.909 82.5073C-41.3622 81.5164 -41.4782 80.6521 -41.304 79.9766C-41.1413 79.3458 -40.6855 78.7216 -39.6313 78.2459L-40.4541 76.4229ZM-41.8977 83.9201C-40.4354 84.0366 -39.0119 84.153 -37.7665 84.1526C-36.5405 84.1523 -35.3492 84.0423 -34.4018 83.6206L-35.215 81.7934C-35.7614 82.0366 -36.5994 82.1523 -37.7671 82.1526C-38.9154 82.153 -40.2499 82.045 -41.739 81.9265L-41.8977 83.9201ZM-34.4017 83.6206C-33.7939 83.35 -33.0956 83.428 -32.372 83.8388C-31.64 84.2544 -30.9795 84.9658 -30.5785 85.7409C-30.1664 86.5376 -30.1142 87.2204 -30.2851 87.6473C-30.4212 87.9874 -30.8187 88.4497 -32.078 88.5611L-31.9018 90.5533C-30.1695 90.4001 -28.9351 89.6564 -28.4284 88.3907C-27.9563 87.2117 -28.2502 85.889 -28.8021 84.8219C-29.3653 83.7332 -30.2871 82.7226 -31.3847 82.0995C-32.4907 81.4716 -33.8694 81.1944 -35.2151 81.7935L-34.4017 83.6206ZM-32.0782 88.5611C-33.5697 88.6932 -35.3958 88.0352 -37.1001 86.8387C-38.7913 85.6513 -40.2061 84.0412 -40.9093 82.5067L-42.7274 83.3399C-41.8469 85.2614 -40.1667 87.1294 -38.2493 88.4755C-36.3449 89.8125 -34.0486 90.7435 -31.9017 90.5533L-32.0782 88.5611ZM-41.7392 81.9264C-44.111 81.738 -46.8339 81.5264 -49.4647 81.7739C-52.1019 82.022 -54.7425 82.7383 -56.909 84.4796L-55.656 86.0385C-53.9088 84.6341 -51.7017 83.9932 -49.2774 83.7651C-46.8466 83.5364 -44.2943 83.7298 -41.8975 83.9202L-41.7392 81.9264ZM-56.9088 84.4795C-58.5954 85.8346 -59.6921 87.2424 -60.3744 88.697C-61.0557 90.1496 -61.2988 91.5959 -61.3503 92.9907C-61.4011 94.3647 -61.2648 95.7372 -61.1689 96.9873C-61.0706 98.2679 -61.0118 99.4427 -61.1655 100.57L-59.1839 100.841C-58.9987 99.4826 -59.0761 98.1203 -59.1747 96.8343C-59.2758 95.5178 -59.3971 94.2941 -59.3517 93.0645C-59.3071 91.8555 -59.1003 90.6905 -58.5636 89.5463C-58.0279 88.404 -57.1384 87.2295 -55.6562 86.0386L-56.9088 84.4795ZM-61.1655 100.57C-61.2985 101.546 -61.7092 102.224 -62.3998 102.928C-62.7587 103.294 -63.1858 103.66 -63.695 104.079C-64.1938 104.49 -64.7737 104.955 -65.3813 105.484C-67.8736 107.653 -70.8946 110.946 -73.4614 117.957L-71.5833 118.645C-69.1425 111.978 -66.3286 108.959 -64.0684 106.993C-63.4879 106.487 -62.9474 106.055 -62.4232 105.623C-61.9094 105.199 -61.4109 104.777 -60.9717 104.329C-60.0661 103.405 -59.3897 102.35 -59.1839 100.841L-61.1655 100.57ZM-73.4614 117.957C-76.1387 125.27 -73.1485 130.722 -70.3036 135.429C-67.3813 140.263 -64.8329 144.087 -66.7392 148.82L-64.8841 149.567C-62.5318 143.727 -65.8425 138.943 -68.592 134.394C-71.419 129.717 -73.9134 125.009 -71.5833 118.645L-73.4614 117.957ZM-66.7392 148.82C-67.7963 151.444 -69.1005 153.104 -70.5403 154.157C-71.98 155.21 -73.6345 155.713 -75.4919 155.891C-77.3645 156.071 -79.3996 155.916 -81.5803 155.681C-83.7291 155.449 -86.0386 155.136 -88.3193 155.045L-88.3997 157.043C-86.2083 157.131 -84.0183 157.43 -81.7947 157.669C-79.6028 157.906 -77.3925 158.083 -75.3011 157.882C-73.1945 157.68 -71.1665 157.093 -69.3598 155.772C-67.5531 154.451 -66.0469 152.454 -64.8841 149.567L-66.7392 148.82ZM-88.3193 155.045C-90.8351 154.943 -92.6594 155.833 -93.7149 157.505C-94.7187 159.095 -94.9068 161.21 -94.6482 163.355C-94.1292 167.657 -91.7328 172.741 -88.83 175.925L-87.3521 174.577C-89.9856 171.689 -92.1954 166.988 -92.6626 163.115C-92.8969 161.172 -92.6731 159.602 -92.0237 158.573C-91.426 157.626 -90.3558 156.964 -88.3997 157.043L-88.3193 155.045ZM-88.83 175.925C-86.0929 178.927 -84.2777 181.282 -82.7772 184.453C-81.2655 187.647 -80.0515 191.715 -78.598 198.17L-76.6468 197.731C-78.1071 191.246 -79.3592 187 -80.9694 183.598C-82.5907 180.172 -84.5529 177.647 -87.3521 174.577L-88.83 175.925ZM-78.598 198.17C-77.859 201.452 -76.8887 203.556 -75.7054 204.698C-75.092 205.289 -74.4009 205.641 -73.6585 205.725C-72.9239 205.808 -72.2389 205.617 -71.6469 205.302C-70.4947 204.687 -69.5559 203.527 -68.9266 202.424C-68.6042 201.858 -68.3425 201.272 -68.164 200.721C-67.9903 200.184 -67.8745 199.617 -67.8998 199.11L-69.8973 199.209C-69.889 199.376 -69.9296 199.681 -70.0667 200.105C-70.199 200.513 -70.4025 200.974 -70.664 201.433C-71.2026 202.378 -71.9068 203.173 -72.5881 203.537C-72.9129 203.71 -73.1922 203.765 -73.434 203.737C-73.6681 203.711 -73.9654 203.597 -74.317 203.258C-75.0635 202.538 -75.929 200.919 -76.6468 197.731L-78.598 198.17ZM-67.8998 199.11C-67.9649 197.801 -67.9802 194.069 -67.3402 190.827C-67.0175 189.193 -66.549 187.797 -65.9191 186.895C-65.6112 186.454 -65.2941 186.173 -64.9789 186.019C-64.6784 185.872 -64.3213 185.811 -63.8589 185.903L-63.4695 183.941C-64.3336 183.769 -65.139 183.871 -65.8569 184.222C-66.5601 184.566 -67.1173 185.117 -67.5593 185.75C-68.4292 186.997 -68.9629 188.721 -69.3023 190.44C-69.9866 193.906 -69.9665 197.819 -69.8973 199.209L-67.8998 199.11ZM-63.7626 185.917C-59.5096 186.337 -56.4318 186.41 -54.2198 186.252C-52.0399 186.096 -50.5739 185.709 -49.6574 185.097C-49.1795 184.778 -48.8254 184.381 -48.6256 183.906C-48.4262 183.433 -48.4145 182.964 -48.4865 182.557C-48.622 181.792 -49.0747 181.151 -49.3001 180.841L-50.9173 182.018C-50.6931 182.326 -50.5032 182.639 -50.4558 182.906C-50.4365 183.015 -50.4483 183.081 -50.4688 183.13C-50.4889 183.178 -50.5513 183.289 -50.768 183.434C-51.2407 183.749 -52.276 184.108 -54.3624 184.257C-56.4168 184.404 -59.3702 184.341 -63.5658 183.927L-63.7626 185.917ZM-49.3001 180.841C-49.8321 180.11 -51.059 178.884 -51.3434 176.769C-51.6186 174.722 -51.0005 171.62 -47.088 167.328L-48.5661 165.981C-52.7319 170.551 -53.7043 174.219 -53.3255 177.035C-52.956 179.783 -51.2845 181.513 -50.9173 182.018L-49.3001 180.841ZM-47.088 167.328C-46.1633 166.314 -45.2935 165.748 -44.4613 165.482C-43.6362 165.218 -42.7667 165.222 -41.792 165.482C-39.7726 166.021 -37.4582 167.607 -34.5339 169.897C-28.7816 174.401 -21.1061 181.266 -9.94672 185.716L-9.20587 183.859C-20.0333 179.541 -27.444 172.908 -33.3009 168.322C-36.1811 166.067 -38.802 164.21 -41.2765 163.55C-42.5488 163.21 -43.8158 163.176 -45.0706 163.577C-46.3182 163.976 -47.4713 164.78 -48.5661 165.981L-47.088 167.328ZM-9.94672 185.716C-4.31021 187.964 -0.0437012 188.191 3.3829 187.21C6.79758 186.233 9.22484 184.097 11.2489 181.943C12.2258 180.903 13.223 179.729 14.0843 178.788C14.9892 177.8 15.8513 176.944 16.7568 176.291C17.6534 175.645 18.572 175.213 19.5897 175.054C20.6054 174.895 21.7895 174.996 23.2334 175.519L23.9154 173.639C22.2099 173.021 20.6831 172.858 19.2802 173.078C17.8792 173.297 16.6713 173.887 15.5872 174.668C14.5121 175.444 13.5394 176.422 12.6091 177.438C11.6352 178.502 10.7968 179.503 9.79137 180.573C7.85075 182.638 5.72649 184.459 2.83248 185.287C-0.0496063 186.113 -3.84898 185.995 -9.20587 183.859L-9.94672 185.716ZM23.2333 175.519C29.3175 177.727 36.008 182.908 42.5189 189.687C49.0118 196.448 55.2502 204.718 60.4413 212.988L62.1353 211.925C56.886 203.562 50.566 195.179 43.9614 188.302C37.3747 181.443 30.4285 176.002 23.9155 173.639L23.2333 175.519ZM60.4413 212.988C65.883 221.657 73.7837 224.899 82.4037 224.835C90.9581 224.772 100.224 221.463 108.615 217.094L107.691 215.32C99.4221 219.626 90.4864 222.775 82.389 222.835C74.3572 222.894 67.1556 219.923 62.1353 211.925L60.4413 212.988ZM108.615 217.094C112.544 215.048 115.941 214.693 119.041 215.299C122.174 215.911 125.083 217.521 127.997 219.55C129.452 220.563 130.887 221.667 132.346 222.789C133.799 223.906 135.275 225.042 136.782 226.095C139.791 228.197 143 230.022 146.579 230.763L146.985 228.804C143.8 228.145 140.856 226.501 137.927 224.455C136.464 223.434 135.025 222.326 133.565 221.204C132.113 220.086 130.64 218.954 129.14 217.909C126.146 215.823 122.964 214.028 119.424 213.336C115.851 212.637 111.995 213.079 107.691 215.32L108.615 217.094ZM146.579 230.763C150.21 231.514 153.777 230.867 157.232 229.597C160.675 228.331 164.089 226.414 167.403 224.559C170.75 222.686 173.996 220.875 177.214 219.715C180.419 218.56 183.511 218.083 186.547 218.802L187.008 216.856C183.459 216.015 179.95 216.603 176.536 217.834C173.134 219.06 169.741 220.958 166.426 222.814C163.08 224.687 159.809 226.519 156.542 227.72C153.288 228.916 150.12 229.453 146.985 228.804L146.579 230.763ZM186.547 218.802C191.573 219.993 195.417 219.915 198.331 218.919C201.276 217.912 203.179 216 204.35 213.732C206.643 209.293 206.129 203.507 205.615 200.342L203.641 200.663C204.15 203.793 204.544 208.999 202.573 212.814C201.613 214.673 200.091 216.204 197.685 217.026C195.248 217.858 191.816 217.995 187.008 216.856L186.547 218.802ZM205.615 200.342C205.152 197.492 206.102 193.916 207.95 191.284C209.803 188.647 212.316 187.249 214.946 188.029L215.515 186.112C211.709 184.983 208.409 187.152 206.314 190.135C204.215 193.123 203.081 197.218 203.641 200.663L205.615 200.342ZM214.946 188.029C216.369 188.452 218.15 189.593 220.349 191.165C222.491 192.697 224.978 194.596 227.666 196.325C233.043 199.784 239.547 202.787 246.717 201.21L246.288 199.257C239.93 200.655 234.016 198.032 228.748 194.643C226.114 192.949 223.723 191.119 221.512 189.538C219.357 187.998 217.311 186.645 215.515 186.112L214.946 188.029ZM246.717 201.21C253.358 199.75 257.913 200.554 260.503 202.535C263.019 204.461 263.951 207.723 262.849 211.935L264.784 212.441C266.022 207.708 265.062 203.506 261.718 200.947C258.447 198.444 253.176 197.742 246.288 199.257L246.717 201.21ZM262.849 211.935C261.653 216.505 261.304 221.441 262.079 225.187C262.466 227.057 263.154 228.73 264.255 229.894C265.398 231.102 266.931 231.695 268.781 231.446L268.514 229.464C267.304 229.627 266.41 229.261 265.707 228.519C264.963 227.732 264.386 226.465 264.038 224.782C263.343 221.425 263.639 216.815 264.784 212.441L262.849 211.935ZM268.781 231.446C270.764 231.179 272.448 229.533 273.817 227.49C275.221 225.394 276.46 222.63 277.477 219.668C279.506 213.756 280.728 206.813 280.518 202.336L278.52 202.43C278.715 206.575 277.563 213.256 275.585 219.019C274.599 221.893 273.427 224.479 272.155 226.377C270.848 228.327 269.592 229.319 268.514 229.464L268.781 231.446ZM280.518 202.336C280.308 197.861 278.539 191.875 276.588 186.409C274.627 180.915 272.434 175.82 271.316 173.122L269.469 173.887C270.598 176.616 272.765 181.648 274.705 187.081C276.654 192.542 278.325 198.281 278.52 202.43L280.518 202.336ZM271.316 173.122C270.32 170.717 269.803 166.886 269.995 163.638L267.999 163.52C267.794 166.984 268.328 171.133 269.469 173.887L271.316 173.122ZM269.457 162.691C265.387 160.579 260.889 161.017 255.29 164.028L256.237 165.789C261.504 162.957 265.266 162.769 268.536 164.466L269.457 162.691ZM255.29 164.028C253.477 165.002 252.325 164.953 251.556 164.543C250.723 164.1 249.999 163.065 249.446 161.342C248.347 157.912 248.191 152.617 248.308 147.335L246.308 147.291C246.192 152.539 246.325 158.158 247.542 161.952C248.147 163.841 249.088 165.495 250.616 166.309C252.207 167.156 254.111 166.932 256.237 165.789L255.29 164.028ZM248.308 147.335C248.423 142.123 249.02 137.737 250.943 133.794C252.858 129.868 256.137 126.283 261.793 122.777L260.739 121.077C254.848 124.729 251.265 128.572 249.145 132.917C247.034 137.246 246.425 141.974 246.308 147.291L248.308 147.335ZM261.793 122.777C267.889 118.999 269.895 113.803 270.462 108.982C270.742 106.595 270.672 104.294 270.586 102.326C270.497 100.299 270.403 98.7396 270.575 97.636L268.599 97.3276C268.388 98.6834 268.505 100.514 268.588 102.414C268.674 104.372 268.736 106.534 268.475 108.749C267.96 113.132 266.189 117.7 260.739 121.077L261.793 122.777ZM270.575 97.636C270.726 96.6729 271.279 95.7186 272.153 94.693C273.032 93.6629 274.134 92.6718 275.294 91.5785C276.426 90.5124 277.602 89.3582 278.485 88.0834C279.376 86.7957 280.01 85.3256 279.982 83.6305L277.982 83.664C278.002 84.8097 277.581 85.8745 276.84 86.9449C276.09 88.0282 275.056 89.0552 273.923 90.1228C272.818 91.1631 271.602 92.2579 270.632 93.3952C269.658 94.5369 268.833 95.8315 268.599 97.3276L270.575 97.636ZM279.982 83.6306C279.965 82.6337 280.235 82.2101 280.461 82.0271C280.701 81.8319 281.158 81.6929 281.961 81.8303C283.581 82.1075 285.907 83.4061 288.22 85.5021L289.563 84.0201C287.134 81.8193 284.466 80.2299 282.298 79.8589C281.207 79.6722 280.07 79.769 279.201 80.4734C278.317 81.1899 277.96 82.3298 277.982 83.664L279.982 83.6306ZM289.828 85.1111C292.604 77.6807 296.885 72.4598 298.242 70.0321L296.497 69.056C295.382 71.05 290.788 76.8276 287.955 84.4111L289.828 85.1111ZM298.242 70.0318C299.558 67.678 300.108 65.8184 300.19 64.0815C300.27 62.3699 299.886 60.8538 299.496 59.2823C298.725 56.1844 297.745 52.2913 299.365 44.4974L297.406 44.0905C295.705 52.2762 296.741 56.4911 297.555 59.7648C297.956 61.3791 298.256 62.6148 298.192 63.9877C298.129 65.3353 297.705 66.8931 296.496 69.0563L298.242 70.0318ZM135.947 59.6546C135.482 57.5787 133.732 55.6605 131.686 54.079C129.6 52.4657 127.022 51.0628 124.597 50.0628C122.2 49.0742 119.828 48.4278 118.169 48.4319C117.395 48.4338 116.442 48.5751 115.867 49.2635C115.203 50.0594 115.421 51.0626 115.826 51.8632L117.611 50.9595C117.316 50.377 117.53 50.3923 117.403 50.5451C117.365 50.5905 117.489 50.4336 118.174 50.4319C119.433 50.4288 121.511 50.9534 123.835 51.9117C126.13 52.8586 128.545 54.1784 130.463 55.6613C132.422 57.176 133.69 58.7273 133.996 60.092L135.947 59.6546ZM115.826 51.8632C116.937 54.0555 119.223 56.751 122.035 59.3889C124.866 62.0442 128.303 64.71 131.792 66.8299L132.831 65.1207C129.469 63.0781 126.141 60.4982 123.404 57.9302C120.648 55.3449 118.563 52.8397 117.611 50.9595L115.826 51.8632ZM133.049 66.6499C135.037 64.4749 136.483 62.041 135.947 59.6542L133.996 60.0924C134.295 61.4234 133.523 63.1668 131.573 65.3007L133.049 66.6499ZM189.941 65.8207C192.954 65.1723 194.594 63.6349 195.737 61.9825C196.284 61.1921 196.732 60.3521 197.13 59.6579C197.546 58.9339 197.92 58.3445 198.367 57.8832L196.931 56.4909C196.297 57.1451 195.819 57.9243 195.395 58.6624C194.955 59.4303 194.576 60.1458 194.092 60.8444C193.175 62.1702 191.937 63.3453 189.52 63.8654L189.941 65.8207ZM198.367 57.8832C198.72 57.5194 199.027 57.053 199.078 56.4934C199.134 55.8843 198.869 55.3775 198.491 55.0195C198.138 54.6842 197.671 54.4576 197.187 54.2989C196.693 54.1364 196.113 54.023 195.471 53.9539C192.922 53.6796 189.021 54.0661 184.478 55.423L185.051 57.3393C189.43 56.0313 193.053 55.7053 195.257 55.9424C195.803 56.0012 196.238 56.0921 196.563 56.199C196.9 56.3098 197.059 56.4179 197.115 56.4708C197.147 56.5012 197.075 56.4364 197.087 56.3117C197.094 56.2366 197.119 56.297 196.931 56.4909L198.367 57.8832ZM184.478 55.4229C182.149 56.1186 180.621 57.1862 180.079 58.642C179.521 60.1425 180.165 61.6078 181.12 62.7041C182.089 63.8166 183.527 64.7456 185.067 65.3225C186.605 65.8989 188.349 66.1629 189.941 65.8207L189.52 63.8654C188.407 64.1048 187.063 63.9347 185.769 63.4498C184.476 62.9653 183.338 62.2055 182.628 61.3901C181.903 60.5584 181.762 59.8567 181.954 59.3391C182.163 58.7768 182.92 57.9754 185.051 57.3393L184.478 55.4229ZM256.255 18.4142C256.618 17.6886 256.871 16.9366 256.984 16.224C257.096 15.5241 257.085 14.791 256.84 14.1507C256.58 13.4708 256.056 12.9125 255.259 12.704C254.518 12.5104 253.686 12.6571 252.829 13.0145L253.598 14.8607C254.251 14.5887 254.605 14.6003 254.753 14.639C254.844 14.6628 254.911 14.7042 254.972 14.8648C255.048 15.0649 255.089 15.4131 255.009 15.9085C254.932 16.3912 254.752 16.9487 254.466 17.5199L256.255 18.4142ZM252.829 13.0145C250.992 13.7794 250.023 15.161 249.823 16.833C249.634 18.4183 250.147 20.1604 250.982 21.7826L252.76 20.8673C252.014 19.4177 251.687 18.0953 251.809 17.0696C251.921 16.1304 252.413 15.3542 253.598 14.8607L252.829 13.0145ZM250.982 21.7828C251.195 22.1971 251.424 22.5577 251.682 22.8326C251.936 23.1031 252.304 23.3794 252.791 23.4257C253.304 23.4743 253.707 23.2481 253.972 23.0152C254.227 22.7916 254.422 22.5061 254.574 22.2452C254.877 21.7232 255.155 21.0276 255.415 20.3773C255.687 19.6942 255.954 19.0166 256.255 18.4144L254.466 17.5197C254.119 18.2137 253.819 18.9787 253.557 19.637C253.281 20.3279 253.058 20.8722 252.844 21.2405C252.737 21.4248 252.67 21.4971 252.652 21.513C252.645 21.5194 252.766 21.4143 252.98 21.4346C253.169 21.4526 253.223 21.5512 253.14 21.4636C253.062 21.3804 252.933 21.2026 252.76 20.8671L250.982 21.7828ZM30.8149 83.5732C31.2418 83.5762 31.7097 83.495 32.0972 83.2074C32.5219 82.8922 32.7065 82.4371 32.7274 82.0015C32.7635 81.2509 32.3329 80.5131 31.9112 79.9894C31.4512 79.4181 30.816 78.8693 30.1056 78.4984C29.4056 78.1329 28.5198 77.8844 27.6235 78.1116L28.1151 80.0503C28.3602 79.9881 28.7245 80.0335 29.1799 80.2713C29.6248 80.5036 30.0504 80.8674 30.3534 81.2437C30.6947 81.6675 30.7294 81.9125 30.7297 81.9055C30.7328 81.8417 30.7743 81.6986 30.9053 81.6014C30.999 81.5318 31.0225 81.5746 30.829 81.5732L30.8149 83.5732ZM27.6235 78.1116C27.227 78.2122 26.8383 78.3884 26.5369 78.6917C26.2168 79.014 26.0562 79.4197 26.0444 79.8403C26.0233 80.5936 26.4717 81.2598 26.8915 81.7153C27.7642 82.6621 29.3204 83.5618 30.8144 83.5732L30.8296 81.5732C30.0231 81.5671 28.9615 81.0101 28.3622 80.3599C28.046 80.0169 28.0449 79.8495 28.0436 79.8965C28.0417 79.9639 28.0084 80.0483 27.9558 80.1013C27.9219 80.1354 27.9408 80.0945 28.1151 80.0503L27.6235 78.1116ZM85.8661 41.532C87.5921 41.5032 88.6996 40.5666 89.1982 39.5556C89.4353 39.075 89.5579 38.5297 89.4951 38.0303C89.4638 37.781 89.3767 37.4753 89.1616 37.2089C88.9248 36.9155 88.5705 36.7224 88.1566 36.7118L88.1056 38.7112C87.9021 38.706 87.7172 38.6036 87.6055 38.4652C87.5585 38.4071 87.5349 38.3558 87.5238 38.326C87.518 38.3105 87.5148 38.2987 87.513 38.2914C87.5113 38.284 87.5108 38.28 87.5107 38.2798C87.5107 38.2797 87.5111 38.2825 87.5113 38.2885C87.5114 38.2945 87.5114 38.3029 87.5109 38.314C87.5097 38.3364 87.5063 38.3664 87.4988 38.4035C87.4837 38.4783 87.454 38.5706 87.4045 38.6709C87.2157 39.0538 86.7616 39.5168 85.8328 39.5323L85.8661 41.532ZM88.1566 36.7118C87.3515 36.6913 82.2504 36.3054 79.0871 36.0433L78.922 38.0365C82.0507 38.2957 87.2276 38.6888 88.1056 38.7112L88.1566 36.7118ZM79.0871 36.0433C78.8514 36.0238 78.6229 36.0202 78.4109 36.0424C78.2097 36.0635 77.9569 36.1143 77.719 36.2508C77.455 36.4023 77.1985 36.6712 77.1159 37.0674C77.0414 37.4245 77.1422 37.7295 77.233 37.9185C77.4067 38.2804 77.7211 38.5865 78.0009 38.8187C78.3069 39.0726 78.6861 39.3302 79.1084 39.5777C80.7634 40.5479 83.4434 41.5716 85.8658 41.532L85.8331 39.5323C83.9003 39.5639 81.5849 38.7112 80.1198 37.8523C79.7621 37.6426 79.4784 37.4458 79.2781 37.2796C79.0515 37.0916 79.0162 37.0117 79.0359 37.0529C79.0497 37.0815 79.1224 37.2425 79.0738 37.4757C79.017 37.7481 78.8402 37.9133 78.7147 37.9854C78.6152 38.0424 78.5596 38.0378 78.6194 38.0315C78.6684 38.0264 78.7646 38.0235 78.922 38.0365L79.0871 36.0433ZM78.7858 36.0236C79.2485 36.0006 79.7024 35.9252 80.0743 35.7319C80.4926 35.5145 80.8737 35.0971 80.8816 34.4886C80.8881 33.9942 80.6355 33.601 80.4433 33.3634C80.2307 33.1005 79.9574 32.8633 79.6751 32.6591C79.1083 32.249 78.3765 31.8799 77.6503 31.6496C76.9634 31.4318 76.0931 31.2775 75.3406 31.5216L75.9576 33.4241C76.1037 33.3767 76.476 33.3754 77.0458 33.5561C77.5762 33.7243 78.1151 33.999 78.5029 34.2795C78.6978 34.4206 78.8229 34.5403 78.8883 34.6211C78.9741 34.7272 78.8792 34.6645 78.8818 34.4625C78.8859 34.1465 79.1017 33.9834 79.1518 33.9574C79.1556 33.9554 79.0386 34.0085 78.6862 34.0261L78.7858 36.0236ZM75.3406 31.5216C74.6965 31.7306 74.0497 32.199 73.9507 33.0191C73.8621 33.7536 74.2764 34.362 74.6836 34.7491C75.5368 35.5603 77.0457 36.11 78.7856 36.0236L78.6864 34.0261C77.3703 34.0915 76.4371 33.6566 76.0617 33.2997C75.8545 33.1027 75.9577 33.0811 75.9363 33.2587C75.9046 33.5219 75.7031 33.5066 75.9576 33.4241L75.3406 31.5216ZM71.1505 33.6049C72.4852 33.698 73.4412 33.2276 73.9353 32.3695C74.3632 31.6264 74.3177 30.7991 74.2024 30.346L72.2642 30.8392C72.2733 30.875 72.2882 30.972 72.2787 31.0921C72.2695 31.2094 72.2406 31.3047 72.2021 31.3715C72.1704 31.4265 72.1232 31.4806 72.0235 31.5264C71.9134 31.577 71.6922 31.6379 71.2897 31.6098L71.1505 33.6049ZM74.2024 30.346C74.1236 30.0362 73.9392 29.804 73.8089 29.6631C73.662 29.5042 73.4847 29.357 73.2965 29.2226C72.9181 28.9526 72.4189 28.6806 71.8265 28.4298C70.6369 27.9262 68.992 27.4747 67.0067 27.3126L66.8439 29.3059C68.6246 29.4514 70.0606 29.8541 71.0469 30.2716C71.5425 30.4814 71.905 30.6866 72.1346 30.8505C72.2504 30.9332 72.3138 30.9921 72.3406 31.0211C72.384 31.068 72.3065 31.0054 72.2642 30.8392L74.2024 30.346ZM67.0067 27.3126C66.4952 27.2708 65.9535 27.2858 65.5106 27.496C65.2651 27.6126 65.0148 27.8066 64.8538 28.1096C64.6931 28.4121 64.6749 28.7229 64.713 28.9777C64.7816 29.4363 65.0484 29.8355 65.276 30.1195C65.5267 30.4322 65.8473 30.7466 66.1938 31.0444C66.8884 31.6414 67.7698 32.2422 68.6252 32.7071C69.4441 33.1521 70.3797 33.5511 71.1504 33.6049L71.2898 31.6098C70.9741 31.5877 70.3589 31.3731 69.5803 30.9499C68.8383 30.5466 68.0757 30.0247 67.4974 29.5277C67.2075 29.2785 66.9845 29.0531 66.8365 28.8685C66.6655 28.6552 66.6787 28.5998 66.691 28.6818C66.7009 28.7482 66.7038 28.8901 66.6201 29.0478C66.5361 29.2058 66.4186 29.2789 66.3683 29.3028C66.3158 29.3277 66.4139 29.2708 66.8439 29.3059L67.0067 27.3126ZM205.689 54.796C206.925 54.4699 207.466 53.4954 207.676 52.5518C207.874 51.658 207.825 50.6097 207.774 49.7408L205.777 49.8583C205.831 50.7691 205.852 51.5401 205.723 52.1184C205.606 52.647 205.424 52.7973 205.178 52.8621L205.689 54.796ZM207.774 49.7408C207.751 49.3529 207.619 48.8893 207.216 48.5584C206.824 48.2365 206.365 48.1963 206.03 48.2242C205.399 48.2768 204.694 48.6139 204.075 48.9703C202.771 49.7205 201.198 50.9528 199.96 51.9874L201.243 53.5217C202.47 52.4958 203.931 51.3608 205.072 50.7037C205.676 50.3564 206.045 50.2299 206.196 50.2173C206.253 50.2125 206.111 50.2392 205.947 50.1037C205.771 49.9591 205.774 49.8013 205.777 49.8583L207.774 49.7408ZM199.96 51.9874C199.616 52.2755 199.321 52.5735 199.119 52.8849C198.923 53.1859 198.729 53.6321 198.844 54.1425C198.964 54.6778 199.354 54.9834 199.667 55.14C199.975 55.2945 200.326 55.3687 200.648 55.407C201.912 55.5573 203.884 55.2711 205.688 54.7961L205.179 52.862C203.443 53.3191 201.767 53.5259 200.884 53.421C200.784 53.409 200.706 53.3943 200.648 53.3795C200.62 53.3723 200.599 53.3656 200.584 53.3602C200.568 53.3548 200.562 53.3515 200.562 53.3515C200.562 53.3516 200.564 53.3527 200.568 53.3552C200.572 53.3576 200.578 53.3615 200.586 53.367C200.602 53.3781 200.625 53.397 200.652 53.4257C200.709 53.4876 200.768 53.5819 200.795 53.703C200.849 53.9432 200.738 54.0628 200.795 53.9761C200.845 53.8997 200.972 53.7486 201.243 53.5217L199.96 51.9874Z" fill="#FF78FD" mask="url(#path-1-outside-1_662_4978)"/>
</g>
<path d="M218.621 104C217.296 104 216.026 103.473 215.09 102.536C214.153 101.598 213.627 100.326 213.627 99C213.627 97.6739 214.153 96.4021 215.09 95.4645C216.026 94.5268 217.296 94 218.621 94C219.945 94 221.216 94.5268 222.152 95.4645C223.089 96.4021 223.615 97.6739 223.615 99C223.615 99.6566 223.486 100.307 223.235 100.913C222.984 101.52 222.616 102.071 222.152 102.536C221.688 103 221.138 103.368 220.532 103.619C219.926 103.871 219.277 104 218.621 104ZM218.621 85C214.912 85 211.356 86.475 208.733 89.1005C206.111 91.726 204.638 95.287 204.638 99C204.638 109.5 218.621 125 218.621 125C218.621 125 232.604 109.5 232.604 99C232.604 95.287 231.131 91.726 228.508 89.1005C225.886 86.475 222.329 85 218.621 85Z" fill="#FF78FD"/>
<g opacity="0.35" filter="url(#filter1_f_662_4978)">
<ellipse cx="218.621" cy="135" rx="11.9856" ry="3" fill="#FF78FD"/>
</g>
<defs>
<filter id="filter0_df_662_4978" x="-96.7529" y="6.00012" width="416.505" height="227.502" filterUnits="userSpaceOnUse" color-interpolation-filters="sRGB">
<feFlood flood-opacity="0" result="BackgroundImageFix"/>
<feColorMatrix in="SourceAlpha" type="matrix" values="0 0 0 0 0 0 0 0 0 0 0 0 0 0 0 0 0 0 127 0" result="hardAlpha"/>
<feOffset/>
<feGaussianBlur stdDeviation="1"/>
<feComposite in2="hardAlpha" operator="out"/>
<feColorMatrix type="matrix" values="0 0 0 0 1 0 0 0 0 0.470588 0 0 0 0 0.992157 0 0 0 1 0"/>
<feBlend mode="normal" in2="BackgroundImageFix" result="effect1_dropShadow_662_4978"/>
<feBlend mode="normal" in="SourceGraphic" in2="effect1_dropShadow_662_4978" result="shape"/>
<feGaussianBlur stdDeviation="1" result="effect2_foregroundBlur_662_4978"/>
</filter>
<filter id="filter1_f_662_4978" x="202.635" y="128" width="31.9712" height="14" filterUnits="userSpaceOnUse" color-interpolation-filters="sRGB">
<feFlood flood-opacity="0" result="BackgroundImageFix"/>
<feBlend mode="normal" in="SourceGraphic" in2="BackgroundImageFix" result="shape"/>
<feGaussianBlur stdDeviation="2" result="effect1_foregroundBlur_662_4978"/>
</filter>
</defs>
</svg>
