<svg width="612" height="426" viewBox="0 0 612 426" fill="none" xmlns="http://www.w3.org/2000/svg">
<g filter="url(#filter0_df_648_2814)">
<mask id="path-1-outside-1_648_2814" maskUnits="userSpaceOnUse" x="-123.004" y="14.975" width="733" height="396" fill="black">
<rect fill="white" x="-123.004" y="14.975" width="733" height="396"/>
<path fill-rule="evenodd" clip-rule="evenodd" d="M73.9915 144.897C73.4951 147.465 75.6098 149.675 78.9512 151.451C79.4882 151.086 79.9846 150.729 80.4357 150.381C88.5077 144.146 75.3902 137.676 73.9915 144.897Z"/>
<path fill-rule="evenodd" clip-rule="evenodd" d="M147.98 112.95C144.393 115.864 142.426 119.108 141.376 122.642C158.553 118.925 181.607 117.118 188.793 115.573C200.307 113.098 163.37 100.45 147.98 112.95Z"/>
<path fill-rule="evenodd" clip-rule="evenodd" d="M531.528 297.242C540.364 307.077 570.045 355.627 571.387 340.633C572.728 325.64 536.925 281.543 529.38 279.6C525.423 278.582 523.468 283.786 523.079 290.352C526.017 291.873 528.788 294.191 531.528 297.242Z"/>
<path fill-rule="evenodd" clip-rule="evenodd" d="M606.471 223.097C602.753 207.87 572.947 167.719 563.749 156.104C562.1 154.022 560.3 152.117 558.458 150.451C555.548 158.223 553.584 167.185 554.202 176.845C555.878 203.066 576.029 224.923 591.912 233.587C607.796 242.251 610.192 238.322 606.471 223.097Z"/>
<path fill-rule="evenodd" clip-rule="evenodd" d="M141.376 122.643C131.037 124.879 122.829 127.807 121.488 131.786C118.783 139.818 129.113 153.174 136.965 162.732C143.636 147.316 138.123 133.584 141.376 122.643Z"/>
<path fill-rule="evenodd" clip-rule="evenodd" d="M575.341 78.6217C577.623 67.6572 562.563 76.209 551.576 65.9835C540.59 55.7581 564.625 39.0144 563.033 21.639C561.441 4.26361 528.423 30.8942 506.706 47.3874C484.989 63.8807 485.123 83.7547 475.44 96.0234C465.757 108.292 452.372 113.637 442.264 116.527C432.156 119.416 414.623 116.717 404.076 123.917C393.529 131.118 407.919 146.123 399.064 150.858C390.21 155.593 378.603 159.989 371.14 153.48C363.676 146.972 352.459 149.773 343.453 152.288C334.448 154.804 308.33 158.251 299.06 162.302C289.79 166.352 301.263 152.634 310.039 144.421C318.815 136.208 308.316 128.121 292.855 123.202C288.776 121.905 284.372 119.752 280.009 117.106C270.558 127.432 249.958 138.604 241.54 144.898C230.007 153.523 219.647 159.226 200.011 164.924C195.476 166.24 191.655 168.055 188.368 170.258C186.831 179.043 184.161 188.072 182.349 192.342C178.32 201.847 160.069 216.679 167.074 201.163C172.461 189.23 177.43 177.589 188.368 170.258C190.249 159.493 190.423 149.091 185.213 148.235C175.747 146.683 162.83 165.599 161.346 177.798C159.861 189.998 149.407 178.607 143.207 170.408C141.71 168.429 139.462 165.772 136.965 162.732C136.548 163.695 136.087 164.664 135.569 165.639C124.106 187.282 104.27 167.106 110.986 163.017C117.702 158.928 110.103 156.175 100.961 156.341C95.0734 156.449 84.9992 154.662 78.9512 151.451C69.8768 157.6 49.0286 165.427 33.8943 156.103C21.9869 148.767 29.319 135.733 35.1736 126.111C34.3788 123.348 34.0447 120.863 33.8943 119.149C33.3883 113.349 43.0188 109.413 39.8612 117.719C39.0497 119.855 37.1999 122.778 35.1736 126.111C37.0711 132.698 41.5939 140.869 52.5108 143.944C68.0079 148.309 63.5757 117.023 63.0125 110.09C62.4492 103.157 61.1723 88.1272 44.8733 91.2551C28.5743 94.3831 29.7008 108.814 14.0845 122.964C-1.53194 137.114 -14.8762 132.038 -26.49 137.269C-31.0415 139.319 -31.4592 143.236 -29.6476 147.189C-24.3992 147.606 -19.8382 147.985 -17.1817 146.805C-10.234 143.718 -1.52955 158.025 -12.1696 158.964C-18.64 159.536 -26.8313 153.323 -29.6476 147.189C-38.1277 146.516 -48.4097 145.751 -55.3694 151.335C-66.6396 160.373 -61.0857 169.928 -62.291 178.752C-63.4963 187.576 -75.344 185.707 -84.2489 209.984C-93.1538 234.261 -64.7421 246.051 -72.3152 264.819C-80.2106 284.383 -96.5072 277.616 -112.412 276.978C-128.318 276.339 -121.78 300.292 -111.935 311.07C-102.09 321.849 -98.5001 328.393 -93.3185 351.362C-88.1369 374.33 -77.5661 358.297 -77.8047 353.508C-78.0434 348.718 -77.9312 326.367 -68.4965 328.236C-38.4475 331.202 -42.7914 324.231 -44.3905 322.037C-45.9896 319.844 -54.6988 311.542 -40.333 295.812C-25.9673 280.082 -11.4106 312.434 27.6888 327.998C66.7883 343.561 64.2392 301.768 86.6411 309.878C109.043 317.991 135.142 347.585 153.708 377.11C172.313 406.695 207.422 399.166 237.048 383.767C266.329 368.549 281.685 402.895 305.743 407.865C329.804 412.836 353.447 381.108 376.868 386.647C411.843 394.915 410.43 367.066 408.611 355.892C406.793 344.717 416.02 328.66 427.466 332.051C438.913 335.441 459.019 360.696 483.077 355.415C507.136 350.134 518.029 360.758 513.866 376.633C509.704 392.509 511.573 410.521 522.458 409.057C533.344 407.594 542.512 374.535 541.791 359.229C541.07 343.923 529.557 317.603 525.561 307.971C523.661 303.391 522.726 296.31 523.079 290.352C516.551 286.972 509.207 287.527 499.546 292.713C485.536 300.227 484.096 280.17 484.509 261.481C484.922 242.792 488.798 229.124 509.331 216.421C529.864 203.719 522.764 181.761 524.129 173.03C525.494 164.3 541.006 158.559 540.836 148.474C540.698 140.199 550.025 142.824 558.458 150.451C563.446 137.126 571.336 127.365 573.534 123.441C582.511 107.405 569.436 106.986 575.341 78.6217Z"/>
<path fill-rule="evenodd" clip-rule="evenodd" d="M284.74 106.275C281.998 94.0612 247.297 81.435 252.281 91.2551C255.949 98.4838 267.827 109.718 280.009 117.106C283.511 113.282 285.482 109.575 284.74 106.275Z"/>
<path fill-rule="evenodd" clip-rule="evenodd" d="M382.119 115.096C391.775 113.022 392.353 105.467 396.2 101.507C400.048 97.5469 389.152 95.3464 373.288 100.076C357.426 104.804 372.498 117.161 382.119 115.096Z"/>
<path fill-rule="evenodd" clip-rule="evenodd" d="M498.83 31.8915C501.135 27.2878 500.383 22.5052 495.011 24.7391C489.638 26.9731 489.813 32.3993 492.624 37.8518C495.371 43.1755 496.524 36.4928 498.83 31.8915Z"/>
<path fill-rule="evenodd" clip-rule="evenodd" d="M99.5296 146.567C103.943 146.598 98.3386 139.341 94.2788 140.369C90.2189 141.396 95.4387 146.536 99.5296 146.567Z"/>
<path fill-rule="evenodd" clip-rule="evenodd" d="M197.386 71.9445C202.107 71.8659 202.94 66.9761 201.443 66.9379C199.947 66.8998 190.808 66.2084 185.213 65.7459C179.619 65.2833 189.641 72.0709 197.386 71.9445Z"/>
<path fill-rule="evenodd" clip-rule="evenodd" d="M184.736 62.1691C190.533 61.8806 182.442 56.6046 179.246 57.6393C176.05 58.674 179.301 62.4385 184.736 62.1691Z"/>
<path fill-rule="evenodd" clip-rule="evenodd" d="M171.37 57.8781C175.103 58.1379 175.21 55.3223 174.95 54.3019C174.69 53.2815 170.43 50.7949 163.733 50.2489C157.035 49.7029 167.506 57.6087 171.37 57.8781Z"/>
<path fill-rule="evenodd" clip-rule="evenodd" d="M410.044 95.5465C412.679 94.8527 412.617 91.5531 412.43 88.3942C412.244 85.2352 405.833 89.982 401.451 93.6392C397.069 97.2965 403.747 97.2011 410.044 95.5465Z"/>
</mask>
<path d="M73.9915 144.897L73.0098 144.707L73.0097 144.707L73.9915 144.897ZM80.4357 150.381L81.0466 151.172L81.047 151.172L80.4357 150.381ZM147.98 112.95L148.611 113.726L148.611 113.726L147.98 112.95ZM141.376 122.642L140.418 122.357L139.936 123.976L141.588 123.619L141.376 122.642ZM188.793 115.573L188.583 114.595L188.583 114.595L188.793 115.573ZM531.528 297.242L530.784 297.91L530.784 297.911L531.528 297.242ZM529.38 279.6L529.63 278.632L529.629 278.631L529.38 279.6ZM606.471 223.097L605.5 223.334L605.5 223.335L606.471 223.097ZM563.749 156.104L564.533 155.483L564.533 155.483L563.749 156.104ZM554.202 176.845L555.2 176.782V176.782L554.202 176.845ZM141.376 122.643L142.335 122.928L142.816 121.308L141.165 121.666L141.376 122.643ZM121.488 131.786L120.54 131.467L120.54 131.467L121.488 131.786ZM575.341 78.6217L576.32 78.8255V78.8254L575.341 78.6217ZM292.855 123.202L293.158 122.249L293.158 122.249L292.855 123.202ZM241.54 144.898L240.941 144.097L240.941 144.097L241.54 144.898ZM200.011 164.924L199.732 163.964L199.732 163.964L200.011 164.924ZM182.349 192.342L181.428 191.951L181.428 191.951L182.349 192.342ZM167.074 201.163L167.985 201.574V201.574L167.074 201.163ZM185.213 148.235L185.375 147.249L185.375 147.249L185.213 148.235ZM143.207 170.408L142.409 171.011L142.409 171.011L143.207 170.408ZM135.569 165.639L134.686 165.17L134.685 165.171L135.569 165.639ZM100.961 156.341L100.98 157.341H100.98L100.961 156.341ZM33.8943 156.103L34.4189 155.252L34.4189 155.252L33.8943 156.103ZM33.8943 119.149L32.8981 119.236L32.8981 119.237L33.8943 119.149ZM39.8612 117.719L38.9264 117.363L38.9263 117.364L39.8612 117.719ZM52.5108 143.944L52.2397 144.907L52.2397 144.907L52.5108 143.944ZM-26.49 137.269L-26.9007 136.357L-26.9007 136.357L-26.49 137.269ZM-17.1817 146.805L-16.7757 147.719L-16.7757 147.719L-17.1817 146.805ZM-12.1696 158.964L-12.2575 157.968L-12.2577 157.968L-12.1696 158.964ZM-55.3694 151.335L-54.7438 152.115L-54.7437 152.115L-55.3694 151.335ZM-72.3152 264.819L-71.3879 265.193L-71.3879 265.193L-72.3152 264.819ZM-68.4965 328.236L-68.6908 329.217L-68.6431 329.226L-68.5947 329.231L-68.4965 328.236ZM86.6411 309.878L86.9816 308.938L86.9815 308.938L86.6411 309.878ZM153.708 377.11L152.862 377.643V377.643L153.708 377.11ZM237.048 383.767L236.587 382.879H236.587L237.048 383.767ZM305.743 407.865L305.541 408.845H305.541L305.743 407.865ZM376.868 386.647L376.638 387.62L376.638 387.62L376.868 386.647ZM525.561 307.971L526.485 307.588L525.561 307.971ZM499.546 292.713L500.018 293.594L500.019 293.594L499.546 292.713ZM540.836 148.474L539.836 148.491V148.491L540.836 148.474ZM573.534 123.441L574.407 123.929L574.407 123.929L573.534 123.441ZM284.74 106.275L283.764 106.494L283.764 106.495L284.74 106.275ZM252.281 91.2551L251.389 91.7077L251.389 91.7077L252.281 91.2551ZM382.119 115.096L382.329 116.074L382.329 116.074L382.119 115.096ZM373.288 100.076L373.573 101.035L373.574 101.035L373.288 100.076ZM498.83 31.8915L499.724 32.3395L499.724 32.3393L498.83 31.8915ZM492.624 37.8518L491.735 38.3101L491.735 38.3103L492.624 37.8518ZM99.5296 146.567L99.522 147.567H99.5226L99.5296 146.567ZM197.386 71.9445L197.402 72.9444L197.402 72.9444L197.386 71.9445ZM184.736 62.1691L184.785 63.1679L184.785 63.1679L184.736 62.1691ZM171.37 57.8781L171.301 58.8756L171.301 58.8756L171.37 57.8781ZM410.044 95.5465L410.298 96.5137L410.298 96.5136L410.044 95.5465ZM73.0097 144.707C72.6923 146.349 73.2335 147.835 74.254 149.099C75.2572 150.342 76.7519 151.414 78.4818 152.334L79.4206 150.568C77.8091 149.711 76.5758 148.791 75.8103 147.843C75.0623 146.916 74.7943 146.013 74.9734 145.087L73.0097 144.707ZM79.5131 152.278C80.0641 151.904 80.5772 151.534 81.0466 151.172L79.8248 149.589C79.3921 149.923 78.9123 150.269 78.3893 150.624L79.5131 152.278ZM81.047 151.172C83.2281 149.487 84.1823 147.617 84.0273 145.793C83.8757 144.011 82.6876 142.596 81.2865 141.74C79.8853 140.883 78.0975 140.473 76.4906 140.858C74.8029 141.262 73.4328 142.523 73.0098 144.707L74.9733 145.087C75.2496 143.661 76.0436 143.022 76.9566 142.803C77.9504 142.565 79.1997 142.808 80.2437 143.446C81.2878 144.084 81.953 145.004 82.0345 145.963C82.1124 146.88 81.6794 148.156 79.8245 149.589L81.047 151.172ZM147.35 112.174C143.602 115.218 141.524 118.635 140.418 122.357L142.335 122.927C143.329 119.581 145.184 116.51 148.611 113.726L147.35 112.174ZM141.588 123.619C150.129 121.771 160.148 120.394 168.956 119.285C177.716 118.181 185.354 117.335 189.003 116.55L188.583 114.595C185.046 115.355 177.564 116.185 168.706 117.301C159.896 118.41 149.8 119.796 141.165 121.664L141.588 123.619ZM189.003 116.55C189.776 116.384 190.435 116.159 190.934 115.844C191.438 115.527 191.894 115.04 191.97 114.347C192.044 113.683 191.735 113.116 191.39 112.701C191.037 112.276 190.543 111.883 189.978 111.52C187.737 110.08 183.572 108.628 178.668 107.665C173.736 106.696 167.936 106.198 162.371 106.743C156.818 107.287 151.407 108.879 147.35 112.174L148.611 113.726C152.248 110.772 157.225 109.257 162.566 108.734C167.896 108.212 173.497 108.687 178.283 109.627C183.097 110.573 186.97 111.965 188.897 113.203C189.374 113.509 189.681 113.774 189.852 113.98C190.032 114.196 189.971 114.232 189.983 114.127C189.997 113.992 190.081 114.018 189.869 114.152C189.651 114.289 189.25 114.452 188.583 114.595L189.003 116.55ZM530.784 297.911C532.945 300.316 536.418 305.136 540.48 310.858C544.521 316.551 549.112 323.09 553.47 328.852C557.81 334.59 561.985 339.649 565.194 342.329C566.003 343.004 566.781 343.556 567.512 343.93C568.229 344.296 568.994 344.542 569.743 344.473C570.558 344.398 571.217 343.963 571.661 343.258C572.075 342.6 572.292 341.731 572.383 340.722L570.391 340.544C570.313 341.41 570.141 341.918 569.969 342.192C569.826 342.418 569.702 342.468 569.56 342.481C569.351 342.5 568.986 342.437 568.423 342.149C567.874 341.868 567.223 341.418 566.476 340.794C563.467 338.281 559.418 333.4 555.065 327.645C550.731 321.914 546.162 315.408 542.11 309.701C538.08 304.022 534.529 299.086 532.272 296.574L530.784 297.911ZM572.383 340.722C572.568 338.653 572.11 336.174 571.227 333.475C570.338 330.76 568.994 327.747 567.336 324.581C564.018 318.247 559.401 311.223 554.519 304.628C549.636 298.03 544.47 291.835 540.041 287.16C537.828 284.823 535.787 282.853 534.048 281.398C533.179 280.671 532.373 280.062 531.649 279.599C530.939 279.143 530.252 278.792 529.63 278.632L529.131 280.568C529.451 280.651 529.929 280.872 530.57 281.283C531.2 281.686 531.935 282.238 532.765 282.932C534.423 284.32 536.406 286.23 538.589 288.535C542.954 293.143 548.069 299.274 552.912 305.818C557.756 312.363 562.31 319.296 565.564 325.509C567.191 328.615 568.483 331.522 569.326 334.097C570.173 336.686 570.541 338.865 570.391 340.544L572.383 340.722ZM529.629 278.631C528.398 278.315 527.256 278.476 526.266 279.07C525.307 279.645 524.57 280.578 524.003 281.673C522.876 283.851 522.279 286.958 522.081 290.293L524.077 290.411C524.269 287.181 524.843 284.403 525.78 282.592C526.245 281.692 526.763 281.104 527.295 280.785C527.797 280.484 528.384 280.376 529.131 280.568L529.629 278.631ZM522.619 291.24C525.418 292.689 528.097 294.917 530.784 297.91L532.272 296.574C529.48 293.464 526.616 291.057 523.539 289.464L522.619 291.24ZM607.443 222.86C606.477 218.906 603.854 213.437 600.39 207.345C596.911 201.226 592.534 194.393 587.993 187.685C578.912 174.27 569.146 161.308 564.533 155.483L562.965 156.724C567.55 162.515 577.286 175.436 586.337 188.807C590.862 195.492 595.208 202.277 598.652 208.333C602.109 214.415 604.606 219.674 605.5 223.334L607.443 222.86ZM564.533 155.483C562.849 153.357 561.011 151.412 559.128 149.709L557.787 151.193C559.589 152.823 561.351 154.687 562.965 156.725L564.533 155.483ZM557.521 150.1C554.576 157.968 552.575 167.073 553.204 176.909L555.2 176.782C554.593 167.296 556.521 158.478 559.394 150.801L557.521 150.1ZM553.204 176.909C554.908 203.568 575.343 225.689 591.434 234.465L592.391 232.709C576.714 224.158 556.848 202.564 555.2 176.782L553.204 176.909ZM591.434 234.465C595.425 236.642 598.641 238.07 601.164 238.713C603.649 239.347 605.747 239.291 607.192 238.062C608.614 236.852 609.052 234.794 609 232.356C608.947 229.869 608.377 226.683 607.443 222.86L605.5 223.335C606.426 227.124 606.952 230.138 607 232.399C607.049 234.709 606.592 235.946 605.896 236.539C605.221 237.113 603.975 237.366 601.659 236.775C599.382 236.195 596.342 234.864 592.391 232.709L591.434 234.465ZM141.165 121.666C135.973 122.789 131.263 124.096 127.663 125.642C125.863 126.415 124.305 127.264 123.094 128.203C121.889 129.139 120.961 130.217 120.54 131.467L122.435 132.105C122.684 131.366 123.286 130.586 124.32 129.783C125.349 128.985 126.74 128.215 128.452 127.48C131.877 126.009 136.44 124.734 141.588 123.62L141.165 121.666ZM120.54 131.467C119.776 133.736 119.957 136.299 120.698 138.936C121.441 141.579 122.768 144.382 124.404 147.19C127.674 152.805 132.267 158.588 136.193 163.367L137.738 162.097C133.812 157.318 129.313 151.644 126.132 146.183C124.542 143.454 123.303 140.814 122.624 138.395C121.943 135.971 121.847 133.852 122.435 132.105L120.54 131.467ZM137.883 163.129C141.305 155.221 141.591 147.759 141.452 140.989C141.312 134.142 140.766 128.204 142.335 122.928L140.418 122.358C138.733 128.022 139.317 134.422 139.453 141.03C139.59 147.715 139.296 154.827 136.048 162.335L137.883 163.129ZM576.32 78.8254C576.622 77.3729 576.661 76.1396 576.394 75.1009C576.119 74.0296 575.533 73.2271 574.716 72.6449C573.928 72.0832 572.96 71.7513 571.938 71.5244C570.912 71.2967 569.751 71.1585 568.539 71.031C563.63 70.5143 557.469 70.1018 552.258 65.2515L550.895 66.7155C556.67 72.0907 563.532 72.515 568.33 73.02C569.544 73.1478 570.602 73.2766 571.505 73.4769C572.411 73.6781 573.081 73.9355 573.555 74.2736C574.001 74.5914 574.303 74.9995 574.457 75.5992C574.62 76.2315 574.63 77.1293 574.362 78.418L576.32 78.8254ZM552.258 65.2515C551.008 64.0878 550.289 62.8664 549.945 61.5941C549.599 60.3131 549.616 58.9173 549.935 57.3883C550.58 54.2905 552.419 50.8289 554.646 46.9949C556.843 43.2144 559.397 39.1039 561.283 34.8669C563.174 30.6194 564.449 26.133 564.029 21.5478L562.037 21.7303C562.413 25.8328 561.28 29.9551 559.456 34.0535C557.627 38.1623 555.157 42.1346 552.917 45.9902C550.708 49.7921 548.698 53.5196 547.977 56.9802C547.612 58.7303 547.566 60.456 548.014 62.1158C548.465 63.7842 549.399 65.3229 550.895 66.7155L552.258 65.2515ZM564.029 21.5478C563.815 19.2189 563.057 17.4389 561.681 16.3079C560.309 15.1797 558.506 14.8482 556.529 15.0162C552.625 15.348 547.498 17.6741 541.91 20.9498C530.676 27.5361 516.926 38.3699 506.101 46.5911L507.311 48.1838C518.203 39.9117 531.82 29.1835 542.922 22.6752C548.503 19.4035 553.286 17.299 556.699 17.009C558.38 16.8661 559.588 17.1758 560.411 17.8527C561.231 18.5266 561.852 19.7153 562.037 21.7303L564.029 21.5478ZM506.101 46.5911C495.067 54.971 489.583 64.2203 485.65 72.8759C484.669 75.0342 483.784 77.1561 482.937 79.2108C482.088 81.2704 481.279 83.2556 480.44 85.1656C478.763 88.9856 476.997 92.4365 474.655 95.4038L476.225 96.6429C478.724 93.4759 480.572 89.8418 482.272 85.9695C483.122 84.0333 483.942 82.0205 484.786 79.9732C485.632 77.9209 486.505 75.827 487.471 73.7034C491.32 65.2316 496.628 56.2972 507.311 48.1838L506.101 46.5911ZM474.655 95.4038C465.165 107.428 452.023 112.697 441.989 115.565L442.539 117.488C452.721 114.577 466.349 109.156 476.225 96.6429L474.655 95.4038ZM441.989 115.565C439.561 116.259 436.651 116.627 433.434 116.891C431.83 117.023 430.165 117.129 428.456 117.239C426.751 117.348 425.004 117.462 423.251 117.609C416.28 118.196 409.022 119.331 403.513 123.092L404.64 124.743C409.678 121.304 416.46 120.188 423.419 119.602C425.149 119.456 426.877 119.344 428.584 119.235C430.288 119.125 431.973 119.018 433.598 118.885C436.841 118.618 439.913 118.239 442.539 117.488L441.989 115.565ZM403.513 123.092C400.609 125.074 399.396 127.638 399.095 130.39C398.802 133.07 399.377 135.923 399.96 138.53C400.561 141.219 401.157 143.608 401.1 145.636C401.073 146.624 400.888 147.46 400.51 148.161C400.137 148.85 399.543 149.468 398.593 149.976L399.536 151.74C400.799 151.064 401.693 150.178 402.269 149.112C402.839 148.057 403.066 146.889 403.099 145.691C403.165 143.349 402.483 140.649 401.912 138.094C401.323 135.458 400.831 132.913 401.083 130.607C401.327 128.373 402.27 126.361 404.64 124.743L403.513 123.092ZM398.593 149.976C394.196 152.327 389.191 154.551 384.405 155.401C379.628 156.249 375.215 155.708 371.797 152.727L370.482 154.234C374.528 157.762 379.649 158.277 384.755 157.37C389.852 156.465 395.078 154.124 399.536 151.74L398.593 149.976ZM371.797 152.727C367.803 149.243 362.841 148.294 357.833 148.501C352.84 148.708 347.68 150.07 343.184 151.325L343.723 153.252C348.232 151.992 353.184 150.695 357.916 150.5C362.634 150.305 367.013 151.209 370.482 154.234L371.797 152.727ZM343.184 151.325C338.736 152.568 330.035 154.044 321.169 155.737C312.393 157.412 303.42 159.305 298.66 161.385L299.461 163.218C303.971 161.247 312.692 159.391 321.544 157.702C330.305 156.029 339.166 154.524 343.723 153.252L343.184 151.325ZM298.66 161.385C297.521 161.883 296.85 162.035 296.517 162.033C296.364 162.032 296.4 161.998 296.492 162.069C296.608 162.159 296.626 162.269 296.625 162.265C296.613 162.154 296.673 161.774 297.041 161.036C297.383 160.351 297.911 159.506 298.598 158.539C301.351 154.664 306.361 149.232 310.723 145.151L309.356 143.691C304.941 147.823 299.827 153.357 296.967 157.381C296.251 158.389 295.658 159.328 295.251 160.144C294.872 160.906 294.558 161.745 294.637 162.479C294.681 162.896 294.861 163.336 295.267 163.65C295.647 163.945 296.101 164.031 296.504 164.033C297.283 164.038 298.281 163.733 299.461 163.218L298.66 161.385ZM310.723 145.151C313.045 142.977 314.221 140.687 314.231 138.336C314.24 136 313.096 133.83 311.263 131.889C307.622 128.036 300.93 124.722 293.158 122.249L292.552 124.155C300.241 126.601 306.529 129.79 309.809 133.263C311.436 134.985 312.238 136.685 312.231 138.328C312.224 139.957 311.421 141.758 309.356 143.691L310.723 145.151ZM293.158 122.249C289.177 120.984 284.847 118.871 280.528 116.251L279.491 117.961C283.897 120.634 288.374 122.827 292.552 124.155L293.158 122.249ZM279.272 116.431C274.639 121.492 267.223 126.806 259.837 131.679C252.517 136.507 245.179 140.928 240.941 144.097L242.139 145.699C246.319 142.573 253.49 138.261 260.938 133.348C268.318 128.48 275.928 123.046 280.747 117.781L279.272 116.431ZM240.941 144.097C229.507 152.649 219.255 158.299 199.732 163.964L200.29 165.885C220.038 160.154 230.508 154.398 242.139 145.698L240.941 144.097ZM199.732 163.964C195.103 165.307 191.188 167.164 187.812 169.427L188.925 171.088C192.122 168.945 195.849 167.173 200.29 165.885L199.732 163.964ZM187.383 170.085C185.856 178.817 183.203 187.768 181.428 191.951L183.27 192.732C185.118 188.375 187.807 179.269 189.353 170.43L187.383 170.085ZM181.428 191.951C180.479 194.19 178.659 196.808 176.524 199.254C174.395 201.694 172.013 203.896 169.997 205.318C168.983 206.033 168.109 206.518 167.437 206.752C166.69 207.013 166.528 206.857 166.571 206.892C166.622 206.934 166.387 206.785 166.542 205.781C166.685 204.852 167.124 203.483 167.985 201.574L166.163 200.751C165.273 202.722 164.749 204.283 164.566 205.476C164.393 206.593 164.467 207.757 165.307 208.442C166.139 209.12 167.246 208.937 168.096 208.641C169.02 208.318 170.069 207.715 171.15 206.952C173.325 205.418 175.824 203.099 178.031 200.569C180.233 198.046 182.204 195.246 183.27 192.732L181.428 191.951ZM167.985 201.574C173.402 189.575 178.268 178.231 188.925 171.088L187.812 169.427C176.592 176.947 171.519 188.886 166.163 200.751L167.985 201.574ZM189.353 170.43C190.299 165.019 190.83 159.625 190.446 155.439C190.254 153.351 189.827 151.481 189.047 150.046C188.251 148.581 187.053 147.524 185.375 147.249L185.051 149.222C185.978 149.375 186.713 149.939 187.29 151.001C187.884 152.094 188.273 153.657 188.454 155.622C188.815 159.543 188.319 164.731 187.383 170.085L189.353 170.43ZM185.375 147.249C182.649 146.802 179.804 147.843 177.137 149.658C174.455 151.483 171.831 154.17 169.49 157.256C164.821 163.409 161.123 171.352 160.353 177.678L162.339 177.919C163.053 172.046 166.556 164.43 171.083 158.465C173.34 155.49 175.813 152.977 178.262 151.311C180.725 149.635 183.044 148.893 185.051 149.222L185.375 147.249ZM160.353 177.678C159.989 180.667 159.122 181.717 158.383 182.016C157.596 182.334 156.349 182.07 154.594 180.917C151.18 178.674 147.108 173.908 144.004 169.805L142.409 171.011C145.506 175.106 149.761 180.135 153.496 182.588C155.315 183.783 157.347 184.592 159.132 183.87C160.964 183.13 161.96 181.03 162.339 177.919L160.353 177.678ZM144.004 169.805C142.492 167.804 140.218 165.116 137.738 162.097L136.193 163.367C138.706 166.427 140.929 169.053 142.409 171.011L144.004 169.805ZM136.048 162.334C135.64 163.275 135.19 164.221 134.686 165.17L136.452 166.109C136.984 165.108 137.456 164.115 137.883 163.13L136.048 162.334ZM134.685 165.171C131.905 170.421 128.694 172.997 125.64 173.984C122.58 174.973 119.513 174.42 116.917 173.088C114.305 171.748 112.259 169.66 111.271 167.738C110.775 166.775 110.584 165.928 110.64 165.278C110.692 164.674 110.955 164.206 111.506 163.871L110.466 162.163C109.337 162.85 108.751 163.908 108.647 165.105C108.548 166.256 108.893 167.487 109.492 168.652C110.692 170.987 113.062 173.358 116.003 174.867C118.96 176.385 122.581 177.074 126.255 175.887C129.934 174.698 133.501 171.68 136.453 166.108L134.685 165.171ZM111.506 163.871C112.395 163.33 113.099 162.78 113.604 162.216C114.108 161.653 114.459 161.022 114.533 160.332C114.691 158.856 113.576 157.835 112.392 157.202C109.956 155.898 105.557 155.257 100.943 155.342L100.98 157.341C105.507 157.259 109.478 157.911 111.448 158.965C112.468 159.51 112.564 159.934 112.544 160.119C112.529 160.259 112.443 160.513 112.113 160.883C111.784 161.251 111.256 161.682 110.466 162.163L111.506 163.871ZM100.943 155.342C98.0921 155.394 94.1781 154.985 90.22 154.162C86.2576 153.337 82.3284 152.112 79.4202 150.568L78.4822 152.334C81.622 154.001 85.7539 155.275 89.8126 156.12C93.8757 156.965 97.9428 157.397 100.98 157.341L100.943 155.342ZM78.3903 150.623C73.9599 153.625 66.6059 157.064 58.5092 158.597C50.4104 160.13 41.6972 159.736 34.4189 155.252L33.3698 156.954C41.2257 161.794 50.5038 162.148 58.8813 160.562C67.2609 158.975 74.8681 155.426 79.5121 152.279L78.3903 150.623ZM34.4189 155.252C31.6027 153.517 29.9913 151.491 29.1845 149.326C28.3725 147.146 28.3399 144.728 28.8537 142.161C29.8901 136.983 33.0865 131.465 36.0279 126.631L34.3193 125.591C31.4061 130.379 28.0091 136.19 26.8926 141.768C26.3301 144.579 26.3312 147.396 27.3104 150.024C28.2948 152.666 30.2322 155.021 33.3698 156.954L34.4189 155.252ZM36.1346 125.834C35.3626 123.15 35.0371 120.733 34.8905 119.062L32.8981 119.237C33.0523 120.994 33.395 123.545 34.2126 126.387L36.1346 125.834ZM34.8905 119.062C34.7896 117.905 35.1909 116.809 35.8604 115.906C36.5377 114.993 37.4364 114.351 38.1975 114.09C39.0099 113.81 39.2715 114.042 39.3462 114.159C39.4223 114.279 39.5245 114.553 39.4923 115.099C39.4604 115.641 39.2986 116.384 38.9264 117.363L40.7959 118.074C41.2131 116.977 41.4411 116.026 41.4889 115.216C41.5364 114.41 41.4083 113.674 41.0334 113.085C40.2063 111.786 38.684 111.807 37.5468 112.198C36.3582 112.607 35.1414 113.518 34.254 114.715C33.3588 115.922 32.746 117.493 32.8981 119.236L34.8905 119.062ZM38.9263 117.364C38.157 119.389 36.38 122.202 34.3191 125.591L36.0281 126.63C38.0199 123.354 39.9423 120.321 40.796 118.074L38.9263 117.364ZM34.2127 126.388C36.1652 133.166 40.8692 141.703 52.2397 144.907L52.782 142.982C42.3186 140.034 37.9769 132.23 36.1345 125.834L34.2127 126.388ZM52.2397 144.907C54.3213 145.493 56.1567 145.504 57.7493 144.976C59.3459 144.447 60.6033 143.407 61.5791 142.057C63.4978 139.403 64.3969 135.458 64.78 131.346C65.5493 123.09 64.2846 113.398 64.0092 110.009L62.0157 110.171C62.3036 113.714 63.5366 123.132 62.7886 131.161C62.4129 135.192 61.5496 138.684 59.9583 140.885C59.1792 141.963 58.2448 142.705 57.1198 143.078C55.9907 143.452 54.5746 143.486 52.782 142.981L52.2397 144.907ZM64.0092 110.009C63.7306 106.58 63.2673 100.86 60.7113 96.4021C59.4165 94.1438 57.5658 92.1716 54.9111 90.9899C52.2601 89.8099 48.9075 89.4627 44.6848 90.2731L45.0618 92.2372C48.9885 91.4836 51.9077 91.8421 54.0978 92.817C56.2842 93.7903 57.844 95.4222 58.9762 97.3969C61.2742 101.405 61.731 106.666 62.0157 110.171L64.0092 110.009ZM44.6848 90.2731C40.4549 91.0848 37.3122 92.6417 34.7444 94.7694C32.1934 96.8832 30.2516 99.527 28.3817 102.436C24.6239 108.281 21.0947 115.263 13.413 122.223L14.7559 123.705C22.6906 116.515 26.4063 109.207 30.0641 103.517C31.902 100.658 33.7106 98.2234 36.0205 96.3094C38.3136 94.4094 41.1422 92.9894 45.0618 92.2372L44.6848 90.2731ZM13.413 122.223C5.78275 129.136 -1.2638 131.344 -7.87244 132.475C-9.53471 132.76 -11.1702 132.976 -12.7922 133.183C-14.408 133.388 -16.0182 133.585 -17.5986 133.828C-20.7637 134.315 -23.8774 134.995 -26.9007 136.357L-26.0793 138.18C-23.2956 136.927 -20.3861 136.28 -17.2948 135.805C-15.747 135.567 -14.1707 135.374 -12.5395 135.167C-10.9145 134.96 -9.24265 134.739 -7.53501 134.446C-0.663979 133.27 6.76978 130.941 14.7559 123.705L13.413 122.223ZM-26.9007 136.357C-29.4016 137.483 -30.8873 139.191 -31.4231 141.265C-31.9475 143.294 -31.5187 145.506 -30.5567 147.605L-28.7386 146.772C-29.5881 144.918 -29.8563 143.195 -29.4867 141.765C-29.1288 140.38 -28.1298 139.104 -26.0793 138.18L-26.9007 136.357ZM-29.7269 148.186C-27.116 148.393 -24.6192 148.597 -22.4424 148.596C-20.285 148.595 -18.3043 148.398 -16.7757 147.719L-17.5877 145.891C-18.7157 146.392 -20.3437 146.595 -22.443 146.596C-24.5229 146.596 -26.9309 146.402 -29.5684 146.192L-29.7269 148.186ZM-16.7757 147.719C-15.4071 147.111 -13.8999 147.327 -12.4642 148.14C-11.0201 148.959 -9.744 150.337 -8.96808 151.835C-8.18087 153.353 -7.99449 154.813 -8.41506 155.861C-8.80099 156.824 -9.83309 157.754 -12.2575 157.968L-12.0817 159.96C-9.18609 159.704 -7.31622 158.494 -6.55883 156.606C-5.83608 154.804 -6.26503 152.704 -7.19239 150.914C-8.13103 149.103 -9.66875 147.425 -11.4783 146.4C-13.2962 145.37 -15.4825 144.956 -17.5878 145.891L-16.7757 147.719ZM-12.2577 157.968C-15.1658 158.225 -18.5965 156.951 -21.705 154.772C-24.8007 152.603 -27.4196 149.645 -28.7388 146.772L-30.5564 147.606C-29.0594 150.867 -26.1745 154.083 -22.8528 156.41C-19.544 158.729 -15.6438 160.275 -12.0815 159.96L-12.2577 157.968ZM-29.5686 146.192C-33.7962 145.857 -38.5718 145.488 -43.1722 145.92C-47.7788 146.353 -52.3058 147.595 -55.9952 150.555L-54.7437 152.115C-51.4734 149.491 -47.3795 148.324 -42.9852 147.911C-38.5845 147.498 -33.9791 147.849 -29.7267 148.186L-29.5686 146.192ZM-55.9951 150.555C-58.9148 152.896 -60.7846 155.305 -61.9411 157.766C-63.0967 160.225 -63.5149 162.683 -63.6038 165.087C-63.692 167.47 -63.4555 169.849 -63.2829 172.093C-63.108 174.368 -62.9962 176.526 -63.2818 178.617L-61.3002 178.887C-60.9831 176.566 -61.1135 174.221 -61.2888 171.94C-61.4665 169.629 -61.688 167.399 -61.6052 165.161C-61.5232 162.943 -61.1414 160.767 -60.131 158.616C-59.1214 156.468 -57.4592 154.293 -54.7438 152.115L-55.9951 150.555ZM-63.2818 178.617C-63.5465 180.555 -64.3797 181.904 -65.6915 183.24C-66.361 183.921 -67.1482 184.592 -68.0555 185.338C-68.9524 186.076 -69.9684 186.889 -71.0383 187.818C-75.3802 191.589 -80.6721 197.329 -85.1877 209.64L-83.3101 210.328C-78.9208 198.362 -73.8364 192.897 -69.7268 189.328C-68.6839 188.422 -67.7074 187.641 -66.7851 186.883C-65.8732 186.133 -65.0146 185.405 -64.2647 184.641C-62.7378 183.087 -61.638 181.361 -61.3002 178.887L-63.2818 178.617ZM-85.1877 209.64C-89.8144 222.253 -84.6889 231.643 -79.6369 239.985C-74.5069 248.457 -69.6798 255.615 -73.2426 264.444L-71.3879 265.193C-67.3776 255.254 -72.9698 247.134 -77.9261 238.949C-82.9605 230.636 -87.5883 221.992 -83.3101 210.328L-85.1877 209.64ZM-73.2426 264.444C-75.1633 269.204 -77.561 272.281 -80.2641 274.254C-82.9673 276.227 -86.055 277.154 -89.4553 277.479C-92.8707 277.805 -96.5582 277.522 -100.44 277.104C-104.291 276.69 -108.351 276.14 -112.372 275.978L-112.452 277.977C-108.521 278.135 -104.58 278.67 -100.654 279.093C-96.761 279.512 -92.8987 279.817 -89.2649 279.47C-85.6159 279.121 -82.1551 278.11 -79.085 275.87C-76.0149 273.629 -73.4148 270.215 -71.3879 265.193L-73.2426 264.444ZM-112.372 275.978C-116.627 275.807 -119.578 277.298 -121.277 279.985C-122.925 282.59 -123.273 286.133 -122.823 289.862C-121.92 297.333 -117.731 306.208 -112.673 311.745L-111.197 310.396C-115.985 305.154 -119.986 296.663 -120.837 289.622C-121.264 286.096 -120.879 283.097 -119.587 281.054C-118.346 279.092 -116.15 277.828 -112.452 277.977L-112.372 275.978ZM-112.673 311.745C-107.782 317.1 -104.497 321.347 -101.781 327.073C-99.0551 332.824 -96.8814 340.113 -94.294 351.582L-92.343 351.142C-94.9371 339.643 -97.1491 332.175 -99.9743 326.216C-102.811 320.234 -106.243 315.819 -111.197 310.396L-112.673 311.745ZM-94.294 351.582C-92.9879 357.371 -91.3031 360.918 -89.3685 362.781C-88.3794 363.733 -87.3037 364.265 -86.1819 364.391C-85.0678 364.517 -84.0078 364.232 -83.0591 363.727C-81.1934 362.733 -79.615 360.816 -78.5311 358.919C-77.9814 357.957 -77.5386 356.965 -77.2391 356.041C-76.9444 355.133 -76.7676 354.227 -76.806 353.458L-78.8035 353.557C-78.7822 353.985 -78.8835 354.629 -79.1415 355.424C-79.3946 356.204 -79.779 357.071 -80.2677 357.927C-81.2606 359.665 -82.604 361.219 -83.999 361.961C-84.6806 362.324 -85.3355 362.474 -85.9578 362.404C-86.5723 362.334 -87.2544 362.04 -87.9814 361.34C-89.4786 359.899 -91.0583 356.837 -92.343 351.142L-94.294 351.582ZM-76.806 353.458C-76.9233 351.104 -76.9525 344.409 -75.7971 338.569C-75.2168 335.635 -74.3584 333.031 -73.1452 331.296C-72.5456 330.438 -71.8884 329.835 -71.1767 329.488C-70.4797 329.148 -69.6697 329.023 -68.6908 329.217L-68.3021 327.255C-69.6819 326.982 -70.9393 327.147 -72.0534 327.69C-73.1528 328.226 -74.0503 329.1 -74.7843 330.15C-76.2382 332.229 -77.1619 335.162 -77.7591 338.181C-78.9589 344.246 -78.9249 351.122 -78.8035 353.557L-76.806 353.458ZM-68.5947 329.231C-61.0538 329.975 -55.629 330.101 -51.7569 329.825C-47.917 329.551 -45.4777 328.874 -44.0209 327.904C-43.2728 327.405 -42.7563 326.81 -42.4707 326.133C-42.1853 325.457 -42.1644 324.78 -42.2722 324.173C-42.479 323.009 -43.1821 321.997 -43.5824 321.448L-45.1985 322.626C-44.7993 323.174 -44.3598 323.856 -44.2414 324.523C-44.1865 324.832 -44.2075 325.105 -44.3133 325.356C-44.4188 325.606 -44.643 325.915 -45.13 326.239C-46.1434 326.915 -48.1525 327.562 -51.8993 327.83C-55.6141 328.095 -60.9146 327.979 -68.3983 327.241L-68.5947 329.231ZM-43.5824 321.448C-44.4646 320.238 -46.8188 317.866 -47.3575 313.868C-47.887 309.938 -46.6508 304.213 -39.5946 296.486L-41.0714 295.138C-48.381 303.142 -49.9731 309.433 -49.3396 314.135C-48.7155 318.767 -45.9154 321.643 -45.1985 322.626L-43.5824 321.448ZM-39.5946 296.486C-37.8841 294.613 -36.227 293.517 -34.5852 292.993C-32.9505 292.471 -31.2491 292.49 -29.3998 292.982C-25.6312 293.986 -21.3962 296.907 -16.213 300.958C-5.94296 308.984 7.60341 321.079 27.319 328.927L28.0587 327.068C8.67479 319.353 -4.6069 307.49 -14.9815 299.382C-20.1207 295.365 -24.662 292.174 -28.8851 291.05C-31.0316 290.478 -33.1298 290.429 -35.1935 291.088C-37.2502 291.744 -39.1905 293.078 -41.0714 295.138L-39.5946 296.486ZM27.319 328.927C37.2335 332.873 44.6385 333.234 50.5197 331.553C56.3891 329.876 60.5876 326.207 64.1547 322.418C65.903 320.561 67.6147 318.544 69.1901 316.827C70.8091 315.061 72.3852 313.494 74.0614 312.288C75.7288 311.088 77.4751 310.261 79.4343 309.955C81.3917 309.649 83.631 309.852 86.3007 310.819L86.9815 308.938C84.0507 307.877 81.4692 307.612 79.1254 307.979C76.7835 308.345 74.7482 309.33 72.8933 310.665C71.0473 311.993 69.3606 313.682 67.7161 315.475C66.0279 317.316 64.4753 319.16 62.6984 321.047C59.2151 324.747 55.3196 328.102 49.9702 329.63C44.6326 331.155 37.6939 330.904 28.0587 327.068L27.319 328.927ZM86.3006 310.819C97.2873 314.798 109.285 324.095 120.892 336.158C132.482 348.203 143.608 362.927 152.862 377.643L154.555 376.578C145.242 361.769 134.035 346.933 122.334 334.772C110.65 322.629 98.3967 313.072 86.9816 308.938L86.3006 310.819ZM152.862 377.643C162.375 392.77 176.153 398.419 191.252 398.307C206.287 398.197 222.635 392.385 237.509 384.654L236.587 382.879C221.835 390.547 205.816 396.2 191.238 396.307C176.725 396.414 163.646 391.035 154.555 376.578L152.862 377.643ZM237.509 384.654C244.642 380.947 250.863 380.283 256.56 381.395C262.29 382.513 267.57 385.442 272.783 389.066C275.387 390.877 277.954 392.847 280.547 394.837C283.132 396.822 285.743 398.827 288.406 400.683C293.726 404.392 299.329 407.561 305.541 408.845L305.945 406.886C300.128 405.684 294.79 402.696 289.549 399.043C286.931 397.217 284.357 395.241 281.764 393.25C279.178 391.265 276.574 389.266 273.925 387.424C268.631 383.743 263.079 380.629 256.943 379.432C250.773 378.228 244.094 378.978 236.587 382.879L237.509 384.654ZM305.541 408.845C311.803 410.138 317.992 409.033 324.058 406.807C330.112 404.586 336.126 401.216 342.033 397.916C347.972 394.598 353.801 391.351 359.596 389.266C365.378 387.185 371.038 386.296 376.638 387.62L377.098 385.674C370.987 384.229 364.909 385.228 358.919 387.384C352.941 389.535 346.965 392.87 341.058 396.17C335.119 399.488 329.247 402.773 323.369 404.929C317.503 407.082 311.713 408.078 305.945 406.886L305.541 408.845ZM376.638 387.62C385.49 389.713 392.165 389.551 397.161 387.847C402.188 386.133 405.424 382.887 407.425 379.02C411.378 371.382 410.51 361.336 409.598 355.731L407.624 356.052C408.531 361.622 409.279 371.087 405.649 378.1C403.859 381.558 401.004 384.423 396.516 385.954C391.997 387.496 385.733 387.715 377.098 385.674L376.638 387.62ZM409.598 355.731C408.737 350.442 410.497 343.894 413.882 339.085C417.27 334.271 422.046 331.488 427.182 333.009L427.75 331.092C421.44 329.223 415.879 332.773 412.247 337.934C408.611 343.1 406.666 350.167 407.624 356.052L409.598 355.731ZM427.182 333.009C429.858 333.802 433.128 335.911 437.021 338.688C440.857 341.426 445.243 344.77 450.002 347.826C459.522 353.938 470.857 359.121 483.292 356.392L482.863 354.438C471.239 356.99 460.493 352.185 451.083 346.143C446.378 343.122 442.087 339.846 438.182 337.06C434.334 334.314 430.799 331.994 427.75 331.092L427.182 333.009ZM483.292 356.392C495.198 353.778 503.578 355.165 508.447 358.885C513.243 362.549 514.911 368.703 512.899 376.38L514.833 376.887C516.983 368.688 515.286 361.593 509.662 357.296C504.111 353.055 495.015 351.771 482.863 354.438L483.292 356.392ZM512.899 376.38C510.792 384.416 510.192 393.051 511.54 399.551C512.213 402.797 513.393 405.61 515.212 407.529C517.074 409.493 519.551 410.457 522.592 410.048L522.325 408.066C519.923 408.389 518.084 407.652 516.664 406.153C515.201 404.611 514.133 402.203 513.498 399.145C512.231 393.035 512.778 384.726 514.833 376.887L512.899 376.38ZM522.592 410.048C525.765 409.622 528.593 406.954 531.003 403.364C533.449 399.721 535.626 394.884 537.423 389.659C541.011 379.224 543.158 367.002 542.79 359.182L540.792 359.276C541.145 366.763 539.068 378.723 535.531 389.009C533.765 394.145 531.655 398.804 529.343 402.249C526.995 405.747 524.595 407.761 522.325 408.066L522.592 410.048ZM542.79 359.182C542.422 351.366 539.314 340.835 535.846 331.136C532.367 321.408 528.476 312.389 526.485 307.588L524.637 308.354C526.641 313.185 530.505 322.142 533.962 331.809C537.429 341.504 540.439 351.787 540.792 359.276L542.79 359.182ZM526.485 307.588C524.657 303.183 523.731 296.261 524.077 290.411L522.081 290.293C521.721 296.359 522.665 303.599 524.637 308.354L526.485 307.588ZM523.539 289.464C516.612 285.877 508.9 286.557 499.073 291.832L500.019 293.594C509.514 288.498 516.491 288.066 522.619 291.24L523.539 289.464ZM499.073 291.831C495.727 293.626 493.386 293.646 491.697 292.748C489.946 291.817 488.574 289.74 487.571 286.617C485.57 280.388 485.302 270.864 485.509 261.503L483.51 261.459C483.304 270.786 483.549 280.636 485.667 287.229C486.723 290.518 488.312 293.214 490.758 294.514C493.267 295.848 496.36 295.556 500.018 293.594L499.073 291.831ZM485.509 261.503C485.714 252.211 486.781 244.293 490.274 237.145C493.759 230.014 499.709 223.55 509.857 217.272L508.805 215.571C498.421 221.995 492.167 228.716 488.477 236.267C484.795 243.801 483.717 252.062 483.51 261.459L485.509 261.503ZM509.857 217.272C520.447 210.72 523.923 201.741 524.911 193.353C525.403 189.182 525.281 185.153 525.128 181.663C524.972 178.114 524.796 175.241 525.117 173.185L523.141 172.876C522.78 175.185 522.979 178.33 523.129 181.751C523.282 185.231 523.396 189.121 522.925 193.119C521.989 201.069 518.748 209.419 508.805 215.571L509.857 217.272ZM525.117 173.185C525.417 171.269 526.506 169.443 528.1 167.578C529.697 165.708 531.701 163.908 533.743 161.988C535.756 160.096 537.793 158.096 539.311 155.908C540.838 153.706 541.883 151.254 541.836 148.457L539.836 148.491C539.874 150.737 539.044 152.783 537.668 154.768C536.282 156.765 534.388 158.637 532.373 160.531C530.388 162.399 528.268 164.302 526.579 166.279C524.886 168.26 523.524 170.426 523.141 172.876L525.117 173.185ZM541.836 148.457C541.804 146.558 542.317 145.528 542.974 144.997C543.647 144.452 544.724 144.222 546.265 144.485C549.36 145.013 553.629 147.432 557.787 151.193L559.128 149.709C554.854 145.843 550.243 143.135 546.601 142.513C544.773 142.201 543.017 142.389 541.716 143.442C540.4 144.507 539.799 146.253 539.836 148.491L541.836 148.457ZM559.394 150.801C564.354 137.553 572.087 128.071 574.407 123.929L572.662 122.952C570.585 126.659 562.538 136.699 557.521 150.1L559.394 150.801ZM574.407 123.929C576.705 119.825 577.634 116.641 577.772 113.708C577.909 110.801 577.259 108.219 576.56 105.413C575.174 99.8458 573.409 92.8112 576.32 78.8255L574.362 78.4179C571.369 92.7961 573.189 100.153 574.619 105.896C575.329 108.745 575.895 111.047 575.774 113.614C575.655 116.157 574.853 119.039 572.662 122.952L574.407 123.929ZM285.716 106.056C284.95 102.646 282.025 99.3838 278.421 96.6028C274.776 93.7899 270.256 91.332 265.994 89.5776C261.76 87.8347 257.657 86.7346 254.862 86.7415C253.52 86.7449 252.148 87.0015 251.365 87.9386C250.491 88.9841 250.71 90.3709 251.389 91.7077L253.172 90.8026C252.605 89.6843 252.819 89.3176 252.899 89.2216C253.07 89.0172 253.613 88.7446 254.867 88.7415C257.262 88.7356 261.072 89.7142 265.232 91.4271C269.366 93.1284 273.723 95.5035 277.2 98.1862C280.718 100.901 283.159 103.797 283.764 106.494L285.716 106.056ZM251.389 91.7077C253.302 95.4781 257.29 100.189 262.269 104.851C267.266 109.53 273.336 114.228 279.491 117.961L280.528 116.251C274.501 112.595 268.54 107.983 263.636 103.391C258.713 98.7814 254.927 94.2608 253.172 90.8026L251.389 91.7077ZM280.747 117.781C284.267 113.937 286.577 109.884 285.716 106.056L283.764 106.495C284.388 109.265 282.755 112.627 279.272 116.431L280.747 117.781ZM382.329 116.074C387.455 114.973 390.214 112.385 392.16 109.579C393.108 108.211 393.877 106.768 394.602 105.508C395.344 104.217 396.049 103.097 396.918 102.204L395.483 100.81C394.428 101.897 393.618 103.206 392.868 104.511C392.101 105.845 391.401 107.163 390.516 108.439C388.797 110.919 386.44 113.146 381.909 114.119L382.329 116.074ZM396.918 102.204C397.481 101.624 397.899 100.953 397.967 100.206C398.04 99.4079 397.699 98.7295 397.162 98.2214C396.649 97.7357 395.938 97.3797 395.136 97.1167C394.322 96.8498 393.347 96.6572 392.243 96.5387C387.845 96.0663 381.016 96.7288 373.002 99.1182L373.574 101.035C381.424 98.6941 387.975 98.0918 392.029 98.5272C393.038 98.6356 393.868 98.8057 394.513 99.0171C395.17 99.2324 395.572 99.4703 395.787 99.6739C395.978 99.855 395.981 99.9613 395.975 100.023C395.965 100.136 395.882 100.4 395.483 100.81L396.918 102.204ZM373.002 99.1181C368.938 100.33 366.52 102.121 365.686 104.359C364.835 106.642 365.785 108.948 367.394 110.791C369.017 112.651 371.458 114.234 374.099 115.222C376.739 116.21 379.685 116.642 382.329 116.074L381.909 114.119C379.742 114.584 377.196 114.245 374.8 113.349C372.405 112.453 370.265 111.038 368.9 109.476C367.522 107.897 367.076 106.356 367.56 105.057C368.061 103.713 369.707 102.187 373.573 101.035L373.002 99.1181ZM499.724 32.3393C500.339 31.1111 500.76 29.8516 500.949 28.6756C501.135 27.5123 501.104 26.3599 500.733 25.3936C500.348 24.3875 499.593 23.5974 498.451 23.2993C497.365 23.0159 496.072 23.2147 494.627 23.8158L495.395 25.6625C496.636 25.1466 497.452 25.1055 497.946 25.2345C498.383 25.3486 498.68 25.6231 498.866 26.1088C499.067 26.6343 499.127 27.4012 498.974 28.3596C498.822 29.3052 498.473 30.37 497.935 31.4437L499.724 32.3393ZM494.627 23.8158C491.615 25.068 490.076 27.2854 489.755 29.97C489.445 32.5677 490.285 35.4975 491.735 38.3101L493.513 37.3935C492.152 34.7536 491.498 32.244 491.741 30.207C491.974 28.2569 493.034 26.6442 495.395 25.6625L494.627 23.8158ZM491.735 38.3103C492.099 39.0152 492.467 39.5845 492.857 39.9981C493.242 40.4074 493.731 40.7519 494.334 40.809C494.962 40.8685 495.475 40.5961 495.846 40.2704C496.207 39.9541 496.504 39.53 496.757 39.0965C497.261 38.2295 497.735 37.0535 498.202 35.8834C498.683 34.6806 499.17 33.4439 499.724 32.3395L497.936 31.4435C497.336 32.6397 496.815 33.9639 496.345 35.1419C495.862 36.3525 495.443 37.3772 495.028 38.0905C494.821 38.4472 494.651 38.6582 494.527 38.767C494.414 38.8662 494.425 38.8087 494.523 38.8179C494.595 38.8248 494.526 38.8539 494.313 38.6277C494.104 38.4057 493.836 38.0193 493.513 37.3932L491.735 38.3103ZM99.5226 147.567C100.191 147.572 100.831 147.443 101.333 147.071C101.872 146.672 102.113 146.096 102.141 145.515C102.167 144.97 102.01 144.423 101.788 143.935C101.562 143.437 101.24 142.938 100.86 142.466C100.103 141.528 99.0547 140.626 97.8947 140.021C96.7451 139.422 95.3734 139.06 94.0334 139.399L94.5242 141.338C95.2141 141.163 96.0653 141.323 96.9704 141.795C97.8651 142.261 98.7034 142.979 99.3032 143.722C99.6016 144.092 99.8253 144.449 99.9675 144.762C100.114 145.086 100.148 145.305 100.143 145.419C100.141 145.47 100.131 145.483 100.135 145.476C100.14 145.466 100.147 145.461 100.142 145.464C100.122 145.48 99.9719 145.57 99.5366 145.567L99.5226 147.567ZM94.0334 139.399C93.4151 139.556 92.8678 139.816 92.4622 140.223C92.0378 140.65 91.8273 141.18 91.8116 141.738C91.7827 142.766 92.4068 143.755 93.113 144.52C94.5587 146.086 97.1335 147.549 99.522 147.567L99.5372 145.567C97.8348 145.555 95.7543 144.432 94.5824 143.163C93.9797 142.511 93.8044 142.021 93.8108 141.794C93.8127 141.726 93.8285 141.686 93.8798 141.634C93.9499 141.564 94.1275 141.438 94.5242 141.338L94.0334 139.399ZM197.402 72.9444C200.16 72.8984 201.876 71.4205 202.642 69.869C203.013 69.1183 203.185 68.3031 203.097 67.6002C203.052 67.2491 202.934 66.8584 202.67 66.5319C202.384 66.1786 201.964 65.9509 201.469 65.9382L201.418 67.9376C201.297 67.9345 201.178 67.8679 201.115 67.7896C201.073 67.7382 201.098 67.7363 201.112 67.8502C201.141 68.0774 201.09 68.4967 200.849 68.983C200.394 69.9057 199.332 70.912 197.369 70.9447L197.402 72.9444ZM201.469 65.9382C200.009 65.901 190.908 65.2132 185.296 64.7493L185.131 66.7425C190.708 67.2035 199.885 67.8985 201.418 67.9376L201.469 65.9382ZM185.296 64.7493C184.907 64.7171 184.552 64.7133 184.239 64.7461C183.936 64.7777 183.607 64.8498 183.315 65.0169C182.998 65.1989 182.71 65.5077 182.617 65.9524C182.532 66.3581 182.644 66.7193 182.765 66.9705C182.999 67.4568 183.45 67.9125 183.926 68.3073C184.429 68.7241 185.066 69.1576 185.792 69.5822C188.661 71.2611 193.285 73.0116 197.402 72.9444L197.369 70.9447C193.741 71.0039 189.482 69.4237 186.802 67.856C186.141 67.4691 185.599 67.0962 185.202 66.7671C184.778 66.4162 184.607 66.1866 184.567 66.1036C184.551 66.0701 184.613 66.1757 184.574 66.3615C184.527 66.5865 184.381 66.7114 184.31 66.7523C184.264 66.7783 184.286 66.7521 184.447 66.7352C184.598 66.7194 184.82 66.7168 185.131 66.7425L185.296 64.7493ZM184.785 63.1679C185.565 63.1291 186.241 63.004 186.756 62.7368C187.317 62.4457 187.764 61.9299 187.773 61.2072C187.781 60.5989 187.466 60.0773 187.166 59.7067C186.845 59.3107 186.417 58.9352 185.949 58.5973C185.011 57.9197 183.784 57.3012 182.569 56.9166C181.393 56.5445 180.04 56.3312 178.938 56.6879L179.554 58.5907C180.051 58.43 180.907 58.4883 181.966 58.8234C182.985 59.1461 184.019 59.6705 184.778 60.2188C185.159 60.4936 185.439 60.7518 185.612 60.9658C185.806 61.2053 185.772 61.2703 185.773 61.181C185.776 60.9773 185.928 60.913 185.835 60.9616C185.695 61.0341 185.356 61.137 184.686 61.1703L184.785 63.1679ZM178.938 56.6879C177.945 57.0094 177.124 57.6648 176.999 58.7015C176.884 59.6526 177.42 60.5054 178.066 61.1186C179.398 62.3821 181.857 63.3131 184.785 63.1679L184.686 61.1703C182.18 61.2946 180.297 60.4779 179.443 59.6679C178.997 59.2443 178.98 58.9788 178.984 58.9415C178.985 58.938 178.984 58.9126 179.04 58.8576C179.107 58.7925 179.257 58.687 179.554 58.5907L178.938 56.6879ZM171.301 58.8756C173.451 59.0254 174.827 58.2767 175.524 57.0698C176.154 55.9776 176.092 54.731 175.919 54.0548L173.981 54.5489C174.069 54.8932 174.083 55.5646 173.791 56.0704C173.566 56.4614 173.022 56.9906 171.44 56.8805L171.301 58.8756ZM175.919 54.0548C175.826 53.689 175.6 53.3911 175.402 53.1775C175.187 52.9459 174.916 52.7188 174.61 52.5004C173.995 52.0623 173.16 51.6055 172.145 51.1763C170.108 50.316 167.264 49.5335 163.814 49.2522L163.651 51.2456C166.898 51.5103 169.533 52.2441 171.366 53.0186C172.285 53.4069 172.983 53.7972 173.449 54.1294C173.683 54.2961 173.84 54.435 173.935 54.5368C174.046 54.6567 174.009 54.6597 173.981 54.5489L175.919 54.0548ZM163.814 49.2522C162.936 49.1806 162.146 49.2236 161.551 49.5052C161.23 49.6574 160.928 49.8981 160.737 50.2574C160.546 50.6163 160.519 50.9929 160.568 51.321C160.659 51.926 161.025 52.5015 161.408 52.978C161.813 53.4834 162.346 54.007 162.94 54.5167C164.13 55.5376 165.651 56.5733 167.128 57.3746C168.569 58.156 170.107 58.7924 171.301 58.8756L171.44 56.8805C170.701 56.829 169.482 56.3762 168.082 55.6166C166.718 54.8768 165.316 53.9197 164.242 52.9987C163.704 52.5375 163.27 52.1029 162.967 51.7257C162.641 51.3196 162.556 51.0881 162.546 51.0245C162.545 51.0183 162.556 51.0952 162.502 51.1969C162.448 51.2989 162.382 51.3248 162.408 51.3126C162.507 51.2654 162.855 51.1807 163.651 51.2456L163.814 49.2522ZM410.298 96.5136C412.11 96.0364 412.934 94.6267 413.271 93.1119C413.597 91.6473 413.52 89.8939 413.429 88.3354L411.432 88.453C411.526 90.0535 411.574 91.5293 411.319 92.6777C411.074 93.7759 410.612 94.3629 409.789 94.5795L410.298 96.5136ZM413.429 88.3354C413.396 87.7745 413.21 87.1923 412.719 86.7893C412.239 86.3958 411.656 86.3297 411.17 86.3702C410.234 86.4481 409.111 86.9645 408.016 87.5936C405.762 88.889 403.007 91.0385 400.811 92.8715L402.092 94.407C404.278 92.5827 406.92 90.5302 409.013 89.3277C410.091 88.7078 410.879 88.4013 411.336 88.3633C411.545 88.3459 411.527 88.3986 411.451 88.3358C411.363 88.2636 411.419 88.2241 411.432 88.453L413.429 88.3354ZM400.811 92.8715C400.226 93.3592 399.768 93.8311 399.467 94.2928C399.172 94.744 398.945 95.3172 399.084 95.933C399.229 96.5735 399.699 96.9616 400.137 97.1807C400.572 97.3979 401.094 97.5148 401.625 97.5778C403.724 97.8269 407.116 97.3499 410.298 96.5137L409.789 94.5794C406.675 95.3977 403.579 95.7957 401.861 95.5918C401.438 95.5415 401.173 95.4623 401.031 95.3916C400.894 95.3229 400.999 95.3316 401.035 95.4927C401.066 95.6289 400.987 95.6225 401.142 95.3854C401.29 95.1587 401.581 94.8336 402.092 94.407L400.811 92.8715Z" fill="#FF78FD" mask="url(#path-1-outside-1_648_2814)"/>
</g>
<path d="M433.495 184.6C431.139 184.6 428.88 183.665 427.215 182.001C425.549 180.336 424.614 178.079 424.614 175.725C424.614 173.371 425.549 171.114 427.215 169.449C428.88 167.785 431.139 166.85 433.495 166.85C435.85 166.85 438.109 167.785 439.774 169.449C441.44 171.114 442.375 173.371 442.375 175.725C442.375 176.89 442.146 178.045 441.699 179.121C441.253 180.198 440.599 181.176 439.774 182.001C438.95 182.825 437.971 183.478 436.893 183.924C435.816 184.37 434.661 184.6 433.495 184.6ZM433.495 150.875C426.9 150.875 420.575 153.493 415.911 158.153C411.248 162.814 408.628 169.134 408.628 175.725C408.628 194.363 433.495 221.875 433.495 221.875C433.495 221.875 458.361 194.363 458.361 175.725C458.361 169.134 455.741 162.814 451.078 158.153C446.414 153.493 440.09 150.875 433.495 150.875Z" fill="#FF78FD"/>
<g opacity="0.35" filter="url(#filter1_f_648_2814)">
<ellipse cx="433.495" cy="239.625" rx="21.3141" ry="5.325" fill="#FF78FD"/>
</g>
<defs>
<filter id="filter0_df_648_2814" x="-125.004" y="12.9751" width="736.007" height="399.166" filterUnits="userSpaceOnUse" color-interpolation-filters="sRGB">
<feFlood flood-opacity="0" result="BackgroundImageFix"/>
<feColorMatrix in="SourceAlpha" type="matrix" values="0 0 0 0 0 0 0 0 0 0 0 0 0 0 0 0 0 0 127 0" result="hardAlpha"/>
<feOffset/>
<feGaussianBlur stdDeviation="1"/>
<feComposite in2="hardAlpha" operator="out"/>
<feColorMatrix type="matrix" values="0 0 0 0 1 0 0 0 0 0.470588 0 0 0 0 0.992157 0 0 0 1 0"/>
<feBlend mode="normal" in2="BackgroundImageFix" result="effect1_dropShadow_648_2814"/>
<feBlend mode="normal" in="SourceGraphic" in2="effect1_dropShadow_648_2814" result="shape"/>
<feGaussianBlur stdDeviation="1" result="effect2_foregroundBlur_648_2814"/>
</filter>
<filter id="filter1_f_648_2814" x="408.181" y="230.3" width="50.6282" height="18.65" filterUnits="userSpaceOnUse" color-interpolation-filters="sRGB">
<feFlood flood-opacity="0" result="BackgroundImageFix"/>
<feBlend mode="normal" in="SourceGraphic" in2="BackgroundImageFix" result="shape"/>
<feGaussianBlur stdDeviation="2" result="effect1_foregroundBlur_648_2814"/>
</filter>
</defs>
</svg>
