<svg width="64" height="64" viewBox="0 0 64 64" fill="none" xmlns="http://www.w3.org/2000/svg">
<circle cx="32" cy="32" r="32" fill="#B6B6C8"/>
<path d="M64 32C64 32 54.8579 36 49 36C35.7222 36 28.2778 28 15 28C9.14214 28 0 32 0 32C0 14.3269 14.3269 0 32 0C49.6731 0 64 14.3269 64 32Z" fill="#FF78FD"/>
<path d="M33.3333 18.7068V18.7335V21.4001C39.1866 22.1201 43.3333 27.4401 42.6133 33.2935C41.9999 38.1468 38.1866 42.0001 33.3333 42.5735V45.2401C40.6666 44.5068 45.9999 38.0001 45.2666 30.6668C44.6666 24.3335 39.6399 19.3335 33.3333 18.7068ZM30.6666 18.7468C28.0666 19.0001 25.5866 20.0001 23.5599 21.6801L25.4666 23.6535C26.9599 22.4535 28.7599 21.6801 30.6666 21.4135V18.7468ZM21.6799 23.5601C19.9999 25.5868 18.9999 28.0535 18.7333 30.6668H21.3999C21.6533 28.7735 22.3999 26.9735 23.5866 25.4668L21.6799 23.5601ZM18.7466 33.3335C19.0133 35.9468 20.0399 38.4135 21.6933 40.4401L23.5866 38.5335C22.4133 37.0268 21.6533 35.2268 21.4133 33.3335H18.7466ZM25.4666 40.4935L23.5599 42.3201C25.5733 44.0001 28.0533 45.0535 30.6666 45.3335V42.6668C28.7733 42.4268 26.9733 41.6668 25.4666 40.4935ZM38.4266 36.2535L32.9466 30.7735C33.4933 29.3868 33.1866 27.7601 32.0399 26.6268C30.8399 25.4135 29.0399 25.1735 27.5866 25.8401L30.1733 28.4268L28.3733 30.2401L25.7199 27.6401C24.9999 29.0935 25.3333 30.8935 26.5066 32.1068C27.6533 33.2535 29.2799 33.5468 30.6666 33.0135L36.1466 38.4801C36.3866 38.7335 36.7466 38.7335 36.9866 38.4801L38.3733 37.1068C38.6666 36.8668 38.6666 36.4401 38.4266 36.2535Z" fill="#F5F5F7"/>
</svg>
