<svg width="21" height="18" viewBox="0 0 21 18" fill="none" xmlns="http://www.w3.org/2000/svg">
<path d="M1.91499 7.80796C8.19899 5.04346 16.331 1.67296 17.4535 1.20646C20.398 -0.0145375 21.3015 0.219462 20.851 2.92346C20.5275 4.86696 19.594 11.3015 18.85 15.3065C18.4085 17.6815 17.418 17.963 15.8605 16.9355C15.1115 16.441 11.331 13.941 10.5105 13.354C9.76149 12.819 8.72849 12.1755 10.024 10.908C10.485 10.4565 13.507 7.57096 15.8615 5.32496C16.17 5.02996 15.7825 4.54546 15.4265 4.78196C12.253 6.88646 7.85299 9.80746 7.29299 10.188C6.44699 10.7625 5.63449 11.026 4.17599 10.607C3.07399 10.2905 1.99749 9.91296 1.57849 9.76896C-0.0350065 9.21496 0.347993 8.49746 1.91499 7.80796Z" fill="#122537"/>
</svg>
