<svg width="24" height="24" viewBox="0 0 24 24" fill="none" xmlns="http://www.w3.org/2000/svg">
<path d="M2.91499 11.808C9.19899 9.04346 17.331 5.67296 18.4535 5.20646C21.398 3.98546 22.3015 4.21946 21.851 6.92346C21.5275 8.86696 20.594 15.3015 19.85 19.3065C19.4085 21.6815 18.418 21.963 16.8605 20.9355C16.1115 20.441 12.331 17.941 11.5105 17.354C10.7615 16.819 9.72849 16.1755 11.024 14.908C11.485 14.4565 14.507 11.571 16.8615 9.32496C17.17 9.02996 16.7825 8.54546 16.4265 8.78196C13.253 10.8865 8.85299 13.8075 8.29299 14.188C7.44699 14.7625 6.63449 15.026 5.17599 14.607C4.07399 14.2905 2.99749 13.913 2.57849 13.769C0.964994 13.215 1.34799 12.4975 2.91499 11.808Z" fill="#122537"/>
</svg>
