<svg width="32" height="32" viewBox="0 0 32 32" fill="none" xmlns="http://www.w3.org/2000/svg">
<path d="M3.88649 15.744C12.2652 12.058 23.1078 7.56397 24.6045 6.94197C28.5305 5.31397 29.7352 5.62597 29.1345 9.2313C28.7032 11.8226 27.4585 20.402 26.4665 25.742C25.8778 28.9086 24.5572 29.284 22.4805 27.914C21.4818 27.2546 16.4412 23.9213 15.3472 23.1386C14.3485 22.4253 12.9712 21.5673 14.6985 19.8773C15.3132 19.2753 19.3425 15.428 22.4818 12.4333C22.8932 12.04 22.3765 11.394 21.9018 11.7093C17.6705 14.5153 11.8038 18.41 11.0572 18.9173C9.92916 19.6833 8.84583 20.0346 6.90116 19.476C5.43183 19.054 3.99649 18.5506 3.43783 18.3586C1.2865 17.62 1.79716 16.6633 3.88649 15.744Z" fill="#FF78FD"/>
</svg>
