<svg width="561" height="324" viewBox="0 0 561 324" fill="none" xmlns="http://www.w3.org/2000/svg">
<g filter="url(#filter0_df_691_2233)">
<mask id="path-1-outside-1_691_2233" maskUnits="userSpaceOnUse" x="2.03809" y="11.15" width="557" height="302" fill="black">
<rect fill="white" x="2.03809" y="11.15" width="557" height="302"/>
<path fill-rule="evenodd" clip-rule="evenodd" d="M152.026 110.203C151.649 112.156 153.256 113.837 155.796 115.188C156.205 114.911 156.582 114.639 156.925 114.374C163.061 109.632 153.089 104.711 152.026 110.203Z"/>
<path fill-rule="evenodd" clip-rule="evenodd" d="M208.27 85.9058C205.543 88.1216 204.048 90.5895 203.249 93.2768C216.307 90.4499 233.831 89.0754 239.294 87.9004C248.046 86.0182 219.968 76.3989 208.27 85.9058Z"/>
<path fill-rule="evenodd" clip-rule="evenodd" d="M499.828 226.072C506.545 233.551 529.108 270.477 530.127 259.073C531.147 247.67 503.931 214.131 498.196 212.654C495.188 211.879 493.702 215.838 493.406 220.831C495.639 221.988 497.746 223.751 499.828 226.072Z"/>
<path fill-rule="evenodd" clip-rule="evenodd" d="M556.798 169.68C553.971 158.098 531.314 127.561 524.322 118.727C523.068 117.144 521.7 115.695 520.299 114.427C518.088 120.339 516.594 127.155 517.064 134.502C518.338 154.445 533.656 171.069 545.73 177.658C557.805 184.247 559.626 181.259 556.798 169.68Z"/>
<path fill-rule="evenodd" clip-rule="evenodd" d="M203.25 93.2778C195.39 94.9786 189.151 97.2053 188.131 100.232C186.075 106.341 193.928 116.499 199.897 123.768C204.968 112.043 200.777 101.599 203.25 93.2778Z"/>
<path fill-rule="evenodd" clip-rule="evenodd" d="M533.134 59.7968C534.868 51.4576 523.42 57.9618 515.068 50.1847C506.717 42.4076 524.987 29.673 523.777 16.4579C522.567 3.24279 497.468 23.497 480.96 36.0412C464.451 48.5854 464.553 63.7008 457.192 73.0319C449.832 82.363 439.657 86.4283 431.973 88.626C424.29 90.8237 410.962 88.7711 402.944 94.2472C394.927 99.7232 405.865 111.136 399.134 114.737C392.403 118.338 383.58 121.682 377.907 116.732C372.234 111.781 363.707 113.912 356.861 115.825C350.016 117.738 330.162 120.36 323.115 123.441C316.068 126.522 324.79 116.088 331.461 109.841C338.132 103.595 330.151 97.4439 318.398 93.7032C315.297 92.7168 311.95 91.0794 308.633 89.0666C301.449 96.9199 285.789 105.417 279.39 110.204C270.624 116.764 262.748 121.102 247.821 125.435C244.374 126.436 241.47 127.816 238.971 129.492C237.803 136.174 235.773 143.04 234.396 146.288C231.333 153.517 217.459 164.798 222.784 152.997C226.879 143.922 230.656 135.067 238.971 129.492C240.401 121.305 240.533 113.393 236.573 112.743C229.377 111.562 219.558 125.949 218.43 135.227C217.301 144.506 209.355 135.842 204.641 129.606C203.503 128.101 201.794 126.08 199.897 123.768C199.579 124.5 199.229 125.238 198.835 125.979C190.121 142.44 175.042 127.095 180.148 123.985C185.253 120.875 179.477 118.781 172.528 118.908C168.052 118.989 160.394 117.631 155.796 115.188C148.898 119.865 133.05 125.818 121.546 118.726C112.494 113.147 118.068 103.234 122.518 95.9154C121.914 93.8138 121.66 91.9243 121.546 90.6206C121.161 86.2089 128.482 83.2152 126.082 89.5327C125.465 91.1573 124.059 93.3804 122.518 95.9154C123.961 100.925 127.399 107.139 135.697 109.479C147.478 112.799 144.109 89.0032 143.68 83.7302C143.252 78.4572 142.282 67.0264 129.892 69.4054C117.502 71.7844 118.358 82.7601 106.487 93.5218C94.6161 104.284 84.4724 100.423 75.644 104.401C72.1841 105.961 71.8666 108.94 73.2436 111.946C77.2333 112.264 80.7004 112.552 82.7197 111.655C88.0012 109.306 94.618 120.188 86.5298 120.902C81.6112 121.337 75.3845 116.612 73.2436 111.946C66.7974 111.435 58.9814 110.853 53.6909 115.1C45.1237 121.974 49.3456 129.241 48.4294 135.952C47.5132 142.663 38.507 141.242 31.7378 159.706C24.9686 178.171 46.5661 187.137 40.8093 201.411C34.8076 216.291 22.4195 211.145 10.329 210.659C-1.76152 210.173 3.20786 228.391 10.6919 236.589C18.1759 244.787 20.9046 249.764 24.8434 267.233C28.7823 284.702 36.8178 272.508 36.6364 268.865C36.455 265.222 36.5403 248.223 43.7122 249.644C66.5543 251.9 63.2523 246.598 62.0367 244.93C60.8211 243.262 54.2007 236.948 65.121 224.984C76.0413 213.02 87.1067 237.626 116.829 249.463C146.551 261.3 144.613 229.513 161.642 235.682C178.671 241.853 198.51 264.361 212.624 286.816C226.766 309.317 253.455 303.591 275.976 291.879C298.234 280.305 309.907 306.427 328.195 310.208C346.485 313.988 364.458 289.857 382.261 294.069C408.848 300.358 407.774 279.177 406.392 270.678C405.009 262.179 412.023 249.967 420.725 252.546C429.426 255.124 444.71 274.332 462.998 270.316C481.286 266.299 489.567 274.379 486.402 286.454C483.238 298.528 484.659 312.228 492.934 311.114C501.209 310.001 508.178 284.858 507.63 273.217C507.082 261.576 498.33 241.557 495.293 234.232C493.848 230.748 493.137 225.363 493.406 220.831C488.444 218.26 482.861 218.683 475.517 222.627C464.867 228.342 463.773 213.087 464.087 198.873C464.4 184.659 467.347 174.263 482.955 164.602C498.564 154.941 493.166 138.241 494.204 131.601C495.242 124.96 507.033 120.594 506.904 112.924C506.799 106.63 513.889 108.627 520.299 114.427C524.091 104.293 530.089 96.8691 531.76 93.8845C538.584 81.6884 528.645 81.3693 533.134 59.7968Z"/>
<path fill-rule="evenodd" clip-rule="evenodd" d="M312.229 80.829C310.145 71.5396 283.767 61.9365 287.555 69.4054C290.343 74.9032 299.373 83.4473 308.633 89.0666C311.295 86.1582 312.794 83.3385 312.229 80.829Z"/>
<path fill-rule="evenodd" clip-rule="evenodd" d="M386.253 87.5382C393.594 85.9606 394.033 80.2144 396.957 77.2025C399.882 74.1907 391.6 72.517 379.54 76.1146C367.482 79.7103 378.94 89.1085 386.253 87.5382Z"/>
<path fill-rule="evenodd" clip-rule="evenodd" d="M474.972 24.2555C476.725 20.7541 476.153 17.1167 472.069 18.8157C467.985 20.5148 468.118 24.6418 470.255 28.7887C472.343 32.8377 473.22 27.7551 474.972 24.2555Z"/>
<path fill-rule="evenodd" clip-rule="evenodd" d="M171.439 111.474C174.794 111.497 170.534 105.978 167.448 106.759C164.362 107.541 168.33 111.45 171.439 111.474Z"/>
<path fill-rule="evenodd" clip-rule="evenodd" d="M245.826 54.7184C249.415 54.6586 250.048 50.9396 248.91 50.9106C247.773 50.8816 240.826 50.3557 236.573 50.0039C232.32 49.6522 239.938 54.8145 245.826 54.7184Z"/>
<path fill-rule="evenodd" clip-rule="evenodd" d="M236.21 47.2836C240.617 47.0642 234.466 43.0514 232.037 43.8384C229.608 44.6253 232.079 47.4885 236.21 47.2836Z"/>
<path fill-rule="evenodd" clip-rule="evenodd" d="M226.05 44.02C228.887 44.2176 228.969 42.0762 228.771 41.3001C228.574 40.524 225.335 38.6328 220.244 38.2175C215.153 37.8023 223.112 43.8151 226.05 44.02Z"/>
<path fill-rule="evenodd" clip-rule="evenodd" d="M407.48 72.6692C409.483 72.1416 409.436 69.632 409.295 67.2294C409.153 64.8268 404.28 68.4371 400.949 71.2186C397.618 74.0002 402.694 73.9276 407.48 72.6692Z"/>
</mask>
<path d="M152.026 110.203L151.044 110.013L151.044 110.014L152.026 110.203ZM156.925 114.374L157.536 115.166L157.536 115.165L156.925 114.374ZM208.27 85.9058L208.9 86.6819L208.9 86.6819L208.27 85.9058ZM203.249 93.2768L202.291 92.992L201.81 94.6116L203.461 94.2541L203.249 93.2768ZM239.294 87.9004L239.084 86.9228L239.084 86.9228L239.294 87.9004ZM499.828 226.072L499.084 226.74L499.084 226.74L499.828 226.072ZM498.196 212.654L498.445 211.685L498.445 211.685L498.196 212.654ZM556.798 169.68L555.826 169.917V169.917L556.798 169.68ZM524.322 118.727L525.106 118.106L525.105 118.106L524.322 118.727ZM517.064 134.502L518.062 134.438V134.438L517.064 134.502ZM203.25 93.2778L204.208 93.5627L204.689 91.943L203.038 92.3004L203.25 93.2778ZM188.131 100.232L187.183 99.9124L187.183 99.9128L188.131 100.232ZM533.134 59.7968L534.113 60.0005V60.0005L533.134 59.7968ZM318.398 93.7032L318.701 92.7503L318.701 92.7502L318.398 93.7032ZM279.39 110.204L278.791 109.403L278.791 109.403L279.39 110.204ZM247.821 125.435L247.543 124.475L247.543 124.475L247.821 125.435ZM234.396 146.288L233.475 145.898L233.475 145.898L234.396 146.288ZM222.784 152.997L223.696 153.408V153.408L222.784 152.997ZM236.573 112.743L236.735 111.756L236.735 111.756L236.573 112.743ZM204.641 129.606L203.843 130.209L203.843 130.209L204.641 129.606ZM198.835 125.979L197.952 125.51L197.951 125.512L198.835 125.979ZM172.528 118.908L172.546 119.907H172.546L172.528 118.908ZM121.546 118.726L122.071 117.875L122.071 117.875L121.546 118.726ZM121.546 90.6206L120.55 90.7075L120.55 90.7079L121.546 90.6206ZM126.082 89.5327L125.147 89.1775L125.147 89.1777L126.082 89.5327ZM135.697 109.479L135.426 110.441L135.426 110.441L135.697 109.479ZM75.644 104.401L75.2331 103.49L75.2331 103.49L75.644 104.401ZM82.7197 111.655L83.1259 112.568L83.126 112.568L82.7197 111.655ZM86.5298 120.902L86.4418 119.906L86.4417 119.906L86.5298 120.902ZM53.6909 115.1L54.3167 115.88L54.3169 115.88L53.6909 115.1ZM40.8093 201.411L41.7367 201.785L41.7367 201.785L40.8093 201.411ZM43.7122 249.644L43.5178 250.625L43.5655 250.635L43.6139 250.639L43.7122 249.644ZM161.642 235.682L161.983 234.742L161.983 234.742L161.642 235.682ZM212.624 286.816L211.777 287.348L212.624 286.816ZM275.976 291.879L275.514 290.992H275.514L275.976 291.879ZM328.195 310.208L327.993 311.187L328.195 310.208ZM382.261 294.069L382.031 295.043H382.031L382.261 294.069ZM495.293 234.232L496.216 233.849V233.849L495.293 234.232ZM475.517 222.627L475.99 223.508L475.99 223.508L475.517 222.627ZM506.904 112.924L505.904 112.941V112.941L506.904 112.924ZM531.76 93.8845L532.633 94.373L532.633 94.3728L531.76 93.8845ZM312.229 80.829L311.254 81.0479L311.254 81.0483L312.229 80.829ZM287.555 69.4054L286.663 69.8577V69.8577L287.555 69.4054ZM386.253 87.5382L386.463 88.5159L386.463 88.5158L386.253 87.5382ZM379.54 76.1146L379.826 77.0729L379.826 77.0728L379.54 76.1146ZM474.972 24.2555L475.866 24.7033L475.867 24.7031L474.972 24.2555ZM470.255 28.7887L469.366 29.2468L469.366 29.2471L470.255 28.7887ZM171.439 111.474L171.432 112.474H171.432L171.439 111.474ZM245.826 54.7184L245.842 55.7183L245.843 55.7183L245.826 54.7184ZM236.21 47.2836L236.259 48.2824L236.26 48.2824L236.21 47.2836ZM226.05 44.02L225.98 45.0176L225.98 45.0176L226.05 44.02ZM407.48 72.6692L407.735 73.6364L407.735 73.6362L407.48 72.6692ZM151.044 110.014C150.787 111.348 151.231 112.547 152.039 113.549C152.83 114.53 153.998 115.364 155.327 116.071L156.266 114.305C155.055 113.661 154.149 112.98 153.596 112.294C153.06 111.629 152.889 111.012 153.008 110.393L151.044 110.014ZM156.358 116.015C156.781 115.728 157.175 115.444 157.536 115.166L156.314 113.582C155.989 113.833 155.628 114.093 155.234 114.361L156.358 116.015ZM157.536 115.165C159.233 113.854 160.021 112.36 159.894 110.865C159.77 109.411 158.805 108.275 157.697 107.598C156.589 106.92 155.165 106.588 153.87 106.899C152.494 107.229 151.384 108.262 151.044 110.013L153.008 110.394C153.201 109.399 153.735 108.988 154.336 108.844C155.018 108.68 155.903 108.845 156.654 109.304C157.404 109.763 157.848 110.404 157.901 111.034C157.951 111.624 157.684 112.523 156.313 113.583L157.536 115.165ZM207.639 85.1297C204.752 87.4758 203.145 90.1167 202.291 92.992L204.208 93.5615C204.95 91.0624 206.334 88.7675 208.9 86.6819L207.639 85.1297ZM203.461 94.2541C209.943 92.8509 217.55 91.805 224.245 90.9613C230.892 90.1236 236.717 89.4777 239.505 88.8781L239.084 86.9228C236.409 87.4982 230.74 88.127 223.995 88.977C217.298 89.821 209.614 90.8758 203.038 92.2994L203.461 94.2541ZM239.504 88.8781C240.104 88.7491 240.636 88.5699 241.05 88.3095C241.468 88.046 241.878 87.6201 241.948 86.9944C242.014 86.3975 241.735 85.9029 241.453 85.5638C241.163 85.2142 240.765 84.8993 240.325 84.6165C238.583 83.4975 235.383 82.3857 231.644 81.651C227.877 80.9107 223.444 80.5296 219.186 80.9468C214.939 81.3629 210.773 82.5826 207.639 85.1298L208.9 86.6819C211.615 84.4755 215.346 83.3326 219.381 82.9373C223.404 82.5431 227.638 82.902 231.258 83.6134C234.907 84.3305 237.817 85.3823 239.244 86.2991C239.596 86.5253 239.806 86.7114 239.914 86.8417C240.031 86.9825 239.941 86.9467 239.96 86.7744C239.982 86.5733 240.11 86.5377 239.984 86.6173C239.853 86.6999 239.578 86.8165 239.084 86.9228L239.504 88.8781ZM499.084 226.74C500.716 228.557 503.346 232.209 506.437 236.566C509.508 240.894 513.001 245.871 516.317 250.257C519.614 254.619 522.803 258.488 525.266 260.547C525.888 261.066 526.495 261.498 527.072 261.793C527.636 262.082 528.266 262.29 528.9 262.232C529.601 262.167 530.166 261.79 530.539 261.197C530.883 260.651 531.053 259.946 531.123 259.162L529.131 258.984C529.074 259.626 528.949 259.969 528.847 260.131C528.774 260.246 528.743 260.238 528.716 260.24C528.623 260.249 528.394 260.223 527.984 260.013C527.588 259.811 527.109 259.48 526.549 259.012C524.285 257.121 521.222 253.43 517.912 249.051C514.62 244.696 511.149 239.751 508.068 235.409C505.008 231.095 502.3 227.327 500.573 225.404L499.084 226.74ZM531.123 259.162C531.268 257.541 530.909 255.62 530.234 253.554C529.553 251.473 528.525 249.169 527.261 246.753C524.731 241.922 521.214 236.569 517.498 231.546C513.782 226.522 509.848 221.803 506.474 218.239C504.788 216.458 503.229 214.952 501.898 213.838C501.233 213.281 500.612 212.811 500.05 212.451C499.502 212.1 498.955 211.816 498.445 211.685L497.946 213.622C498.153 213.675 498.491 213.827 498.971 214.135C499.438 214.434 499.989 214.848 500.614 215.371C501.865 216.419 503.365 217.864 505.022 219.614C508.332 223.11 512.214 227.766 515.891 232.736C519.569 237.708 523.023 242.971 525.489 247.681C526.722 250.036 527.698 252.235 528.333 254.176C528.973 256.133 529.241 257.754 529.131 258.984L531.123 259.162ZM498.445 211.685C497.45 211.429 496.516 211.558 495.705 212.045C494.925 212.513 494.338 213.264 493.895 214.12C493.016 215.821 492.559 218.223 492.408 220.772L494.404 220.89C494.549 218.446 494.982 216.372 495.672 215.039C496.014 214.378 496.381 213.972 496.734 213.76C497.057 213.566 497.437 213.491 497.946 213.622L498.445 211.685ZM492.946 221.719C495.04 222.804 497.054 224.477 499.084 226.74L500.573 225.404C498.437 223.024 496.238 221.172 493.866 219.943L492.946 221.719ZM557.769 169.443C557.027 166.4 555.017 162.216 552.383 157.581C549.735 152.92 546.403 147.717 542.95 142.613C536.043 132.404 528.616 122.541 525.106 118.106L523.537 119.347C527.02 123.747 534.417 133.57 541.293 143.733C544.732 148.815 548.032 153.971 550.645 158.569C553.272 163.193 555.155 167.168 555.826 169.917L557.769 169.443ZM525.105 118.106C523.817 116.479 522.411 114.99 520.97 113.686L519.628 115.169C520.989 116.4 522.319 117.809 523.538 119.348L525.105 118.106ZM519.363 114.077C517.115 120.084 515.585 127.043 516.066 134.566L518.062 134.438C517.604 127.266 519.06 120.594 521.236 114.778L519.363 114.077ZM516.066 134.566C517.368 154.946 532.971 171.834 545.251 178.536L546.209 176.78C534.342 170.303 519.308 153.943 518.062 134.438L516.066 134.566ZM545.251 178.536C548.29 180.194 550.756 181.292 552.704 181.789C554.613 182.276 556.31 182.257 557.5 181.244C558.669 180.249 558.999 178.586 558.959 176.717C558.919 174.798 558.48 172.354 557.769 169.442L555.826 169.917C556.529 172.795 556.924 175.067 556.96 176.759C556.997 178.501 556.647 179.344 556.204 179.721C555.784 180.078 554.939 180.295 553.198 179.851C551.497 179.417 549.207 178.416 546.209 176.78L545.251 178.536ZM203.038 92.3004C199.086 93.1557 195.488 94.1537 192.73 95.339C191.352 95.9316 190.147 96.5861 189.205 97.3177C188.268 98.0452 187.524 98.9006 187.183 99.9124L189.079 100.551C189.248 100.05 189.666 99.4918 190.431 98.8974C191.191 98.3073 192.229 97.7313 193.52 97.1764C196.102 96.0665 199.554 95.1007 203.461 94.2552L203.038 92.3004ZM187.183 99.9128C186.581 101.701 186.73 103.703 187.3 105.734C187.872 107.772 188.891 109.923 190.14 112.068C192.637 116.356 196.14 120.768 199.124 124.403L200.67 123.133C197.685 119.498 194.276 115.197 191.869 111.061C190.665 108.995 189.734 107.007 189.226 105.194C188.715 103.375 188.653 101.817 189.079 100.551L187.183 99.9128ZM200.815 124.165C203.437 118.102 203.653 112.385 203.547 107.226C203.44 101.99 203.029 97.5291 204.208 93.5627L202.291 92.9929C200.997 97.3476 201.445 102.27 201.548 107.267C201.652 112.341 201.428 117.709 198.979 123.371L200.815 124.165ZM534.113 60.0005C534.346 58.8762 534.382 57.898 534.166 57.0596C533.942 56.1884 533.463 55.5308 532.798 55.0563C532.161 54.6022 531.39 54.3409 530.599 54.1652C529.804 53.9887 528.909 53.8825 527.988 53.7855C524.243 53.3911 519.644 53.0789 515.75 49.4529L514.387 50.9165C518.845 55.0676 524.145 55.3918 527.778 55.7745C528.702 55.8717 529.494 55.9685 530.165 56.1176C530.84 56.2675 531.313 56.4543 531.636 56.6847C531.931 56.8947 532.127 57.1578 532.229 57.5575C532.34 57.9899 532.354 58.6327 532.154 59.5932L534.113 60.0005ZM515.75 49.4529C514.829 48.5952 514.309 47.7043 514.06 46.7839C513.809 45.8549 513.818 44.8328 514.055 43.6962C514.537 41.3836 515.914 38.7826 517.61 35.8627C519.274 32.9964 521.226 29.8535 522.666 26.6157C524.112 23.3673 525.098 19.9117 524.773 16.3667L522.781 16.5491C523.062 19.6116 522.218 22.7035 520.839 25.8027C519.455 28.9123 517.588 31.917 515.88 34.8584C514.203 37.7462 512.655 40.613 512.097 43.2884C511.814 44.6458 511.776 45.9978 512.129 47.3054C512.485 48.6216 513.22 49.8299 514.387 50.9165L515.75 49.4529ZM524.773 16.3667C524.607 14.558 524.015 13.1335 522.902 12.2184C521.794 11.3062 520.352 11.0514 518.813 11.1822C515.786 11.4396 511.848 13.2354 507.599 15.7272C499.043 20.7459 488.575 28.9983 480.355 35.245L481.565 36.8374C489.852 30.5399 500.188 22.3931 508.611 17.4524C512.852 14.9646 516.447 13.3906 518.983 13.175C520.225 13.0694 521.072 13.3023 521.632 13.7629C522.188 14.2207 522.644 15.054 522.781 16.5491L524.773 16.3667ZM480.355 35.245C471.925 41.6504 467.735 48.7228 464.735 55.3279C463.988 56.9736 463.314 58.5908 462.67 60.1538C462.023 61.7217 461.41 63.2283 460.774 64.6778C459.502 67.577 458.168 70.1796 456.407 72.4126L457.977 73.6512C459.896 71.2186 461.31 68.4327 462.605 65.4814C463.253 64.0056 463.878 62.4715 464.519 60.9158C465.162 59.3552 465.824 57.766 466.556 56.155C469.472 49.7336 473.486 42.9762 481.565 36.8374L480.355 35.245ZM456.407 72.4126C449.239 81.4989 439.307 85.4882 431.698 87.6646L432.248 89.5875C440.006 87.3685 450.424 83.2271 457.977 73.6512L456.407 72.4126ZM431.698 87.6646C429.876 88.1857 427.684 88.4636 425.241 88.6648C424.025 88.765 422.761 88.8451 421.462 88.9285C420.165 89.0118 418.835 89.0983 417.5 89.2107C412.199 89.6573 406.625 90.5224 402.38 93.4214L403.508 95.0729C407.282 92.4958 412.38 91.6492 417.668 91.2037C418.98 91.0931 420.292 91.0078 421.59 90.9244C422.884 90.8413 424.167 90.76 425.406 90.658C427.874 90.4548 430.229 90.1652 432.248 89.5875L431.698 87.6646ZM402.38 93.4214C400.109 94.9725 399.155 96.9893 398.919 99.1439C398.692 101.227 399.139 103.433 399.581 105.413C400.042 107.474 400.484 109.254 400.442 110.759C400.422 111.485 400.287 112.082 400.022 112.572C399.763 113.051 399.348 113.489 398.663 113.855L399.606 115.619C400.604 115.085 401.319 114.379 401.782 113.523C402.238 112.678 402.415 111.75 402.442 110.814C402.492 108.995 401.964 106.904 401.533 104.977C401.084 102.969 400.721 101.07 400.907 99.3611C401.086 97.7232 401.771 96.2598 403.508 95.0729L402.38 93.4214ZM398.663 113.855C395.328 115.64 391.55 117.317 387.949 117.957C384.358 118.595 381.087 118.18 378.565 115.978L377.25 117.485C380.4 120.234 384.378 120.622 388.299 119.926C392.211 119.231 396.21 117.436 399.606 115.619L398.663 113.855ZM378.565 115.978C375.465 113.274 371.624 112.547 367.782 112.706C363.955 112.864 360.008 113.907 356.592 114.862L357.13 116.788C360.56 115.83 364.299 114.851 367.865 114.704C371.416 114.557 374.676 115.239 377.25 117.485L378.565 115.978ZM356.592 114.862C353.223 115.803 346.629 116.923 339.876 118.213C333.214 119.485 326.363 120.929 322.714 122.525L323.516 124.357C326.914 122.871 333.513 121.464 340.251 120.177C346.899 118.908 353.654 117.76 357.13 116.788L356.592 114.862ZM322.714 122.525C321.854 122.901 321.383 122.998 321.183 122.997C321.097 122.997 321.184 122.977 321.31 123.075C321.46 123.192 321.497 123.341 321.502 123.387C321.505 123.408 321.496 123.354 321.544 123.192C321.589 123.039 321.669 122.837 321.795 122.585C322.047 122.079 322.44 121.448 322.959 120.718C325.039 117.788 328.836 113.669 332.144 110.571L330.777 109.111C327.415 112.26 323.515 116.481 321.328 119.56C320.78 120.332 320.322 121.057 320.005 121.693C319.715 122.275 319.446 122.968 319.514 123.601C319.553 123.968 319.714 124.368 320.084 124.655C320.43 124.924 320.834 124.995 321.171 124.997C321.816 125.001 322.614 124.751 323.516 124.357L322.714 122.525ZM332.144 110.571C333.941 108.889 334.879 107.088 334.887 105.215C334.895 103.354 333.984 101.648 332.566 100.146C329.755 97.1693 324.619 94.6338 318.701 92.7503L318.095 94.6561C323.93 96.5133 328.661 98.9235 331.111 101.519C332.324 102.803 332.892 104.039 332.887 105.206C332.882 106.359 332.316 107.67 330.777 109.111L332.144 110.571ZM318.701 92.7502C315.699 91.7951 312.425 90.1981 309.152 88.2118L308.114 89.9215C311.474 91.9606 314.896 93.6384 318.095 94.6561L318.701 92.7502ZM307.895 88.3916C304.396 92.2164 298.782 96.2442 293.166 99.9505C287.617 103.613 282.019 106.988 278.791 109.403L279.989 111.005C283.16 108.633 288.592 105.366 294.268 101.62C299.878 97.9175 305.686 93.7701 309.371 89.7416L307.895 88.3916ZM278.791 109.403C270.123 115.89 262.356 120.174 247.543 124.475L248.1 126.396C263.139 122.029 271.124 117.639 279.99 111.005L278.791 109.403ZM247.543 124.475C244.001 125.503 241.002 126.926 238.414 128.661L239.528 130.322C241.937 128.707 244.747 127.369 248.1 126.396L247.543 124.475ZM237.986 129.319C236.827 135.947 234.815 142.737 233.475 145.898L235.316 146.678C236.73 143.344 238.778 136.4 239.956 129.664L237.986 129.319ZM233.475 145.898C232.767 147.568 231.402 149.537 229.787 151.388C228.178 153.233 226.381 154.894 224.868 155.962C224.105 156.5 223.461 156.854 222.981 157.022C222.426 157.216 222.416 157.057 222.553 157.169C222.699 157.288 222.501 157.296 222.617 156.546C222.721 155.871 223.044 154.852 223.696 153.408L221.873 152.586C221.193 154.092 220.785 155.303 220.64 156.241C220.507 157.104 220.544 158.111 221.289 158.719C222.026 159.32 222.982 159.14 223.64 158.91C224.373 158.655 225.191 158.182 226.021 157.596C227.694 156.415 229.607 154.638 231.294 152.703C232.976 150.775 234.492 148.623 235.316 146.678L233.475 145.898ZM223.696 153.408C227.821 144.266 231.495 135.709 239.528 130.322L238.414 128.661C229.818 134.426 225.937 143.577 221.873 152.586L223.696 153.408ZM239.956 129.664C240.676 125.542 241.085 121.415 240.789 118.2C240.642 116.597 240.313 115.137 239.698 114.006C239.067 112.843 238.101 111.98 236.735 111.756L236.411 113.729C237.025 113.83 237.528 114.2 237.941 114.96C238.37 115.751 238.662 116.903 238.798 118.383C239.069 121.333 238.696 125.254 237.986 129.32L239.956 129.664ZM236.735 111.756C234.576 111.402 232.35 112.229 230.298 113.626C228.231 115.034 226.219 117.099 224.429 119.458C220.863 124.161 218.029 130.241 217.437 135.106L219.422 135.348C219.959 130.935 222.599 125.182 226.023 120.667C227.729 118.418 229.59 116.528 231.424 115.28C233.272 114.021 234.972 113.493 236.411 113.729L236.735 111.756ZM217.437 135.106C217.162 137.365 216.518 138.039 216.087 138.213C215.609 138.406 214.756 138.271 213.429 137.399C210.873 135.719 207.799 132.125 205.439 129.003L203.843 130.209C206.197 133.323 209.453 137.179 212.331 139.07C213.721 139.984 215.36 140.664 216.837 140.067C218.361 139.451 219.133 137.728 219.422 135.348L217.437 135.106ZM205.439 129.003C204.285 127.477 202.55 125.424 200.67 123.133L199.124 124.402C201.039 126.735 202.722 128.725 203.843 130.209L205.439 129.003ZM198.979 123.37C198.671 124.081 198.332 124.794 197.952 125.51L199.718 126.448C200.126 125.681 200.487 124.92 200.814 124.166L198.979 123.37ZM197.951 125.512C195.858 129.465 193.46 131.372 191.213 132.098C188.961 132.826 186.696 132.423 184.766 131.431C182.82 130.432 181.304 128.879 180.578 127.466C180.214 126.758 180.086 126.159 180.124 125.725C180.158 125.336 180.319 125.051 180.668 124.839L179.628 123.131C178.7 123.695 178.216 124.571 178.131 125.552C178.05 126.488 178.331 127.47 178.799 128.38C179.737 130.205 181.577 132.042 183.852 133.211C186.143 134.387 188.962 134.928 191.829 134.001C194.701 133.072 197.455 130.724 199.719 126.447L197.951 125.512ZM180.668 124.839C181.356 124.42 181.912 123.988 182.317 123.535C182.721 123.083 183.019 122.559 183.083 121.968C183.22 120.691 182.25 119.843 181.33 119.351C179.423 118.33 176.028 117.844 172.51 117.908L172.546 119.907C175.977 119.845 178.945 120.342 180.386 121.114C180.734 121.3 180.928 121.469 181.023 121.591C181.103 121.695 181.096 121.739 181.094 121.755C181.09 121.796 181.056 121.945 180.826 122.202C180.596 122.459 180.216 122.772 179.628 123.131L180.668 124.839ZM172.51 117.908C170.365 117.947 167.408 117.639 164.412 117.015C161.411 116.391 158.448 115.465 156.266 114.305L155.327 116.071C157.742 117.354 160.907 118.329 164.004 118.973C167.105 119.619 170.215 119.95 172.546 119.907L172.51 117.908ZM155.235 114.36C151.893 116.626 146.333 119.228 140.212 120.388C134.09 121.548 127.534 121.243 122.071 117.875L121.021 119.578C127.062 123.301 134.183 123.566 140.585 122.353C146.989 121.14 152.802 118.427 156.358 116.016L155.235 114.36ZM122.071 117.875C119.968 116.579 118.783 115.078 118.19 113.488C117.593 111.884 117.565 110.093 117.949 108.169C118.728 104.279 121.133 100.117 123.373 96.4349L121.664 95.3958C119.453 99.0318 116.847 103.486 115.988 107.777C115.555 109.943 115.552 112.134 116.316 114.186C117.086 116.253 118.597 118.084 121.021 119.578L122.071 117.875ZM123.479 95.6391C122.898 93.6166 122.653 91.794 122.542 90.5333L120.55 90.7079C120.668 92.0547 120.93 94.011 121.557 96.1916L123.479 95.6391ZM122.542 90.5338C122.471 89.7238 122.751 88.9467 123.233 88.2965C123.723 87.6359 124.368 87.1802 124.895 86.9988C125.158 86.9083 125.333 86.9054 125.421 86.9213C125.482 86.9324 125.482 86.9445 125.488 86.9538C125.51 86.9886 125.584 87.1417 125.562 87.5258C125.539 87.9062 125.424 88.4469 125.147 89.1775L127.016 89.8878C127.339 89.039 127.52 88.2913 127.558 87.6435C127.596 86.9994 127.496 86.3844 127.175 85.8803C126.456 84.7503 125.148 84.7966 124.244 85.1077C123.289 85.4364 122.326 86.1615 121.626 87.1056C120.919 88.0601 120.428 89.3116 120.55 90.7075L122.542 90.5338ZM125.147 89.1777C124.572 90.6913 123.239 92.8043 121.664 95.3961L123.373 96.4346C124.879 93.9565 126.357 91.6234 127.017 89.8876L125.147 89.1777ZM121.557 96.192C123.055 101.393 126.674 107.974 135.426 110.441L135.969 108.516C128.124 106.305 124.867 100.458 123.479 95.6387L121.557 96.192ZM135.426 110.441C137.043 110.897 138.489 110.911 139.755 110.491C141.025 110.069 142.02 109.242 142.785 108.183C144.283 106.11 144.971 103.056 145.263 99.9195C145.85 93.6126 144.885 86.209 144.677 83.6493L142.684 83.8111C142.904 86.5244 143.837 93.655 143.271 99.7341C142.987 102.791 142.335 105.392 141.164 107.012C140.595 107.799 139.924 108.328 139.125 108.593C138.323 108.859 137.297 108.89 135.969 108.516L135.426 110.441ZM144.677 83.6493C144.466 81.0504 144.113 76.6455 142.139 73.2011C141.136 71.4496 139.694 69.9087 137.62 68.985C135.549 68.0628 132.949 67.8001 129.703 68.4233L130.08 70.3874C133.03 69.8211 135.197 70.0951 136.806 70.812C138.412 71.5271 139.563 72.7275 140.404 74.1955C142.12 77.19 142.467 81.137 142.684 83.8111L144.677 83.6493ZM129.703 68.4233C126.45 69.0479 124.024 70.2484 122.039 71.894C120.071 73.5256 118.579 75.5614 117.154 77.7795C114.285 82.2439 111.624 87.5148 105.815 92.781L107.159 94.2627C113.221 88.7672 116.068 83.1693 118.836 78.8606C120.229 76.6922 121.588 74.8654 123.315 73.4337C125.025 72.0159 127.138 70.9524 130.08 70.3874L129.703 68.4233ZM105.815 92.781C100.058 98.0005 94.7479 99.6649 89.7558 100.52C88.4976 100.735 87.2588 100.899 86.0262 101.056C84.7998 101.213 83.5716 101.363 82.3663 101.548C79.9514 101.92 77.56 102.441 75.2331 103.49L76.0548 105.313C78.1421 104.373 80.3293 103.885 82.6703 103.525C83.843 103.345 85.0371 103.199 86.2789 103.04C87.5146 102.883 88.7898 102.714 90.0934 102.491C95.348 101.591 101.045 99.8049 107.159 94.2627L105.815 92.781ZM75.2331 103.49C73.2778 104.371 72.0903 105.722 71.6617 107.381C71.2447 108.996 71.5898 110.737 72.3345 112.363L74.1528 111.53C73.5205 110.149 73.3358 108.897 73.5982 107.881C73.8491 106.91 74.5502 105.991 76.0549 105.313L75.2331 103.49ZM73.1643 112.943C75.1459 113.101 77.0545 113.257 78.7208 113.256C80.3678 113.256 81.9159 113.106 83.1259 112.568L82.3136 110.741C81.5043 111.1 80.3091 111.256 78.7203 111.256C77.1509 111.257 75.3311 111.109 73.3229 110.95L73.1643 112.943ZM83.126 112.568C84.0778 112.145 85.1419 112.286 86.1874 112.878C87.2413 113.476 88.18 114.489 88.7504 115.59C89.3321 116.713 89.4448 117.746 89.1612 118.454C88.9122 119.074 88.228 119.748 86.4418 119.906L86.6178 121.898C88.8756 121.699 90.3974 120.745 91.0175 119.198C91.603 117.737 91.248 116.063 90.5263 114.67C89.7933 113.255 88.5931 111.943 87.1738 111.138C85.7459 110.329 84.0024 109.99 82.3135 110.741L83.126 112.568ZM86.4417 119.906C84.3096 120.095 81.7582 119.158 79.4192 117.518C77.0931 115.887 75.1341 113.669 74.1525 111.529L72.3348 112.364C73.494 114.89 75.7188 117.367 78.271 119.156C80.8102 120.936 83.8314 122.145 86.6179 121.898L86.4417 119.906ZM73.3227 110.95C70.112 110.695 66.4613 110.412 62.9403 110.743C59.413 111.075 55.9198 112.028 53.0649 114.32L54.3169 115.88C56.7525 113.925 59.8125 113.046 63.1274 112.734C66.4486 112.422 69.929 112.687 73.1646 112.943L73.3227 110.95ZM53.065 114.32C50.8211 116.12 49.3749 117.98 48.4782 119.889C47.5825 121.796 47.2601 123.7 47.1917 125.55C47.1241 127.38 47.3057 129.207 47.4362 130.906C47.5691 132.636 47.6519 134.255 47.4386 135.817L49.4202 136.088C49.665 134.295 49.5636 132.488 49.4303 130.753C49.2947 128.987 49.1281 127.309 49.1904 125.624C49.2519 123.96 49.5377 122.338 50.2885 120.739C51.0384 119.143 52.2771 117.516 54.3167 115.88L53.065 114.32ZM47.4386 135.817C47.246 137.227 46.6445 138.208 45.6731 139.198C45.1738 139.706 44.584 140.21 43.8949 140.777C43.2161 141.335 42.4391 141.957 41.6225 142.667C38.2942 145.559 34.2466 149.958 30.7989 159.362L32.6767 160.05C35.9982 150.99 39.8383 146.867 42.9344 144.176C43.7239 143.49 44.4615 142.9 45.1657 142.321C45.8594 141.75 46.5207 141.189 47.1003 140.599C48.2868 139.391 49.1546 138.033 49.4202 136.088L47.4386 135.817ZM30.7989 159.362C27.2403 169.069 31.1959 176.299 35.0384 182.648C38.9588 189.125 42.5368 194.455 39.8819 201.037L41.7367 201.785C44.8387 194.094 40.4963 187.803 36.7494 181.612C32.9246 175.293 29.4661 168.808 32.6767 160.05L30.7989 159.362ZM39.8819 201.037C38.4345 204.626 36.6361 206.926 34.6253 208.394C32.6144 209.863 30.312 210.557 27.7572 210.802C25.1871 211.048 22.4051 210.835 19.4553 210.517C16.5373 210.203 13.4364 209.783 10.3692 209.66L10.2888 211.658C13.2669 211.778 16.2484 212.184 19.2412 212.506C22.2022 212.825 25.1592 213.06 27.9477 212.793C30.7514 212.525 33.427 211.746 35.8048 210.01C38.1825 208.273 40.1833 205.637 41.7367 201.785L39.8819 201.037ZM10.3692 209.66C7.06732 209.527 4.73386 210.688 3.38729 212.818C2.09232 214.867 1.83174 217.627 2.1772 220.487C2.86969 226.221 6.07663 233.017 9.95334 237.263L11.4304 235.915C7.8231 231.963 4.80334 225.551 4.16277 220.248C3.8417 217.589 4.138 215.374 5.07785 213.887C5.96611 212.482 7.54542 211.548 10.2888 211.658L10.3692 209.66ZM9.95334 237.263C13.6643 241.328 16.1439 244.537 18.1934 248.862C20.2541 253.211 21.9018 258.733 23.8679 267.453L25.8189 267.013C23.8462 258.264 22.1602 252.563 20.0008 248.006C17.8302 243.426 15.2035 240.047 11.4304 235.915L9.95334 237.263ZM23.8679 267.453C24.8633 271.867 26.1565 274.623 27.6796 276.09C28.4628 276.845 29.3277 277.277 30.2415 277.38C31.1475 277.483 32.002 277.25 32.7552 276.849C34.2298 276.063 35.4578 274.561 36.2926 273.099C36.7178 272.355 37.0614 271.585 37.2946 270.866C37.5229 270.161 37.6664 269.441 37.6352 268.815L35.6376 268.915C35.6518 269.199 35.5838 269.657 35.3921 270.249C35.2052 270.825 34.92 271.47 34.5558 272.108C33.8119 273.41 32.8188 274.549 31.8149 275.083C31.3288 275.342 30.8796 275.44 30.4657 275.393C30.0595 275.347 29.5882 275.152 29.0671 274.65C27.9813 273.604 26.793 271.333 25.8189 267.013L23.8679 267.453ZM37.6352 268.815C37.5465 267.035 37.5249 261.965 38.3978 257.549C38.837 255.328 39.4816 253.387 40.3751 252.108C40.8149 251.479 41.2857 251.053 41.7801 250.811C42.2599 250.577 42.8218 250.487 43.5178 250.625L43.9066 248.663C42.8096 248.446 41.8 248.576 40.9031 249.014C40.0208 249.444 39.3097 250.141 38.7357 250.963C37.6018 252.586 36.8918 254.855 36.4358 257.162C35.5185 261.801 35.5449 267.052 35.6376 268.915L37.6352 268.815ZM43.6139 250.639C49.3531 251.206 53.4918 251.303 56.4541 251.091C59.3843 250.882 61.2902 250.364 62.4508 249.591C63.0509 249.19 63.4784 248.704 63.7171 248.138C63.9555 247.573 63.9713 247.01 63.8831 246.513C63.7153 245.567 63.1493 244.759 62.8449 244.341L61.2285 245.519C61.5318 245.935 61.8344 246.415 61.9139 246.862C61.9492 247.061 61.9333 247.221 61.8743 247.361C61.8156 247.5 61.6802 247.701 61.3413 247.927C60.6242 248.405 59.1486 248.894 56.3116 249.096C53.5067 249.297 49.4923 249.21 43.8105 248.649L43.6139 250.639ZM62.8449 244.341C62.1545 243.393 60.4183 241.65 60.0189 238.684C59.6289 235.788 60.5261 231.501 65.8596 225.658L64.3824 224.31C58.7956 230.43 57.5429 235.283 58.0368 238.951C58.5215 242.55 60.7033 244.798 61.2285 245.519L62.8449 244.341ZM65.8596 225.658C67.1395 224.256 68.3651 223.451 69.5634 223.068C70.7545 222.687 72.0002 222.698 73.3702 223.063C76.1803 223.812 79.3629 226.001 83.3082 229.086C91.1026 235.181 101.432 244.407 116.459 250.392L117.199 248.534C102.504 242.682 92.4391 233.687 84.5402 227.51C80.6389 224.46 77.1499 222 73.8851 221.131C72.2177 220.686 70.5751 220.645 68.9548 221.163C67.3415 221.678 65.8326 222.721 64.3824 224.31L65.8596 225.658ZM116.459 250.392C124.029 253.407 129.714 253.694 134.25 252.397C138.774 251.104 142.002 248.276 144.723 245.383C146.049 243.975 147.369 242.42 148.553 241.128C149.781 239.789 150.966 238.612 152.22 237.709C153.465 236.813 154.757 236.202 156.201 235.977C157.642 235.751 159.303 235.899 161.301 236.622L161.983 234.742C159.723 233.924 157.72 233.715 155.892 234.001C154.066 234.286 152.484 235.055 151.051 236.086C149.628 237.111 148.332 238.41 147.079 239.777C145.782 241.192 144.621 242.574 143.267 244.013C140.629 246.816 137.704 249.33 133.7 250.475C129.708 251.616 124.489 251.438 117.199 248.534L116.459 250.392ZM161.301 236.622C169.602 239.63 178.691 246.67 187.506 255.836C196.302 264.983 204.75 276.167 211.777 287.348L213.471 286.284C206.385 275.01 197.856 263.713 188.947 254.449C180.056 245.204 170.711 237.905 161.983 234.742L161.301 236.622ZM211.777 287.348C219.059 298.935 229.617 303.263 241.165 303.177C252.649 303.093 265.116 298.654 276.437 292.766L275.514 290.992C264.315 296.816 252.177 301.096 241.151 301.177C230.189 301.258 220.331 297.199 213.471 286.284L211.777 287.348ZM276.437 292.766C281.815 289.97 286.488 289.476 290.762 290.31C295.069 291.151 299.05 293.356 303.003 296.106C304.977 297.479 306.924 298.974 308.895 300.488C310.86 301.997 312.849 303.526 314.878 304.941C318.932 307.769 323.223 310.201 327.993 311.187L328.398 309.228C324.023 308.324 319.996 306.073 316.023 303.301C314.038 301.916 312.085 300.416 310.114 298.902C308.149 297.393 306.164 295.869 304.145 294.464C300.112 291.658 295.858 289.267 291.145 288.347C286.398 287.42 281.266 288.001 275.514 290.992L276.437 292.766ZM327.993 311.187C332.813 312.183 337.565 311.329 342.2 309.627C346.823 307.93 351.412 305.357 355.899 302.85C360.417 300.324 364.831 297.864 369.213 296.286C373.583 294.713 377.836 294.05 382.031 295.043L382.492 293.096C377.785 291.983 373.115 292.756 368.536 294.405C363.97 296.049 359.409 298.596 354.923 301.104C350.404 303.63 345.958 306.117 341.511 307.75C337.076 309.378 332.723 310.122 328.398 309.228L327.993 311.187ZM382.031 295.043C388.787 296.64 393.91 296.525 397.765 295.209C401.651 293.883 404.156 291.369 405.703 288.379C408.747 282.495 408.073 274.785 407.379 270.518L405.405 270.839C406.093 275.071 406.647 282.2 403.927 287.46C402.592 290.041 400.467 292.174 397.12 293.316C393.742 294.469 389.03 294.643 382.492 293.096L382.031 295.043ZM407.379 270.518C406.736 266.566 408.052 261.648 410.595 258.033C413.141 254.413 416.677 252.389 420.441 253.504L421.009 251.587C416.071 250.123 411.749 252.916 408.959 256.883C406.165 260.854 404.665 266.292 405.405 270.839L407.379 270.518ZM420.441 253.504C422.429 254.094 424.884 255.672 427.848 257.789C430.756 259.865 434.101 262.416 437.726 264.745C444.975 269.402 453.663 273.39 463.212 271.292L462.783 269.339C454.045 271.258 445.947 267.649 438.807 263.062C435.237 260.769 431.987 258.286 429.01 256.161C426.09 254.076 423.371 252.287 421.009 251.587L420.441 253.504ZM463.212 271.292C472.233 269.311 478.518 270.378 482.138 273.145C485.684 275.856 486.949 280.424 485.435 286.2L487.37 286.707C489.02 280.409 487.727 274.9 483.352 271.556C479.051 268.268 472.051 267.304 462.783 269.339L463.212 271.292ZM485.435 286.2C483.827 292.336 483.365 298.942 484.399 303.932C484.916 306.423 485.826 308.612 487.252 310.116C488.719 311.665 490.679 312.427 493.067 312.105L492.801 310.123C491.051 310.358 489.73 309.825 488.703 308.741C487.634 307.613 486.835 305.83 486.358 303.526C485.404 298.927 485.814 292.646 487.37 286.707L485.435 286.2ZM493.067 312.105C495.588 311.766 497.789 309.659 499.629 306.917C501.504 304.122 503.167 300.423 504.536 296.438C507.27 288.484 508.91 279.157 508.629 273.17L506.631 273.264C506.897 278.918 505.327 287.983 502.645 295.788C501.306 299.684 499.71 303.206 497.968 305.803C496.19 308.452 494.418 309.906 492.801 310.123L493.067 312.105ZM508.629 273.17C508.347 267.186 505.973 259.147 503.336 251.769C500.689 244.364 497.729 237.496 496.216 233.849L494.369 234.615C495.894 238.292 498.828 245.097 501.453 252.442C504.088 259.816 506.365 267.606 506.631 273.264L508.629 273.17ZM496.216 233.849C494.845 230.54 494.142 225.314 494.404 220.891L492.408 220.772C492.133 225.412 492.852 230.956 494.369 234.615L496.216 233.849ZM493.866 219.943C488.504 217.165 482.554 217.713 475.044 221.746L475.99 223.508C483.168 219.653 488.383 219.355 492.946 221.719L493.866 219.943ZM475.044 221.745C472.538 223.09 470.848 223.073 469.663 222.442C468.415 221.778 467.398 220.273 466.642 217.918C465.135 213.224 464.929 206.019 465.086 198.895L463.087 198.851C462.93 205.941 463.114 213.471 464.738 218.529C465.547 221.05 466.781 223.175 468.724 224.208C470.73 225.275 473.171 225.02 475.99 223.508L475.044 221.745ZM465.086 198.895C465.242 191.84 466.051 185.859 468.684 180.469C471.309 175.095 475.795 170.21 483.482 165.452L482.429 163.752C474.507 168.655 469.716 173.798 466.887 179.591C464.066 185.367 463.245 191.691 463.087 198.851L465.086 198.895ZM483.482 165.452C491.609 160.422 494.28 153.517 495.037 147.085C495.413 143.893 495.319 140.811 495.203 138.156C495.084 135.442 494.952 133.289 495.192 131.755L493.216 131.446C492.937 133.232 493.091 135.657 493.204 138.244C493.32 140.889 493.406 143.832 493.051 146.852C492.345 152.845 489.91 159.121 482.429 163.752L483.482 165.452ZM495.192 131.755C495.41 130.362 496.205 129.014 497.405 127.609C498.608 126.2 500.118 124.843 501.677 123.377C503.207 121.937 504.772 120.401 505.942 118.714C507.121 117.014 507.941 115.1 507.904 112.907L505.904 112.941C505.932 114.583 505.326 116.091 504.298 117.574C503.261 119.07 501.838 120.479 500.306 121.92C498.804 123.334 497.179 124.794 495.884 126.31C494.585 127.831 493.517 129.519 493.216 131.446L495.192 131.755ZM507.904 112.907C507.88 111.503 508.26 110.806 508.681 110.465C509.117 110.112 509.854 109.932 510.99 110.126C513.277 110.517 516.481 112.321 519.628 115.169L520.97 113.686C517.707 110.733 514.161 108.639 511.327 108.155C509.903 107.911 508.486 108.049 507.422 108.911C506.343 109.784 505.875 111.198 505.904 112.941L507.904 112.907ZM521.236 114.778C524.999 104.72 530.84 97.5746 532.633 94.373L530.888 93.396C529.338 96.1637 523.183 103.866 519.363 114.077L521.236 114.778ZM532.633 94.3728C534.392 91.2284 535.114 88.7707 535.221 86.4937C535.327 84.2421 534.823 82.2442 534.293 80.1153C533.244 75.9024 531.909 70.5906 534.113 60.0005L532.154 59.5931C529.869 70.5755 531.259 76.2095 532.352 80.5984C532.893 82.7703 533.313 84.4873 533.223 86.3997C533.135 88.2869 532.54 90.4426 530.887 93.3962L532.633 94.3728ZM313.205 80.61C312.604 77.9317 310.323 75.4063 307.573 73.2832C304.782 71.1282 301.326 69.2489 298.071 67.9082C294.843 66.5789 291.689 65.7277 289.516 65.7331C288.486 65.7356 287.344 65.929 286.675 66.7295C285.915 67.6382 286.134 68.8149 286.663 69.8577L288.447 68.953C288.248 68.5607 288.19 68.3039 288.184 68.1582C288.179 68.0366 288.207 68.0143 288.209 68.0121C288.266 67.9446 288.579 67.7354 289.521 67.7331C291.295 67.7287 294.155 68.4584 297.309 69.7575C300.435 71.0451 303.728 72.8415 306.351 74.8663C309.015 76.923 310.812 79.0815 311.254 81.0479L313.205 80.61ZM286.663 69.8577C288.137 72.7627 291.192 76.3683 294.984 79.9202C298.794 83.4895 303.421 87.0733 308.115 89.9215L309.152 88.2117C304.586 85.4406 300.068 81.9427 296.351 78.4607C292.615 74.9612 289.762 71.5458 288.447 68.953L286.663 69.8577ZM309.371 89.7417C312.051 86.813 313.888 83.6478 313.205 80.6096L311.254 81.0483C311.699 83.0293 310.539 85.5034 307.896 88.3915L309.371 89.7417ZM386.463 88.5158C390.431 87.6631 392.577 85.6514 394.083 83.4778C394.811 82.4267 395.404 81.3145 395.95 80.3645C396.513 79.3847 397.037 78.5557 397.675 77.8992L396.24 76.5059C395.415 77.3553 394.787 78.374 394.216 79.368C393.628 80.3918 393.104 81.3794 392.439 82.3387C391.16 84.1855 389.416 85.8357 386.043 86.5605L386.463 88.5158ZM397.675 77.8992C398.123 77.4378 398.48 76.8792 398.539 76.2345C398.603 75.54 398.303 74.9556 397.853 74.5299C397.427 74.1267 396.851 73.8418 396.223 73.636C395.584 73.4263 394.826 73.2772 393.975 73.1857C390.59 72.822 385.366 73.3332 379.254 75.1563L379.826 77.0728C385.774 75.2984 390.721 74.8476 393.761 75.1743C394.516 75.2555 395.13 75.3822 395.6 75.5363C396.081 75.6943 396.35 75.8611 396.478 75.9821C396.537 76.0375 396.55 76.0687 396.55 76.0694C396.551 76.0699 396.549 76.0664 396.548 76.0604C396.547 76.0543 396.548 76.0511 396.547 76.0525C396.547 76.0618 396.523 76.2142 396.24 76.5059L397.675 77.8992ZM379.254 75.1563C376.141 76.0848 374.21 77.4792 373.536 79.2883C372.846 81.1426 373.628 82.9876 374.879 84.4211C376.144 85.8709 378.035 87.0953 380.073 87.8579C382.109 88.6199 384.396 88.9597 386.463 88.5159L386.043 86.5604C384.454 86.9017 382.566 86.6556 380.774 85.9848C378.983 85.3145 377.392 84.259 376.386 83.1061C375.365 81.9369 375.087 80.8563 375.411 79.9862C375.752 79.0709 376.911 77.9422 379.826 77.0729L379.254 75.1563ZM475.867 24.7031C476.343 23.7506 476.672 22.7694 476.82 21.8474C476.965 20.9382 476.945 20.0157 476.643 19.228C476.327 18.4006 475.698 17.7379 474.745 17.489C473.848 17.2549 472.809 17.4251 471.685 17.8924L472.454 19.739C473.372 19.3569 473.935 19.3446 474.24 19.4241C474.488 19.4888 474.658 19.6356 474.776 19.9429C474.908 20.2899 474.958 20.8271 474.845 21.5315C474.734 22.2233 474.478 23.0098 474.078 23.8079L475.867 24.7031ZM471.685 17.8924C469.318 18.8773 468.09 20.6363 467.836 22.7658C467.593 24.8085 468.253 27.087 469.366 29.2468L471.144 28.3306C470.12 26.3434 469.645 24.485 469.822 23.0027C469.989 21.6072 470.737 20.4532 472.454 19.739L471.685 17.8924ZM469.366 29.2471C469.648 29.7926 469.94 30.2474 470.257 30.585C470.57 30.9182 470.993 31.2251 471.532 31.2763C472.097 31.3298 472.55 31.0829 472.863 30.808C473.165 30.5426 473.407 30.1945 473.604 29.8557C473.998 29.1778 474.365 28.2653 474.718 27.3802C475.085 26.4624 475.451 25.5324 475.866 24.7033L474.078 23.8078C473.617 24.7285 473.217 25.7461 472.861 26.639C472.491 27.5647 472.18 28.3259 471.875 28.85C471.723 29.1122 471.609 29.2471 471.544 29.305C471.488 29.3533 471.56 29.2699 471.721 29.2852C471.857 29.2981 471.855 29.3652 471.714 29.215C471.577 29.0691 471.385 28.7971 471.144 28.3303L469.366 29.2471ZM171.432 112.474C171.968 112.478 172.514 112.375 172.953 112.049C173.43 111.696 173.64 111.186 173.664 110.685C173.686 110.219 173.552 109.764 173.375 109.373C173.193 108.972 172.936 108.575 172.637 108.205C172.043 107.468 171.221 106.759 170.308 106.283C169.404 105.812 168.299 105.512 167.202 105.79L167.693 107.729C168.14 107.616 168.724 107.713 169.383 108.056C170.031 108.394 170.643 108.918 171.08 109.46C171.297 109.729 171.456 109.984 171.554 110.2C171.657 110.426 171.668 110.554 171.666 110.589C171.666 110.59 171.683 110.501 171.762 110.443C171.804 110.411 171.749 110.476 171.446 110.474L171.432 112.474ZM167.202 105.79C166.706 105.916 166.245 106.13 165.897 106.48C165.53 106.849 165.346 107.311 165.333 107.794C165.308 108.672 165.836 109.484 166.385 110.079C167.517 111.305 169.534 112.459 171.432 112.474L171.447 110.474C170.235 110.465 168.713 109.652 167.855 108.723C167.409 108.24 167.33 107.927 167.332 107.85C167.332 107.845 167.332 107.854 167.325 107.871C167.318 107.888 167.311 107.895 167.315 107.891C167.328 107.877 167.419 107.798 167.693 107.729L167.202 105.79ZM245.843 55.7183C248.035 55.6817 249.417 54.5009 250.037 53.2458C250.335 52.6431 250.479 51.9758 250.405 51.3844C250.368 51.0891 250.266 50.7449 250.029 50.4514C249.77 50.131 249.386 49.9224 248.936 49.9109L248.885 51.9102C248.719 51.906 248.564 51.82 248.474 51.7087C248.406 51.6244 248.413 51.576 248.421 51.6343C248.435 51.7502 248.411 52.0219 248.244 52.3601C247.934 52.9867 247.206 53.6953 245.809 53.7186L245.843 55.7183ZM248.936 49.9109C247.835 49.8828 240.925 49.3605 236.655 49.0073L236.491 51.0005C240.726 51.3509 247.711 51.8803 248.885 51.9102L248.936 49.9109ZM236.655 49.0073C236.35 48.9821 236.065 48.9784 235.807 49.0054C235.56 49.0313 235.273 49.0916 235.011 49.2419C234.723 49.4071 234.452 49.6939 234.364 50.1122C234.285 50.4913 234.391 50.8218 234.495 51.039C234.696 51.4571 235.073 51.8307 235.441 52.1363C235.836 52.4638 236.332 52.8008 236.892 53.1283C239.096 54.4185 242.654 55.7703 245.842 55.7183L245.81 53.7186C243.11 53.7626 239.916 52.5813 237.902 51.4023C237.407 51.1126 237.007 50.8362 236.718 50.5964C236.573 50.4767 236.466 50.3743 236.392 50.2919C236.314 50.2048 236.294 50.1649 236.298 50.1724C236.298 50.173 236.366 50.3091 236.322 50.5211C236.27 50.7722 236.106 50.9191 236.005 50.977C235.93 51.02 235.91 51.0056 236.015 50.9945C236.11 50.9846 236.264 50.9818 236.491 51.0005L236.655 49.0073ZM236.26 48.2824C236.866 48.2522 237.42 48.1544 237.856 47.9278C238.339 47.6772 238.75 47.2154 238.759 46.5551C238.766 46.0091 238.485 45.5578 238.244 45.2602C237.982 44.9372 237.639 44.6376 237.273 44.373C236.538 43.8422 235.583 43.3604 234.635 43.0605C233.728 42.773 232.639 42.5922 231.729 42.887L232.345 44.7897C232.65 44.6911 233.241 44.7167 234.032 44.9672C234.783 45.2052 235.546 45.5928 236.101 45.9942C236.38 46.1957 236.575 46.3779 236.69 46.519C236.824 46.6853 236.757 46.6802 236.759 46.529C236.762 46.2634 236.95 46.145 236.935 46.1528C236.874 46.1845 236.656 46.2601 236.16 46.2848L236.26 48.2824ZM231.729 42.887C230.927 43.1467 230.201 43.6994 230.09 44.6176C229.99 45.4501 230.46 46.169 230.975 46.6581C232.044 47.6735 233.982 48.3953 236.259 48.2824L236.16 46.2848C234.306 46.3768 232.943 45.7694 232.352 45.2077C232.036 44.9084 232.086 44.7767 232.076 44.8575C232.056 45.0238 231.932 44.9236 232.345 44.7897L231.729 42.887ZM225.98 45.0176C227.684 45.1362 228.829 44.5403 229.415 43.5247C229.935 42.6239 229.881 41.6071 229.74 41.0531L227.802 41.547C227.859 41.7691 227.864 42.2111 227.683 42.5257C227.567 42.7254 227.254 43.1014 226.119 43.0224L225.98 45.0176ZM229.74 41.0531C229.655 40.7179 229.451 40.4561 229.291 40.2824C229.113 40.0907 228.894 39.9074 228.652 39.7351C228.167 39.3892 227.516 39.0337 226.732 38.7024C225.16 38.0377 222.973 37.4368 220.325 37.2208L220.163 39.2142C222.606 39.4135 224.584 39.9658 225.953 40.5446C226.64 40.835 227.154 41.1238 227.491 41.3637C227.66 41.4844 227.766 41.5794 227.823 41.6413C227.897 41.7212 227.838 41.6882 227.802 41.547L229.74 41.0531ZM220.325 37.2208C219.648 37.1656 218.994 37.1932 218.483 37.4356C218.203 37.5682 217.929 37.7832 217.755 38.1117C217.58 38.4397 217.558 38.7803 217.601 39.0683C217.68 39.5932 217.992 40.0721 218.289 40.4429C218.61 40.8426 219.027 41.2515 219.485 41.645C220.404 42.4334 221.574 43.2306 222.711 43.8474C223.81 44.4444 225.019 44.9505 225.98 45.0176L226.119 43.0224C225.612 42.987 224.724 42.6647 223.665 42.0896C222.642 41.5344 221.59 40.8159 220.788 40.1274C220.386 39.7824 220.067 39.4625 219.849 39.191C219.608 38.8906 219.577 38.7556 219.579 38.772C219.584 38.8057 219.591 38.9184 219.521 39.0508C219.45 39.1836 219.356 39.2353 219.34 39.2428C219.333 39.2461 219.384 39.2219 219.534 39.2074C219.679 39.1934 219.885 39.1915 220.163 39.2142L220.325 37.2208ZM407.735 73.6362C409.232 73.242 409.901 72.0712 410.168 70.8694C410.424 69.7178 410.363 68.351 410.293 67.1706L408.296 67.2882C408.368 68.5105 408.401 69.5997 408.216 70.4354C408.041 71.221 407.732 71.5688 407.226 71.7022L407.735 73.6362ZM410.293 67.1706C410.266 66.7045 410.109 66.1873 409.666 65.8239C409.235 65.4698 408.719 65.4179 408.316 65.4514C407.548 65.5155 406.654 65.9335 405.82 66.413C404.086 67.4094 401.979 69.0559 400.308 70.451L401.59 71.9862C403.25 70.5998 405.245 69.0504 406.816 68.1469C407.635 67.6766 408.193 67.4686 408.482 67.4445C408.608 67.4341 408.523 67.4726 408.398 67.37C408.262 67.2582 408.289 67.1537 408.296 67.2882L410.293 67.1706ZM400.308 70.451C399.855 70.8293 399.486 71.2058 399.239 71.5851C398.999 71.9539 398.79 72.4576 398.916 73.0158C399.047 73.5987 399.473 73.9415 399.843 74.1262C400.208 74.309 400.636 74.4025 401.053 74.4519C402.694 74.6468 405.308 74.2745 407.735 73.6364L407.226 71.7021C404.867 72.3224 402.549 72.6155 401.289 72.4659C400.98 72.4292 400.809 72.3735 400.737 72.3373C400.669 72.3032 400.817 72.3574 400.867 72.5757C400.91 72.7691 400.814 72.8319 400.915 72.6773C401.009 72.533 401.21 72.3033 401.59 71.9862L400.308 70.451Z" fill="#FF78FD" mask="url(#path-1-outside-1_691_2233)"/>
</g>
<path d="M425.307 140.4C423.516 140.4 421.799 139.689 420.533 138.423C419.267 137.157 418.556 135.44 418.556 133.65C418.556 131.86 419.267 130.143 420.533 128.877C421.799 127.611 423.516 126.9 425.307 126.9C427.097 126.9 428.814 127.611 430.08 128.877C431.346 130.143 432.058 131.86 432.058 133.65C432.058 134.536 431.883 135.414 431.544 136.233C431.205 137.052 430.707 137.796 430.08 138.423C429.454 139.05 428.709 139.547 427.89 139.886C427.071 140.225 426.193 140.4 425.307 140.4ZM425.307 114.75C420.294 114.75 415.486 116.741 411.941 120.286C408.396 123.83 406.404 128.637 406.404 133.65C406.404 147.825 425.307 168.75 425.307 168.75C425.307 168.75 444.209 147.825 444.209 133.65C444.209 128.637 442.218 123.83 438.673 120.286C435.128 116.741 430.32 114.75 425.307 114.75Z" fill="#FF78FD"/>
<g opacity="0.35" filter="url(#filter1_f_691_2233)">
<ellipse cx="425.307" cy="182.25" rx="16.2022" ry="4.05" fill="#FF78FD"/>
</g>
<defs>
<filter id="filter0_df_691_2233" x="0.0380859" y="9.15015" width="560.924" height="305.028" filterUnits="userSpaceOnUse" color-interpolation-filters="sRGB">
<feFlood flood-opacity="0" result="BackgroundImageFix"/>
<feColorMatrix in="SourceAlpha" type="matrix" values="0 0 0 0 0 0 0 0 0 0 0 0 0 0 0 0 0 0 127 0" result="hardAlpha"/>
<feOffset/>
<feGaussianBlur stdDeviation="1"/>
<feComposite in2="hardAlpha" operator="out"/>
<feColorMatrix type="matrix" values="0 0 0 0 1 0 0 0 0 0.470588 0 0 0 0 0.992157 0 0 0 1 0"/>
<feBlend mode="normal" in2="BackgroundImageFix" result="effect1_dropShadow_691_2233"/>
<feBlend mode="normal" in="SourceGraphic" in2="effect1_dropShadow_691_2233" result="shape"/>
<feGaussianBlur stdDeviation="1" result="effect2_foregroundBlur_691_2233"/>
</filter>
<filter id="filter1_f_691_2233" x="405.104" y="174.2" width="40.4043" height="16.1" filterUnits="userSpaceOnUse" color-interpolation-filters="sRGB">
<feFlood flood-opacity="0" result="BackgroundImageFix"/>
<feBlend mode="normal" in="SourceGraphic" in2="BackgroundImageFix" result="shape"/>
<feGaussianBlur stdDeviation="2" result="effect1_foregroundBlur_691_2233"/>
</filter>
</defs>
</svg>
